<svg width="100" height="250" xmlns="http://www.w3.org/2000/svg">
 <g>
  <path d="M75 40 Q75 49 71 54 Q66 61 58 64 Q50 66 42 64
           Q36 61 30 55 Q26 48 25 40 Q25 31 29 25 Q34 18 42 16
           Q50 14 58 16 Q66 20 70 25 Q74 31 75 40 Z"
   stroke="black" fill="transparent" stroke-width="5"/>
  <!--<circle cx="50" cy="40" r="20" fill="white"/>-->
  <path d="M50 65 q-.5 5 0 10 t0 10 t0 11 t0 12 t0 11 t0 12 t0 12
           q-0.95 5.65 -3 11 t-3 11 t-3 12 t-3 10 t-3 11 t-3 12 t-3 10 t-3 11 t-3 11
           M50 143 q.95 5.65 3 11 t3 11 t3 12 t3 10 t3 11 t3 12 t3 10 t3 11 t3 11
           M50 75 q-0.95 5.65 -3 11 t-3 11 t-3 12 t-3 10 t-3 11 t-3 12 t-3 10
           M50 75 q.95 5.65 3 11 t3 11 t3 12 t3 10 t3 11 t3 12 t3 10"
   stroke="black" fill="transparent" stroke-width="5"/>
  </g>
</svg>
