<?xml version="1.0" encoding="UTF-8" standalone="no"?>
<!-- Generated by geo2svg 2.3.2. https://d3js.org/d3-geo-projection/ -->

<svg
   xmlns:dc="http://purl.org/dc/elements/1.1/"
   xmlns:cc="http://creativecommons.org/ns#"
   xmlns:rdf="http://www.w3.org/1999/02/22-rdf-syntax-ns#"
   xmlns:svg="http://www.w3.org/2000/svg"
   xmlns="http://www.w3.org/2000/svg"
   xmlns:sodipodi="http://sodipodi.sourceforge.net/DTD/sodipodi-0.dtd"
   xmlns:inkscape="http://www.inkscape.org/namespaces/inkscape"
   version="1.1"
   width="901.1322"
   height="490.491"
   viewBox="0 0 901.1322 490.491"
   id="svg14384"
   inkscape:version="0.91 r13725"
   sodipodi:docname="world.svg"
   style="fill:none;stroke:#afafaf">
  <metadata
     id="metadata14750">
    <rdf:RDF>
      <cc:Work
         rdf:about="">
        <dc:format>image/svg+xml</dc:format>
        <dc:type
           rdf:resource="http://purl.org/dc/dcmitype/StillImage" />
        <dc:title></dc:title>
      </cc:Work>
    </rdf:RDF>
  </metadata>
  <defs
     id="defs14748" />
  <sodipodi:namedview
     pagecolor="#ffffff"
     bordercolor="#666666"
     borderopacity="1"
     objecttolerance="10"
     gridtolerance="10"
     guidetolerance="10"
     inkscape:pageopacity="0"
     inkscape:pageshadow="2"
     inkscape:window-width="1271"
     inkscape:window-height="706"
     id="namedview14746"
     showgrid="false"
     inkscape:zoom="1"
     inkscape:cx="381.40641"
     inkscape:cy="247.81089"
     inkscape:window-x="0"
     inkscape:window-y="0"
     inkscape:window-maximized="0"
     inkscape:current-layer="svg14384"
     fit-margin-top="10"
     fit-margin-left="23"
     fit-margin-right="23"
     fit-margin-bottom="10" />
  <path
     d="m 447.25898,203.30861 -1.3,1.3 0.6,2.8 3.3,3.5 1.1,5.8 0.7,2.4 0,6.5 0.3,2.5 -1.1,1.1 1.6,2.5 0.1,1.5 3.7,1.6 1,2.3 -11.1,8 -4.1,4.2 -3.9,0.9 -2.3,0.5 -0.2,-2.5 -5.2,-2.7 0,-1.1 -14.8,-11.7 -2.6,-2 -7,-5 0.1,-1.2 0,-3.1 3.9,-2.9 3.8,-0.8 1.6,-1.8 3.2,-1.6 -0.5,-2.1 2.4,-1.3 4,0 0.5,-1.3 -1.6,-2.3 -0.2,-4.7 -1.1,-1.1 2.8,-1.9 5.5,-2.6 4.2,-0.9 4.6,-0.4 1,0.8 3,-1.4 5.3,0.9 -0.6,1.1 -0.2,5.8 z"
     id="path14386"
     inkscape:connector-curvature="0"
     style="fill:#c5c7ca" />
  <path
     d="m 539.65898,189.40861 -1.9,-0.5 -1.6,-2 -0.1,-0.3 2.5,0.6 z m -2.8,-6.9 0,0 0,0 z m -0.4,-0.2 0,0 0,0 z m 8.3,-2.6 2.7,3.9 1.7,0.5 -1.6,0.9 -1.2,5.8 -2.3,-1.3 0.7,-1.8 -1.3,-0.9 -3,2.5 -0.3,-1.6 -2.1,-2.1 0.9,-0.6 -2.6,-3.6 0.6,-0.5 3,1.4 -0.4,-2.9 2.2,1.9 1.5,0.4 z m -7.2,4 0,0 0,0 z"
     id="path14388"
     inkscape:connector-curvature="0"
     style="fill:#c5c7ca" />
  <path
     d="m 474.35898,179.60861 0.7,-2.7 0.9,0.4 1.2,2.2 -0.1,1.8 1.2,1.6 -1.7,3.9 -2.3,-3.2 0.6,-3.8 z"
     id="path14390"
     inkscape:connector-curvature="0"
     style="fill:#c5c7ca" />
  <path
     d="m 537.55898,183.70861 0,0 0,0 z m 2.9,5.6 -0.8,0.1 -1.1,-2.2 -2.5,-0.6 -2.8,-1.2 -0.7,-3.3 3.8,-0.7 2.6,3.6 -0.9,0.6 2.1,2.1 z m -4,-7 0,0 0,0 z m 0.4,0.2 0,0 0,0 z"
     id="path14392"
     inkscape:connector-curvature="0"
     style="fill:#c5c7ca" />
  <path
     d="m 487.75898,337.30861 0,6.2 -5.1,0 -0.1,5.1 0,3.7 0.3,1 3.3,3.8 -5.5,0.9 -6.3,-0.6 -0.7,-1 -11.3,0 -1.1,-1.1 -1.5,0 -1,0.6 -0.1,0 -1.7,0.1 -0.1,-4.1 0.7,-0.8 1.4,-6.3 3.1,-4.4 0.2,-2.9 -2.1,-5.4 1,-1.9 -1.4,-4.2 -1.4,-2.4 2.3,-0.8 8.6,0.2 0.8,3.6 1.5,2.5 4.6,-0.1 0.5,-2.9 2.7,-0.3 -0.2,1.1 3.1,0 0.3,3.5 -0.3,2.6 1.8,4.8 z m -29.6,-14.8 -0.4,-2 1.6,-1.5 1.1,0.3 z"
     id="path14394"
     inkscape:connector-curvature="0"
     style="fill:#c5c7ca" />
  <path
     d="m 267.55898,477.40861 0,-0.4 0,0.4 z m 0,-0.4 -1.1,-7.8 0.5,1.8 3.2,3.2 2.8,1.9 2.7,0.4 -0.4,1 -2.5,0.5 z m 0.1,-104.5 0,0.2 0.8,-2.6 2.9,0 0.7,1.1 1.2,1.3 1.1,1.4 0.1,0 0,0 3.5,2.3 0.7,0 5.8,3.6 0,1.5 -0.9,2.8 -1,1.4 0,0.1 0.3,0.4 3.7,0.6 0.8,0 0.6,0.2 0.5,-0.3 0.3,-0.4 0.8,0.3 0.6,-0.3 0.7,-1.1 0.7,-0.5 0.1,-0.4 0.2,0 0.3,-2 0.2,-1.3 1.7,0.2 0.7,1.8 -0.3,2.7 -2.4,1.3 -2.3,2.1 -4.1,6 -0.5,1.4 -0.2,3.7 -0.2,1.8 -0.6,4 0.3,2.7 3.5,2.8 -0.2,2.2 1.6,1 0.2,1.5 -1.8,3.9 -3.5,1.9 -6.1,1.1 -2,-0.7 0.9,2.2 -0.8,2.7 0.6,1.8 -3.4,1 -3,-1.5 -0.5,0.9 1.9,4.7 2,-1.1 0.4,2.5 -2.4,-1 -0.8,0.9 1.8,0.6 -2.2,2.2 0.3,1.5 -0.7,3.2 -3.1,0.8 -1.1,3 2.5,3 2.2,0.5 0,2.7 -3.5,3.7 -0.1,3 -2.2,1.4 -0.5,2.4 2.4,5 -3.9,-1.4 -4.5,0 -1.4,-1.7 -0.1,-3.1 -2,0.5 -1.3,-2.3 -0.1,-2.8 1.9,-1.9 -0.4,-3 1.3,-2.7 0.6,-6.2 -2.1,-1.9 1.7,0.2 -1.2,-1.4 0.1,-1.6 -1.5,-3 -0.3,-7.6 0.7,-6 1.1,-0.6 -1,-3.1 -0.1,-4 1.3,-1 0.1,-4.8 0.9,-1.3 -0.1,-2.7 -2.5,-5.7 1.4,-3.9 -0.6,-3 0.7,-2.8 1.8,-4 1.2,-0.3 -1.1,-6.7 3,-2.4 0.1,-3.6 2.2,-3.1 0.9,0.7 3.4,0.7 z"
     id="path14396"
     inkscape:connector-curvature="0"
     style="fill:#c5c7ca" />
  <path
     d="m 778.35898,428.70861 2.4,1.2 5.3,-0.6 -0.8,2.7 -2.3,4.8 -0.6,-1.2 -1.7,2.3 -2.1,-0.3 -1.2,-3 0.4,-1.3 -0.7,-3.2 z m -14.8,-16.7 -2.5,1.4 -0.2,-0.9 z m -8.6,-73.3 2.4,0.3 -1.6,1.4 z m 30,-1.4 2,5.1 0.5,5.2 1.8,-0.7 1.9,2.3 -0.2,4.5 1.5,3.5 -0.4,1.8 0.8,2.4 5.4,3.4 1.4,6.8 1.1,-1 1.6,1.7 -0.1,2.3 4.3,5.3 -0.2,6.7 0.5,2.5 -2.8,8.4 -2.1,4.3 -2.1,1.5 -2.9,4.6 -0.7,2.1 -2.2,3 -1.6,5 -1.4,0.9 -2.8,0.1 -5.2,3.2 -2.3,-0.8 -1,-2.2 -3.8,3.2 -2.5,-1.7 -2.3,0.1 -2.3,-1.6 -1,-2.2 0.5,-1.7 -0.4,-2.5 -2.2,-0.8 0.5,-2.7 -0.7,-2 -1.6,3.2 -2.1,0.3 1.7,-1.1 0.9,-3.2 1.6,-2.4 -0.3,-1.8 -2.1,3.5 -3.6,2.7 -1.3,0.4 -0.9,-4.7 -1,0.1 -0.1,-2.3 -1.2,-1.1 -3.3,-0.2 -2.3,-1.8 -5.5,0.8 -4.3,1.7 -3.4,0 -4.4,2.3 -2.2,2.8 -3.8,-0.2 -4.9,0.3 -5.3,3.4 -3,0.2 -2,-0.8 -2.1,-1.7 0.3,-2.4 1.9,-0.9 0.7,-4.2 -1.2,-4.3 0.3,-3.1 -1.5,-4.3 0,-2 -1.6,-3.2 1.9,0.2 0.7,-1.9 -1.7,-4.8 1.2,-2.1 0.1,-2.8 1.1,-2.3 0.1,2 1.4,-2 2.2,-1 3.3,-2.5 1.7,0.1 5.7,-1.9 4.2,-1.9 3,-3.8 -0.2,-2.3 2.1,-2.8 1.4,3.2 0.4,-4 1.8,0.8 0.5,-2.7 3.4,-3.6 2.2,-0.1 1,-1.5 2.8,2.9 4.1,0.5 -1,-1.3 2.8,-5.2 2,-1.5 3.8,-0.2 0.2,-1.2 -2.2,-1.1 1.4,-0.5 0.9,1.2 5.1,1.3 0.8,0.8 1.7,-0.9 0.6,1.6 1.1,-1.5 1.2,1.1 -2.8,2.9 0.2,1 -1.8,3.6 3.2,2.9 2.3,1 1,1.4 2.1,0.6 2.2,2.3 2.1,-0.7 1.9,-4.1 0.8,-3 -0.2,-3.2 1.3,-3.6 -0.5,-0.8 z"
     id="path14398"
     inkscape:connector-curvature="0"
     style="fill:#c5c7ca" />
  <path
     d="m 233.75898,232.10861 1,2.1 -0.8,0.7 z"
     id="path14400"
     inkscape:connector-curvature="0"
     style="fill:#c5c7ca" />
  <path
     d="m 657.95898,241.80861 0.2,2 -0.9,0.7 -2.4,-5.2 -1.2,0.6 -1.1,-2 0.3,3 -0.9,1.4 -2.8,0 0,-0.9 -1.5,-6.6 -1.5,-0.6 0.7,-2.1 1.2,0.1 -2.3,-2.3 0.9,-1.3 2.2,1 0.6,-0.7 0.7,2.7 1.6,0.6 4.9,0.4 -1.1,2.6 -1.7,1.5 1.4,2.2 1.4,-2.3 z"
     id="path14402"
     inkscape:connector-curvature="0"
     style="fill:#c5c7ca" />
  <path
     d="m 207.15898,252.10861 0.6,1.1 -0.6,3.4 -1.9,3.2 -0.8,-0.1 0.6,-5.6 z"
     id="path14404"
     inkscape:connector-curvature="0"
     style="fill:#c5c7ca" />
  <path
     d="m 470.05898,175.80861 -1.1,-1.4 -2.3,-2.5 -1.4,-2.2 0.4,-1.4 2.4,-0.1 5.1,1.4 1.5,2.7 -0.9,1.8 -1.8,3.2 z"
     id="path14406"
     inkscape:connector-curvature="0"
     style="fill:#c5c7ca" />
  <path
     d="m 263.65898,370.10861 -0.9,-0.7 -2.2,3.1 -1.7,0.1 -0.8,-3.5 -1.2,-2.3 0.2,-0.8 -0.5,-0.3 -0.3,-0.4 -0.1,-0.9 0.2,-1.2 0.1,-0.3 -0.1,-1 -1,-2.1 -0.3,-1 0.1,-0.5 -1.2,-1.6 -0.4,-0.6 1.9,-2.8 -1.5,-2.1 0,-2 1.2,-2.2 -0.4,-3.9 0.7,-1.1 -2.4,-4.5 3.3,0.1 0.6,-0.9 0.5,0 0.4,-0.1 2.2,-1.9 0.3,-0.2 0.6,-0.1 1,-0.2 0.9,0.1 0.3,-0.1 0.4,-0.1 0,4.4 0.6,1.1 0,0.2 2.4,2.2 2,0.3 0.4,0.4 0.3,-0.2 0.1,-0.1 0.7,1 0.6,0.2 1.9,1.3 2.1,0 1.7,1.5 0,0 0.3,1.8 0.1,0.3 0.4,4.5 4.4,0.2 0.1,2.8 1.8,1.4 0.5,1.4 -0.9,3.6 -0.5,2.2 0,-1 -2.4,-1.4 -2.1,-0.2 -4.5,1.1 -1.1,2.6 -0.7,5.1 -0.4,-0.7 -2.9,0 -0.8,2.6 0,-0.2 -0.6,-1.7 z"
     id="path14408"
     inkscape:connector-curvature="0"
     style="fill:#c5c7ca" />
  <path
     d="m 679.25898,242.90861 -2.3,3.7 -1.5,0 -1.1,1.7 -2.4,0 -0.7,2.5 0.4,3.7 2.1,2.5 0.6,1.6 -0.9,4.4 2.5,3.2 -0.1,1.9 1.5,3.6 -2.1,4.3 -0.5,-6.8 -2.5,-6.4 -0.6,-4.8 -2.1,-2.6 -0.1,1.9 -3.3,3 -2.9,-0.7 0.6,-4.7 -2.2,-5 -1.4,-2.4 -0.6,0.6 -2.4,-3.6 0.9,-0.7 -0.2,-2 1.3,-0.7 -0.1,-5.4 2.1,0.4 1.6,-5.7 0.1,-2.6 2.4,-2 2.5,0.4 -0.8,-1.4 0.9,-1.9 0.4,-1 3,2.8 0.6,3.1 -0.6,3.1 -1.5,1.6 0.1,3.6 2.6,-0.3 0.8,2.3 1.4,0.3 -0.6,2.8 2,0.4 0.8,1.8 z"
     id="path14410"
     inkscape:connector-curvature="0"
     style="fill:#c5c7ca" />
  <path
     d="m 431.65898,287.90861 0,-8.1 -0.7,-2.8 -1.5,-1.1 0.4,-1.8 1.3,-1.4 1.4,0.1 1,-1.3 1.2,-1.5 1.8,2.1 0.4,1.6 -0.2,2.8 -2.3,4.2 -0.1,0.8 0,6 z"
     id="path14412"
     inkscape:connector-curvature="0"
     style="fill:#c5c7ca" />
  <path
     d="m 828.95898,333.20861 1.7,1.4 -2.1,-0.4 z m -0.1,-3.2 0.1,0.6 -3.2,-2.4 z"
     id="path14414"
     inkscape:connector-curvature="0"
     style="fill:#c5c7ca" />
  <path
     d="m 297.05898,310.10861 0.8,-2.1 1.1,-0.2 z m 5.5,-3.5 3.3,0 -1.1,3.5 -4.3,1 -0.7,-1.1 0.4,-3.3 z m -17,-6.4 1.2,0.4 -0.3,-1.2 2.6,-0.8 2.5,1.2 0.9,-0.7 2,0.5 1.5,-2.3 0.2,-0.7 0,-0.1 1.4,-2.2 1.6,0.4 0.2,2.2 1.3,3.7 1.4,0.3 -0.1,1.8 -3.2,3.6 -2.5,4.5 3.5,-2.2 -0.4,3.2 4.3,-1 -0.4,2 3.5,-4.9 1.5,-0.3 3,1.7 3.6,0.9 1.1,3.1 2.6,-0.6 4.4,1.6 4,-0.2 3.9,2.5 3.3,3.5 4.4,0.8 1.6,5.7 -0.9,5.1 -3,4.5 -1.6,1 -3.1,6.1 -1,-1 -0.9,2.7 0.7,6.9 -0.8,3.8 0.3,1.6 -1.3,1.6 0,3.1 -1.7,3.9 -0.8,0.7 -0.4,3.3 -1.9,1.2 -0.7,1.7 -6.5,0.5 0.4,0.6 -3.6,1.5 -4.9,3.9 -1.2,2.4 -0.1,8.1 -2,2.2 -2.4,5.7 0.4,-2.5 -1.6,0 -1,3 -1.3,1.6 -1,4.7 -1.8,1.3 -0.1,-0.1 0,-1.5 0,-0.2 0.9,-1.2 0,0 -1.2,-0.9 -0.9,-1.4 -3.4,-2.3 -1,-1.2 -0.1,0 0,0 -0.9,0.3 -0.6,-1.2 -2.3,-1.1 -0.1,0.2 -0.9,0 -0.2,-0.3 4.1,-6 2.3,-2.1 2.4,-1.3 0.3,-2.7 -0.7,-1.8 -1.7,-0.2 0.4,-3 0,-0.1 0.2,-0.8 0,-0.7 -1.6,-0.4 -1.4,0.1 -0.7,-3.5 0,-0.5 -0.2,-0.1 -0.9,-0.9 -0.1,0 0,0 -0.2,0 -1.3,-0.2 -1.3,0 0,0 -0.9,-0.1 -0.8,-0.2 -0.2,-0.3 0.1,-3.5 -0.4,-1 0,-3.2 0.9,-3.6 -0.5,-1.4 -1.8,-1.4 -0.1,-2.8 -4.4,-0.2 -0.4,-4.5 -0.1,-0.3 -0.3,-1.8 0,0 -1.7,-1.5 -2.1,0 -1.9,-1.3 -0.6,-0.2 -0.7,-1 -0.1,0.1 -0.3,0.2 -0.4,-0.4 -2,-0.3 -2.4,-2.2 0,-0.2 -0.6,-1.1 0,-4.4 -0.4,0.1 -0.3,0.1 -0.9,-0.1 -1,0.2 -0.6,0.1 -0.3,0.2 -2.2,1.9 -0.4,0.1 -0.5,0 -0.6,0.9 -5.4,0.1 -0.4,-0.1 -0.1,0.1 -0.1,-3.5 -1,0.1 -2.9,0.5 -0.2,-0.8 -2,-1.5 -0.8,-1.8 -1,-2.1 -0.7,-1 2,-2.8 -0.1,-1.5 0.7,-2.5 1.3,-1.1 3.9,-1.7 2.2,0.1 1.1,-7.8 -0.4,-3 -1.1,-1 0.1,-2.1 2.2,-0.2 -1.8,-1.2 0.1,-1.8 4.3,-0.1 2,-1.1 1.1,2.6 1.4,1.3 3,-1 2.7,-1.6 1.8,-2.2 -1.7,-0.2 -0.3,-3.2 -1.1,-1.1 3.4,0.2 4.3,-1 2.4,-2.1 -0.3,-0.6 1.5,-0.2 -0.1,2.2 1.5,1.7 -1.1,3.5 0.5,2.4 2.5,1.9 4.3,-2.3 z"
     id="path14416"
     inkscape:connector-curvature="0"
     style="fill:#c5c7ca" />
  <path
     d="m 491.05898,180.00861 -0.1,0.1 -0.2,0.5 -1.6,0.8 -2.5,-0.8 -3,0.6 -0.7,0.1 -0.4,-2.2 -1.1,-1 1.4,-2.9 -1.6,-2.1 0.7,-1.4 0.5,1.2 6.1,0.8 3.6,-1.7 4,1.3 -1.4,3.5 -1.1,0.8 1.5,1.6 -1.9,-0.4 z"
     id="path14418"
     inkscape:connector-curvature="0"
     style="fill:#c5c7ca" />
  <path
     d="m 716.65898,292.00861 0.2,-0.3 -0.2,0.3 z m 0,-0.3 -0.9,2.6 -1.5,-1.7 z"
     id="path14420"
     inkscape:connector-curvature="0"
     style="fill:#c5c7ca" />
  <path
     d="m 283.45898,162.80861 -0.6,2.1 1.7,1 -3.7,1.3 -0.3,-1.5 2.6,-3.5 z m -8.6,0.4 1.8,1.1 2.5,-0.3 -1.1,1.8 -3.6,-1.4 z m 5.7,-9.2 -0.5,1.2 -3,-1.1 -1.8,-1.4 2.9,0 z m -153.3,-4.3 3.9,1.1 0.9,3 1.9,1.1 0.8,2.4 -0.7,0.5 -4.1,-2.1 -2.2,-1.7 -3.2,-4.8 z m 172.7,7.4 1.8,-0.3 -2.3,3.1 2.9,0.6 -1.5,3 -1.2,0 0.2,-1.7 -1.1,-2.4 -2.9,3.2 -1.4,0.2 2.5,-2.4 -7.5,-0.5 -2.6,0.5 -0.6,-1.1 2.6,-2.2 -0.8,-0.2 4.1,-7.1 2.1,-2.7 2.8,-0.7 -3.7,5.5 -0.4,1.6 2,-2.2 0.7,2.7 2.8,-0.5 2.3,0.9 -1.2,1.5 z m -62.5,-16.6 0.8,1.8 -3,-1.1 z m -118.6,0 -0.3,2.3 -1.6,-2.1 z m -1.6,-3.3 2.5,0.1 -1.4,3 -1.2,0.4 -0.9,-2.6 z m 127,-8.5 -1.3,2.1 -1.1,-0.3 1.9,-2.3 z m 2.8,-22.8 0.5,0.7 -1.3,2.3 -1.3,-0.7 1,-2.1 z m -5,-2.1 -2.4,2.5 -2.2,0.6 -0.4,-1.1 1.8,-2 z m -5.8,-11.499996 1,2.4 0.7,-1.1 5.6,3.9 0.1,1.5 2.9,1.299996 -2.3,1.4 -2.6,-0.8 -0.2,-1.199996 -2.2,-0.6 -0.5,1.399996 -4.1,2.6 -0.4,-2.2 -3.4,0.5 0.5,-1.499996 1.9,-0.8 -0.2,-1.3 1.9,-5.2 z m 26.9,-9.6 1.4,1.5 -2.4,-0.3 z m -2.9,-0.8 1,0.3 -0.3,2.5 -2.3,1.6 -2.4,-0.1 -0.3,-1.8 1.3,-1.9 z m -129.2,-1.8 -0.6,-0.1 -3,-0.8 0.6,-1.4 2.1,-0.9 2.8,-0.2 -2.6,2.5 z m 121.9,-4.5 -1.5,1.2 -1.4,-1.1 z m -39.6,0.4 2.3,1.7 0.3,2.4 -1.4,1.1 -2.5,-0.3 -3.4,-1.2 -0.8,-0.9 3,-1.3 1.4,-2.3 z m -82.9,4 0.6,0.1 -0.5,-1.1 10.6,-5 2.1,-0.5 0,1.1 -6.1,2.1 -2.6,2 4.7,-1.4 1.7,-1.3 7.8,-2.5 0.4,2.3 2.1,1.8 0.5,-1.3 2.7,-1.9 -1,2.8 2.2,0.1 1.4,-1.7 2.3,-0.1 3.4,1.8 3.3,0.7 1.4,1 4.1,0.7 1,-0.7 2.2,1.3 0.4,1.8 -2.8,0.3 -0.8,1 2.4,0.9 4.1,0.2 5.5,-1.3 0.5,1.1 2.4,0.5 0.9,1.3 -0.6,1.4 2.2,0.5 -1,-3.5 0.4,-1.3 5.3,-1.9 0.5,-0.8 -4.9,1.9 -2.6,-0.4 1.4,-1.4 5.2,-1.4 2.8,3.8 2,-0.1 4.2,1.6 1.9,-0.7 5.2,0.2 2.6,0.5 -0.8,-1.4 -1.1,0.7 -0.9,-2.1 3.3,-0.5 0.2,0.9 2.4,0 -1.7,3 0.4,1.3 2.2,-0.2 -0.8,-1.8 0.9,-1.5 1.6,0 2.8,-1.9 0.6,-1.4 -2.5,0.4 1.5,-2.9 -3.4,-1.4 -0.9,-1.6 1.6,-2 -1.1,-0.8 0.8,-2.2 5,-3.1 2.3,2.3 -0.1,2.8 1.5,0.9 0.9,2.1 -3.1,1.8 2,0.9 0.8,-0.6 2.4,0.8 -1.2,0.8 0.4,1.7 -0.8,1.8 0.9,0.7 1.6,-3.1 1.5,-1.1 2.1,2.2 0,1.8 -1.3,0.2 -0.2,2 1.1,2.8 2.4,-0.9 2,-2.9 2.2,-4.7 0.1,-2.6 2.4,-0.4 3.7,0.7 2.6,2.4 -1.7,1 1.2,1.3 -2.6,0.5 0.4,2.3 1.5,1.8 -0.9,2 -6,3.5 -3.1,-0.6 -0.1,-1.1 -2.5,0.2 1.2,1.4 -4,3.5 -1.4,0 -3.4,-2.5 -1.2,0.3 2.2,2.2 4.6,0.8 -3.1,3.8 -3.1,0.9 -1.8,-0.7 -0.5,2.099996 -1.8,0.2 0.2,2 -1.9,1.1 -2.4,-0.2 0.5,0.9 -4.8,4.8 -3.4,5.5 -0.6,3.3 0.7,1.4 2.7,0 0.8,4.8 -0.5,1.6 3.3,-0.8 5.1,1.6 2.4,2.8 4,1.5 1.1,1.4 2.9,-0.2 3.2,0.7 0.1,4.8 -0.8,3.2 1.3,2.5 3.5,4 1.2,-2 0.8,1.5 1.6,-4.3 -0.6,-1.6 0.3,-4.6 -1.3,-1.8 4.7,-2.1 3.8,-3.9 0.4,-3 -0.8,-3.4 -2.7,-2.6 1.3,-1.9 3.4,-3.4 -1.4,-0.5 -1.2,-2.2 1.9,-3.2 -0.9,-2.6 1.7,-1.2 3.9,1.1 2.9,0.2 1.8,-0.9 3.3,3.1 1.4,2.1 2.6,0.3 1.5,1 -1.2,1.1 -0.1,6.3 2.4,0.3 1.4,2.3 5,-3.3 2.6,-5 1.4,1.3 -0.1,2.5 1.1,0.2 1.8,3.3 0.1,3.7 2,1.5 -2,2.5 1.2,1.5 2.6,0.8 -0.8,2.2 3.5,0.1 -0.1,1 3.8,1.1 -3.1,2 -3.6,1 -0.3,1.7 3.9,-2.6 2.7,-0.6 0.9,1.6 2.6,1.4 -0.8,2.1 0.6,2.4 -3.3,2.4 -3.9,0.8 -3.3,3.1 -3.5,0.4 -5.9,-0.4 -6.2,0.2 -2.6,3.3 -1.8,0.2 -2.5,1.7 -2.5,3.5 -2.9,3.1 1.3,-0.6 3,-3.3 2.6,-1.9 5.8,-2.3 3.5,0.3 0.8,1.7 -3.3,2.2 -2.4,-0.4 1.8,1.7 2.3,-0.3 -1.9,2.1 1.7,2.9 1.9,1.5 4.1,-0.2 2.2,1.9 -5.1,1.8 -2.2,0.3 -3,3.2 -1.8,0.7 -0.6,-2.8 1.3,-1.4 3.2,-1.8 -6.9,0.3 -0.2,0.2 0,0 -0.3,-0.4 0,-0.1 0.1,-0.7 0,0 0.1,-0.1 0,-0.2 -0.8,-0.4 0.6,-4.7 -0.2,-0.1 -2.2,-0.4 -0.2,0.2 -0.2,-0.2 -0.1,-0.1 -0.1,-0.1 0,-0.1 -0.4,-0.5 -2,2.6 -0.2,0.4 -0.2,0.6 -0.1,0.1 -0.4,0.7 -0.2,0.6 -2.4,2.5 -0.1,0 -0.7,0.7 0,0 -1.9,0.2 -0.6,0 -2.7,0 -1.4,0 -1.3,0 -0.1,0 -0.1,0 -1.1,0.5 -0.3,0.2 -1.2,1.2 -0.1,0.1 -2.6,2.6 -4.6,0 -0.9,1.7 -0.1,0.1 0.1,0.4 0,0 0.1,0.2 0,0.1 -3,1.6 -1,0.3 -5.6,2.1 -0.8,-0.6 -0.1,-0.5 1.6,-1.8 0.2,-0.2 0.1,-0.4 0.1,-0.3 0.1,-0.3 1.1,-2.2 -0.2,-6 -0.9,-0.6 -0.4,-0.2 -0.9,-1.8 -0.6,0 -0.5,-1.4 0,0 -0.1,0 -0.6,0.1 -0.8,-0.8 0,-0.3 -1.1,-1 -0.8,-0.5 -5.3,-3.4 -1.1,0 -1.9,0.9 -1.6,-0.4 -0.2,-0.1 -1.6,-0.4 -0.2,0 -1.2,0.7 -1.8,-1 -0.1,0 -2.6,-0.8 0,0.1 -0.1,0 -0.5,0.1 -0.4,-0.4 -0.5,0 -0.3,-0.1 -0.1,0 0,0 0,-0.1 0,-0.1 -0.9,-0.9 0,-0.1 -0.1,-0.5 0,-0.2 -0.7,-0.6 -0.1,0.7 -0.1,0.6 -7.4,0 -1.4,0 -11.1,0 -1.2,0 -0.7,0 -10,0 -0.7,0 -3.6,0 -0.7,0 -6.9,0 -1.1,0 -3.6,0 -0.4,0 -7.7,0 -0.7,0 -1.4,0 -6.8,0 -0.8,0 -0.1,0 0.4,-2.4 -1.1,1 -1.9,-2.9 -3.7,-1 0.5,-1.2 -2.9,-0.3 0.1,-4.5 -1.3,-4.9 -1,0.6 -1.8,-3.4 2.1,-3.4 0.5,-2.4 0.1,-0.4 -0.1,-0.3 -0.4,0.1 -0.3,-0.5 -1.4,-0.7 -0.1,-0.2 -1.3,-0.5 0.1,-0.7 -0.3,-0.6 0.2,-0.3 -0.7,-0.3 0.2,-0.3 0.2,-0.1 -0.2,-0.6 0,0 -0.2,-0.3 -0.4,-1.3 0,0 -0.2,-0.6 -0.1,-0.1 -0.3,-1 -0.2,-0.4 -1,-1.7 -0.4,-0.2 -0.2,-1 -0.1,0 -0.8,-1.9 -0.1,-0.1 -2.3,0 -0.3,0.2 -1.1,1.6 -0.1,0 -2.2,1 0,-1.3 -1.8,-2.2 0,0 -0.9,-1 0,-0.1 0.5,-0.7 0.1,-0.2 -1.9,0.4 -0.4,0.2 -2.1,-0.4 6,-19.099996 6.4,-18.8 3.9,0.6 3.4,2.4 5.3,0 z m 50.3,-17.6 0.9,0.5 1.9,-1.3 3.1,1.2 -1.9,1.7 2.8,-1 1.3,0.6 0.5,-2.5 2.7,1.9 0.6,4.2 1.6,-1.3 -0.9,-1 0.1,-4.4 0.8,-1 2.6,0.1 2.3,1.8 1.1,5.9 -1.1,2.3 2.6,2.4 0.1,-0.7 2.9,2.4 1.2,-0.2 -0.3,2.1 -2.6,-1.1 -1,1.9 0.9,2.1 -2.6,0.8 -5.1,-0.6 0.9,-0.6 -3.1,-0.4 -0.2,-1.4 -2,2 -2.7,0.4 -2.9,1.3 -8.2,0.8 0,-3.1 -6.1,-1 -1.1,-1.5 0.5,-1.4 6.2,-1 4.1,0.5 2.3,-0.3 -1,-0.9 -3.9,-1 -4.6,0.6 -3.1,-0.2 -1.4,-1.7 5.2,-1.5 1.3,-0.8 -5.5,0.7 0.6,-1.3 -2.4,0.1 0.4,-1.1 2.5,-1.4 -0.4,-1.2 3.1,-1.9 6.6,-2 1,1 z m 20.5,-4.1 1,0.8 -2.6,2.8 -2.9,-2.6 1.2,-0.9 z m 53.6,0.1 4.2,0.2 2.9,1.5 0.4,2.3 -4.2,-0.4 -2.5,0.7 -1.2,-0.6 -0.1,-1.7 -1.4,-0.3 0.4,-1.9 z m 10.4,23.4 -1.1,-0.1 -2,-2 0.7,-0.9 -4.2,1.5 -0.2,-1.4 2.5,-1 -4.1,-2.2 0.4,-1.8 -2.2,-1.1 -0.5,2.3 -6.3,-1 -1.2,1.5 -8.8,-1.5 -5,-1.4 -1.2,-2.7 3.1,0.6 0.6,-1.1 -4.1,-0.5 0.1,-2.8 1.3,-2.9 2.4,-3 3,-1.9 2.4,-0.6 3.9,0.4 -3.3,2.3 -1.7,2.6 0.7,1 -0.7,1.8 2.6,3.3 0.9,-1.7 -1.4,-0.1 0,-4.2 2.7,-3.4 4.6,-1.5 2.7,0 0.3,2 1.6,2.5 -1.9,2.4 2.6,-1.4 4.7,1.3 -1.9,-1.3 2.3,-1.2 4.9,1.2 -0.4,1.7 2.2,0.1 1.1,1.4 -0.4,1.8 1.1,0.4 1.4,-1.7 2.9,1.6 -2.2,0.9 -0.6,1.5 3.5,-1.7 -1.4,2.3 3.1,-1.2 3.3,1.3 -3.2,3.3 4.1,-2 1,2.3 -3.7,0.6 3.5,0.6 1,1 -4.2,0.2 1.4,1.7 -2.3,0.9 4.2,0.4 -1.4,0.5 2.7,1.6 2.3,-0.4 2,3.1 1.8,0 -1.1,2.5 1.5,-1 2.4,0 0.9,1.4 -3.5,1.7 1.4,0.4 -2.8,1.9 -1.3,3.1 -2,-1 -1.9,-2.5 1.7,-1.2 -2.5,0.3 -1.6,-2.6 -0.8,1.2 -1.6,-0.8 1.1,2.4 -1.6,0 2,3.5 2.6,1.4 -0.4,0.9 2,2 -0.1,2.999996 -1.2,-1.2 0.3,2.7 -1,1.1 -2,-2 -1.2,0.2 -2.3,-2.8 0.3,1.3 -2.8,-1.4 1.6,2.4 2.9,2 1.3,3 -5.9,-1.5 -1.9,-1.5 -4.4,-2.1 0.5,-1.6 -2.2,-1.1 -1.3,-2.999996 -1.6,0.9 -3.8,-0.9 0.1,0.9 -2.3,0.8 -3.1,-1.5 0.3,-1.6 3.8,-1.8 3.1,0.6 2.5,-1.1 1.4,0.2 -1.7,-2.7 5.8,-4.6 -0.9,-4 z m -52.5,-24.2 1.1,0.7 3.3,-0.9 1.5,0.8 -0.9,1.7 -3.1,1.5 2.6,0.4 1.4,2.3 -1,2.2 -5.4,2.8 -3.3,-4 -2.3,-0.5 -1.6,-1.8 2.1,-1.6 1,1.6 3,-1 -2.8,-2.5 2.1,0.1 -0.4,-1.5 z m 1.8,0.3 -1,-0.4 4.1,-0.9 z m 13.9,-1.3 5,0.9 -5.2,5.1 -3.9,0.3 0.5,1.1 -1.8,2.1 -2.5,-0.1 0.7,-2 -0.8,-1.1 0.9,-4.5 2.6,-1.8 z m -59,-0.8 2.6,0.5 3.1,-0.3 3.7,3.4 -9.5,3.8 -2.8,2.1 -1.9,2.9 -2.6,0.2 -3.6,1.4 -0.9,-2.5 -3.4,-1.1 2.4,-2.7 1.1,-2.2 3.2,-3.5 -1.1,-2.3 7.7,-0.8 z m 35.8,-3.5 -1.9,-0.3 2,-1.4 z m 21.1,-2.5 1.5,1.5 -0.5,2.5 -2.5,0.5 -1.9,-0.7 -1.6,-2 1.9,-1.5 z m -51.1,0.1 -2.3,-0.2 2.3,-1.5 2.6,-0.7 z m 34.4,-3 -1.9,0.8 -1.8,-0.8 z m -2.8,-1.7 2,0.5 -2.9,0.7 z m 12.1,-0.4 1.4,0.8 0,1.7 -2.4,5.1 -5.1,0 -0.1,-1.9 2.2,-1.2 -6.4,0.8 1.2,-1.5 1.7,0.5 -0.9,-2.2 1.7,-1 2.5,2.5 -1.4,-2.8 1.8,-0.7 1.8,0.8 z m 17.8,0.9 -1.1,-1.2 1.9,-0.1 z m -39.2,-1.6 -0.6,3.6 0.9,0.7 2.9,-0.8 1.6,0.3 0.6,1.6 -2.1,2.8 -5.3,0.6 -0.7,-0.7 -3.5,1 -3.4,1.6 -2.9,0.5 -2.8,-1.3 6.8,-2.1 -9.1,0.8 -3.7,-1.6 3,-2.7 0.6,-1.2 4,-1.7 1.5,1.5 2.2,-0.3 2.7,2 0.1,1.4 4.8,0.2 0.5,-0.9 -2.3,-1 1.8,-1 -2,-0.9 2.9,-2.3 z m 27.7,-1.2 4.1,0.7 0.9,1.5 3.6,-0.4 0.7,1.1 3.1,1.3 -4.2,0 2.3,0.5 2.6,1.8 4,0.9 4.8,-0.8 2,-0.8 5.4,0.2 3.2,1.5 -1.2,1.7 1,1 -2.1,1.3 -3.5,0.6 -3.3,-0.6 -1.9,0.4 -7.4,0.1 -2.3,-0.8 -2.3,0.5 -4.1,-0.7 -0.7,-2.4 1.4,-3.1 -2,-2.2 -1,0.5 -4.3,-0.6 -1.6,-2 z m -43,-2.2 1.7,1.1 -2.1,0.5 0.1,2.4 -2.6,0.7 -0.1,0.9 -2.2,-0.3 1.1,-1.8 -3.8,3.3 -0.7,-1.1 -0.7,1.9 -1.9,0.4 -0.7,-1.5 -0.9,1 -3.5,-0.7 1.2,-1.2 2.5,-0.4 6.4,-4.2 z m 54.3,-0.5 1.8,1.4 -1.7,0.7 -1.5,-0.8 z m -30.6,1.1 -1.2,0.4 -0.6,-1.8 z m 20.7,-1.7 4.5,0.1 -1,1.5 -4.9,-0.1 -0.4,-1.1 z m -13.1,-0.7 1.4,0.9 -3.1,0 z m -25.8,-0.3 -1,1.3 -1.3,-1.1 z m 9.5,-0.4 -3,1 1.4,0.3 -0.6,1.4 -4,0.8 -2.2,-1 0.5,-1.8 4.8,-0.8 z m 0.6,-2.5 0.1,1.3 -3.8,-0.3 -4.2,0.5 0.4,-0.7 6.1,-1.6 z m 27.1,-0.5 3.5,1.4 -0.9,2.1 -3.6,0.4 0,-1 -2.7,-1.7 0.5,-1.6 z m -13.5,-3.1 2.2,1.5 1.6,-0.3 3.8,2.4 -0.9,1.3 1.1,2.1 -3.2,0.1 -0.8,-1.6 -4,-0.9 -3,0.5 -0.4,-1.5 2.6,0.4 0.9,-1.2 -1.7,-1.2 -2.7,-0.2 0.8,-1.4 z m 9.7,-3.8 1.2,0.1 -0.4,2.1 -2.5,-1.8 z m 15.4,-6 1.7,0.7 1.5,3 6.2,0.8 0.9,2.6 -1.2,1.8 3.5,-0.5 1.3,1.7 -3.2,0.8 -5.4,3.2 -0.8,1.3 -2.3,-1.8 0.9,1.8 -5.5,-0.3 -3.7,-3.7 2.5,-0.8 2,0.1 0.4,-1.5 -3.6,0.9 -2.7,-0.1 -2.4,-3.9 4,0.2 -3.2,-1.6 2.3,0.1 -0.9,-1.1 3.2,-0.1 -1.8,-1.2 z m 48.4,-9.1 3.9,0.9 3.6,0 -5.1,1.5 2.4,-0.1 3.6,-0.9 4.3,0.6 1.6,1.1 3.2,0.5 -0.1,0.9 -7.2,2.5 -8.1,0.8 3.5,0.3 -3.3,1.2 5.2,-1.1 2.6,0.1 -10.1,4.4 -5.4,3.1 0.1,0.9 -2.4,0.6 -1.3,-0.8 -0.8,1.4 -8.9,1.3 5.3,0.1 0.3,1 -3.2,-0.8 -1.5,0.8 4,1 -0.3,1.2 -2.8,0.6 1.9,0.4 -1.2,1.2 -2.9,1 -2.9,-0.4 0.7,1.9 -2.2,1.3 -7.4,0.2 6.1,0.3 -0.6,1.3 2.4,-0.3 0.9,1 -1.6,1.5 -6,1.5 0.9,-1.3 -2.7,-0.5 -1.5,0.7 -4.6,-0.2 -0.7,0.7 -9.2,-1.4 0.6,-1.3 2.6,-1.2 3.3,-0.8 -2.2,-1.8 2.1,-1.1 2.2,0.5 0.7,1.5 2.4,0.9 2.6,-1.1 1.8,-2.4 -3,2.5 -2.7,-0.8 0.7,-0.8 -2.1,-1.7 -2.8,0.2 0.3,-1.3 2.4,-1.9 3.4,-0.6 4.8,1.5 -0.6,-1.1 -2.7,-0.5 0.2,-2.2 -1.8,-1.4 -2,-0.4 0.6,-2.5 5.6,0.2 3.3,2.6 2.5,0.7 2,-0.6 -3.6,-0.2 0.1,-1.1 -3,-1.8 10.8,-1.2 -3.8,-0.2 3,-0.8 0.6,-1.9 -2.7,1.7 -2.9,0.8 -6.3,0.6 -5.7,-0.3 2.2,-1.7 7.1,-1.2 -6.6,0.6 -3.8,2.1 -4.2,-1.4 5.7,-0.5 0.6,-0.5 -6.9,0.5 -0.9,-0.8 3.3,-1.8 -3.3,0.8 2.1,-1.3 -3.7,-0.7 6.2,-1.5 7.2,0.2 -3.4,-0.9 3.2,-0.4 -0.7,-0.9 6.3,0.9 4.9,1.6 -5,-2 2.3,-0.7 -0.9,-0.8 3.1,0.6 -1.7,-1.3 5.4,0.7 -3,-1.2 3.8,0.2 5.4,-1 3.2,0.1 1,0.9 2.7,-1.2 z"
     id="path14422"
     inkscape:connector-curvature="0"
     style="fill:#c5c7ca" />
  <path
     d="m 689.55898,275.80861 -2.1,-0.3 -0.2,-1.8 -1.1,0.5 -0.6,-2 -1.6,-4.7 1.8,-3.1 5.1,-0.1 0.3,0.5 1.6,0.7 1.5,-1.9 0.8,0.9 1.7,-1.2 -0.5,1.7 0.8,1.7 0,3.4 -2.6,2.1 -1.5,0 1,2.5 -2.8,-0.5 z"
     id="path14424"
     inkscape:connector-curvature="0"
     style="fill:#c5c7ca" />
  <path
     d="m 628.95898,277.70861 2.9,3.7 1.2,3 -0.3,2.9 -2.7,1.5 -1.9,-2.6 0,-6.1 z"
     id="path14426"
     inkscape:connector-curvature="0"
     style="fill:#c5c7ca" />
  <path
     d="m 459.35898,319.00861 -1.7,1.3 -2.1,-3.1 2.1,-1.7 0,0 -0.9,-2.2 1,-0.5 1.4,-1.7 1.1,1.5 0.1,0 3.1,-1 0.5,-1.6 0.1,-2.4 -1.7,-1.1 1.6,-3.3 -1.4,-1.5 -1.8,0.7 0.2,-2.8 3.2,0 0.5,0.3 3.5,1 0.1,-1.4 0,0 1.3,-3.8 2,-0.5 2.8,0.7 -1.3,3.6 -0.1,1.9 0,0.1 -0.9,4.9 0,0.1 0,0.9 -2.2,2.3 -1.4,2.2 -0.2,3.4 -0.8,2 -1.7,1.1 -2,1.6 0,-1.8 -2.5,1.8 z"
     id="path14428"
     inkscape:connector-curvature="0"
     style="fill:#c5c7ca" />
  <path
     d="m 496.45898,291.20861 0.1,0.2 2.3,2.1 3.6,-0.8 2.6,3.1 0.1,-0.1 -0.3,3.1 1.1,1.3 -3,3.3 -1,6.5 -1.2,1.3 -0.4,2.4 0,0 0.9,3.8 0.2,1.1 0,0.2 -0.1,1.3 0.9,4.9 1.4,1.6 1.2,3 -0.7,0.1 -1,0.2 -3,0.5 0.1,0.7 -1.4,1.5 -0.1,0.1 0.4,0.3 0.4,3.8 -0.7,3.1 0,0.1 1.6,1.8 1.8,-0.7 0,3.9 -2,-0.2 -0.9,-1.7 -0.1,0.1 -2.7,-2 -0.1,-0.3 -0.7,-1.5 -1.9,1 -2.7,-0.8 -0.1,-1.3 -1.9,0.8 -1.1,-1.4 -0.1,-0.3 -0.2,0 -3.7,0.5 -1.8,-4.8 0.3,-2.6 -0.3,-3.5 -3.1,0 0.2,-1.1 -2.7,0.3 -0.5,2.9 -4.6,0.1 -1.5,-2.5 -0.8,-3.6 -8.6,-0.2 -2.5,-0.3 2.3,-3.2 0.8,0.7 2.5,-1.8 0,1.8 2,-1.6 1.7,-1.1 0.8,-2 0.2,-3.4 1.4,-2.2 2.2,-2.3 0,-0.9 0,-0.1 0.9,-4.9 0,-0.1 0.1,-1.9 1.3,-3.9 -0.2,-2.1 2.1,-2.4 2.7,1.5 1.3,0.5 3.2,0.9 1.7,-2 1,0.6 3.6,-0.9 2,-1.3 z"
     id="path14430"
     inkscape:connector-curvature="0"
     style="fill:#c5c7ca" />
  <path
     d="m 500.55898,313.80861 2,0 0.3,-1.3 1.5,0.3 0.7,2 -0.5,0.7 0,0.1 0.1,0 -0.7,0.9 0,0.3 -1.6,1.9 -0.9,-0.2 -0.2,-1.1 z"
     id="path14432"
     inkscape:connector-curvature="0"
     style="fill:#c5c7ca" />
  <path
     d="m 703.45898,247.40861 0.9,1.3 -1.1,2.5 -1.8,1.8 -2.7,-0.9 -0.3,-2.3 1.5,-1.9 z m 13.2,-108.1 0.2,0 1.5,0.7 0.1,0 0.6,0.5 0.2,0.1 2.6,0.4 0.2,0 0.2,0.3 0.1,0.2 -0.2,0.1 0,0.1 0.9,0.4 0.1,-0.1 0.3,0.8 0,0 0.9,1 0,0.2 0.5,0.3 0.1,0 0.1,0.1 -0.2,0.3 0,0 0.6,0.9 0.3,0.2 0.6,1.4 0,0 0.1,0.3 0.1,0 0.1,0 0,0 -0.1,-0.2 0,0 0.1,0.2 0,0.2 0.9,1.1 0.4,0.5 0.2,1 0.3,0.5 0.7,0.7 -0.1,0 0,0.2 -0.1,0 0.1,0.2 1.2,1.5 1.6,0 0.4,0 0.8,0.5 0.1,0.1 0.1,0.1 1.7,0.5 0,0.1 0.1,0 0.5,0.4 0.1,0.2 0.7,0.5 0.3,0 0.2,-0.1 0.4,0.2 0.2,0 0,0 0,0 0,0.2 -0.1,0.6 0.9,1.5 -0.1,0.2 0.9,1.1 0,0.3 0.7,0 0.1,0 1.6,0.2 0.6,-0.1 0.3,-0.2 0.1,0 0,0 0.2,0.1 1.5,-1.3 0.5,0 2.2,-1 0.1,0.2 0.5,0.9 0,0.1 -0.1,0.1 0.2,0.4 0.6,0.5 0.1,0.1 -0.7,1 -0.1,0 -0.3,0.6 0,0.1 0.2,0.5 0,0 -0.3,1.7 -0.1,0.4 0.4,0.8 -0.1,0.2 -0.3,0.8 0,0 -0.8,1.8 0,0.6 0.1,0.1 0,0.1 0.1,0.1 0,0 -1.4,0.1 -0.6,-0.2 -1.5,0.2 0,0.1 -0.7,0.4 -0.1,0.1 0,0 0,0.1 -0.2,0 -0.1,0 -0.5,0.2 0.1,0.1 0.2,0.2 0.1,0 0.9,2 0.2,0.4 0.4,2 0.1,0.2 -0.1,0.4 -0.1,0.3 0,0.7 0,0.1 0,0 0.1,0 -1.3,0.9 0.1,0 0.1,0.2 0.1,0.1 0,0.6 0,0 0,-0.1 -1,-1 -0.1,-0.2 0,0 0,-0.1 -0.2,-0.3 -0.6,-0.3 -0.1,0 0,0 -0.2,0.9 0,0.1 -0.8,0.8 -0.2,0.7 -0.5,0.6 0,0.1 -1,0.1 -0.1,0 0,0 -0.5,-0.1 -0.5,0.2 0.2,0.6 0.4,0.4 0,1 -0.1,0 -2.3,-0.5 -0.2,-0.3 -0.6,-0.6 0,0 -0.6,0.5 -0.2,0.1 0,0 0,0.1 -0.9,2.3 -0.1,0 -2.6,1.9 -0.1,0.1 -0.6,0.6 -4.6,2.4 -1.1,1.6 -1.4,-2.3 1.8,-3.1 -3,-1.3 -1.3,2.4 -2,1 -1,2.2 -2.9,0.3 -0.1,1.7 1.3,1.3 1.9,0 0.9,2.9 2.1,0.4 2.2,-2.1 2,1.2 2.4,0.1 -4,3.3 -2.2,2.5 -0.6,2.6 2.8,1.5 2.1,4.2 0.1,1 2.7,2.3 -2.5,0.3 3.2,2.7 -2.1,1.1 3.1,2.2 -4.4,10.5 0,3.1 -1.8,1.2 -0.3,1.3 -1.7,0.2 -0.4,1.8 -2.1,1 -0.8,2 -2.1,0.7 -2,-0.4 -1.4,0.9 -0.4,0.1 -1.5,-1.6 0.5,2.3 -1.4,1 -5.5,1.7 -1.3,1.2 0.7,2 -2,-1.9 0.6,-1.6 -3.4,-0.6 -1.5,0.4 -3.3,-1.5 -0.7,-2.7 -1.6,0.1 -1.4,-1.3 -3.2,2.5 -1.7,-0.9 -0.5,1.1 -1.4,-1 -0.9,1.1 -0.3,-0.2 -0.6,-0.1 0,0 -0.3,1.6 0.6,2.5 -1.7,-1.4 -2.3,0.5 -0.8,-1.8 -2,-0.4 0.6,-2.8 -1.4,-0.3 -0.8,-2.3 -2.6,0.3 -0.1,-3.6 1.5,-1.6 0.6,-3.1 -0.6,-3.1 -3,-2.8 -0.4,1 -2.6,-1 -0.9,-2.9 -1.6,1.4 -1.8,-1 -1.6,2.1 -1.5,0.2 -2,2.4 -1.9,0.2 0,-0.5 -3.2,-0.9 -2,0.2 -1,1.8 -0.5,0.7 -0.3,-2.1 -1.7,0.5 -0.9,0.1 -0.5,0 -3.1,-0.4 -1.2,-0.6 -2,-0.5 -1.8,-1.6 -2,-1 -1.2,-1.5 -4.7,-2.3 -0.6,1 -0.3,-0.4 -6,-4 -1.1,-3.3 1.3,0.6 1.4,-1.3 -2,-2.3 0.3,-2.4 -1.9,-1.3 -1.4,-2.7 -2.7,-0.4 -2.1,-1.2 -0.3,-1.9 -3.4,-1.3 -0.2,-0.7 1.6,-0.5 -1.1,-2.1 -1.4,-2 -1.4,-0.9 -0.6,-1.7 0.7,-1.8 1.9,-1.6 1.6,-0.4 0.5,1.1 1.9,-0.6 0.1,-0.2 0.2,-0.5 0.7,-1.1 2.9,-0.2 0.2,-0.5 4.2,-3.1 -0.4,-1.5 1.4,-1.8 -2.5,-6.2 3.7,-1.1 2,0.8 -0.6,-1.3 0.9,-5.9 4.1,1.4 1.8,-0.8 -0.2,-4.6 2,-0.5 0.3,-2 1.2,0.1 1,-0.3 0.8,2.1 2.9,2 3.2,1.2 1.7,2.4 0.7,2.9 -0.4,2 2.3,1.5 4.8,0.3 3.1,2.1 1.6,0.2 3.3,5.2 1.8,-0.2 5.7,0.8 3.2,-0.4 2.4,0.5 7.1,2.9 1.6,-0.3 5,-2.4 1.1,0.2 2.9,-0.2 2.9,-1 1.6,-2.2 0.6,-0.2 0.9,-1.2 -1.6,-1.7 0.4,-2.2 4.6,0.9 1.8,-2.2 2.7,-0.2 1.6,-2.9 4.1,-1.4 2.2,0.3 0.9,0.1 0.3,-0.2 -1,-2 -3,-2.6 -1.8,0 -0.8,1.1 -1.4,-0.8 -2.1,0.7 -1.2,-1.5 1.6,-5.9 0.6,0.4 0.7,0.3 1.4,0.4 0.5,-0.3 0,0 0.4,-0.3 0.5,-0.6 0,-0.1 0.5,-0.2 0,0 1,-0.2 0.1,0 0.1,-1 0,-0.2 -0.3,0 -0.2,0 0.1,-0.2 0,-0.2 1,-3.3 0,-0.2 -0.1,-0.1 0.1,-0.5 1.2,-1 0,-0.3 0,-0.8 -0.3,-0.3 -0.1,-0.1 0,0 -0.1,-0.1 0.1,-0.2 -1.5,-0.7 -0.1,0 -0.1,-0.2 -0.1,-0.4 0.3,-0.1 0.1,-0.2 1.7,-1.6 0.1,0.1 0.3,-0.2 0.3,0 0.7,-0.3 0.2,0 0.3,-0.1 0,0 0.1,0.1 2.7,-0.5 0.1,0 z"
     id="path14434"
     inkscape:connector-curvature="0"
     style="fill:#c5c7ca" />
  <path
     d="m 609.95898,194.60861 -1,0 0.2,0.9 -0.1,-0.1 -0.9,0.5 -4.7,0.4 -1.6,1.4 -0.6,0.8 1.3,2 -1.3,2.8 0.3,1.5 -0.4,0.2 -0.8,0.1 -1.4,-0.3 1,2.2 -1.8,0.8 -0.3,3.6 -1.1,1 -1.7,-0.7 -0.9,1 -3.3,1.8 -0.1,3.4 -3.6,0.8 -0.4,0 -5.1,0.5 -4.1,-1.3 2,-2.9 -0.3,-1.9 -2.2,-0.3 -0.5,-3.6 -0.4,-1.8 0.5,-0.8 -1,-2.2 0.7,-1.2 0.8,-3.4 2.7,1.3 1.8,-0.7 0,-1.4 3.2,-1.2 0.2,-1.2 0.3,-1.6 3.1,-1 1,0.2 0.1,0 3,0.6 3.6,0.3 0.6,-1.6 3.2,-2.9 1.7,1.9 -0.2,2.6 1.2,1.3 3.3,-2.5 z"
     id="path14436"
     inkscape:connector-curvature="0"
     style="fill:#c5c7ca" />
  <path
     d="m 654.05898,223.80861 1.2,3.2 -4.1,-0.1 -2,0.3 -0.1,0 -1.8,-1.4 0.6,-0.9 1,-1.8 2,-0.2 z"
     id="path14438"
     inkscape:connector-curvature="0"
     style="fill:#c5c7ca" />
  <path
     d="m 268.15898,477.60861 1.4,2.3 -3.5,-0.3 -1.4,-1.6 z m 1.5,-0.1 1.4,1.4 -2.1,-0.4 z m -12.8,-5.5 2,1.4 -3.4,-0.2 z m 9.6,-2.8 1.1,7.8 0,0 0,0.4 -5.6,-0.5 -2.4,-1.1 4.9,-0.6 -1,-1.8 1.6,-1.7 -1.9,0.5 -0.7,-1.7 2.1,-1.9 z m -16.1,-14.7 1.1,4.4 -0.4,1.1 -2.3,-2.5 1.3,0 -0.6,-2.6 z m -1.1,-22.5 1.4,1.7 -0.8,1 0.9,1.7 -2.2,0.4 z m 5.9,-73.7 -0.1,0.5 0.3,1 1,2.1 0.1,1 -0.1,0.3 -0.2,1.2 0.1,0.9 0.3,0.4 0.5,0.3 -0.2,0.8 1.2,2.3 0.8,3.5 1.7,-0.1 -0.1,3.6 -3,2.4 1.1,6.7 -1.2,0.3 -1.8,4 -0.7,2.8 0.6,3 -1.4,3.9 2.5,5.7 0.1,2.7 -0.9,1.3 -0.1,4.8 -1.3,1 0.1,4 1,3.1 -1.1,0.6 -0.7,6 0.3,7.6 1.5,3 -0.1,1.6 1.2,1.4 -1.7,-0.2 2.1,1.9 -0.6,6.2 -1.3,2.7 0.4,3 -1.9,1.9 0.1,2.8 1.3,2.3 2,-0.5 0.1,3.1 1.4,1.7 4.5,0 3.9,1.4 -2.1,-0.6 -3.3,1.8 0,4 -2.6,-0.5 -0.7,-1.6 2.2,-0.5 -0.2,-1.1 -2.4,2 -1.4,-1.8 3.3,-1 -3,-0.2 -0.2,2 -2.8,-5.2 -0.3,-2.5 -2.3,-2.5 0.8,-0.4 -0.9,-5.2 0.9,-0.7 -1.8,-1.2 2.1,-0.1 -2.4,-1.1 1.6,-2.4 -2.9,-1.4 -1.5,0.1 3.3,-2.9 1.5,1 0.4,-3.8 1.3,-1.6 -1.6,-0.8 0,-2.7 0.7,-1.7 -0.7,-4.7 -2.3,0.8 -0.8,-2.6 1.2,-5.6 -1.7,-5.3 1,-1.4 0.9,-5.1 0.8,-1.4 1,-5 0.3,-3.6 -1.2,-6.4 0.8,-1.3 -0.7,-3.3 1.2,-4.2 0.6,-6.4 -0.4,-1.9 0.4,-9.4 -0.2,-4.8 -0.9,-4.9 0.7,-0.1 1.4,-2.4 z"
     id="path14440"
     inkscape:connector-curvature="0"
     style="fill:#c5c7ca" />
  <path
     d="m 465.25898,271.00861 0.1,3.7 1.6,2.3 -3.8,0 -0.5,1 3.1,3.4 0.9,2.3 -1.1,2 -0.3,0.7 -1.2,4.2 1.9,4.7 2.1,2.2 0.2,2 -0.1,1.4 -3.5,-1 -0.5,-0.3 -3.2,0 -4.9,0 -3.8,-0.5 0.4,-2.1 -1.1,-2.1 -1.5,-0.8 -0.9,-2.1 0.7,-3 3.2,-3.4 1.2,-0.1 1.8,1.8 1.7,-3.3 0.9,-3 4,-7.7 1.6,-0.7 0,-1.9 -1.5,-2.7 0.3,0 0.6,0 z"
     id="path14442"
     inkscape:connector-curvature="0"
     style="fill:#c5c7ca" />
  <path
     d="m 463.05898,268.00861 -1.3,-1.8 -0.5,-2.1 2.3,-3.8 2.7,-3.5 0.6,-8.9 0.5,-1.3 -2,-3.4 -0.5,-4.5 2.4,-1.3 8.3,4.6 11.8,7.1 0.2,11.2 -0.5,-0.1 -1.7,0.1 -1.8,5 -1,4 0.7,-0.3 0.9,3.3 0.2,0.3 0.6,1.7 -1.1,-0.2 -5.1,5.5 -3.3,0.3 -1.2,2.8 -2.4,0.1 -2.1,1.2 -0.6,-0.6 -2.7,0.8 -0.7,-2.8 -3.1,-3.4 0.5,-1 3.8,0 -1.6,-2.3 -0.1,-3.7 -1.6,-3 z"
     id="path14444"
     inkscape:connector-curvature="0"
     style="fill:#c5c7ca" />
  <path
     d="m 248.75898,271.60861 -1.6,0.6 -2.5,3.5 -0.3,3.3 1.5,2.8 -0.3,2.4 0.9,1.3 5,0.2 1.7,2.5 4.7,-0.4 -0.8,4.9 1.3,3.2 -1.3,1.7 1.5,1.8 0.8,3 -1.1,-2.6 -2,1.1 -4.3,0.1 -0.1,1.8 1.8,1.2 -2.2,0.2 -0.1,2.1 1.1,1 0.4,3 -1.1,7.8 -0.6,-0.6 -0.6,-0.7 0,0 -0.8,0 1.6,-3 -2,-1.5 -1.3,0.1 -0.3,-0.1 -0.7,0 -2.9,0.5 -0.4,-0.5 0,0 -0.9,-1.7 0,-0.1 0,-0.1 -3.2,-3.8 -0.4,0 -0.8,-0.7 0,0 -0.2,0.4 -1.9,-1.4 -3.4,-0.3 -3.6,-2.9 0.4,-2.1 2.3,-1.7 1.6,-2.6 -0.7,-7.2 0.3,-1.2 -1.3,-1.9 1.8,-2.5 -0.4,-1.6 1.2,0.1 3,-2.3 0.7,-3 1.6,-2 3.9,-0.5 4.5,-3.4 z"
     id="path14446"
     inkscape:connector-curvature="0"
     style="fill:#c5c7ca" />
  <path
     d="m 217.75898,274.30861 2.6,4 -0.9,4.4 -2.1,-1.6 0.3,-1.3 -3.7,-1.6 -1.7,-2.3 0.4,-2.1 z"
     id="path14448"
     inkscape:connector-curvature="0"
     style="fill:#c5c7ca" />
  <path
     d="m 484.95898,274.30861 2,3 -0.6,2.6 0.3,0.5 1.6,0.4 2.7,3.1 2.9,2.8 0.2,1.7 1.6,0.8 0.4,1.3 0.1,0.3 0.3,0.4 -4.7,-0.8 -2,1.3 -3.6,0.9 -1,-0.6 -1.7,2 -3.2,-0.9 -1.3,-0.5 -2.7,-1.5 -2.1,2.4 0.2,2.1 0,0.3 -2.8,-0.7 -2,0.5 -1.3,3.8 -0.2,-2 -2.1,-2.2 -1.9,-4.7 1.2,-4.2 0.3,-0.7 0.9,-1.5 2.7,-0.8 0.6,0.6 2.1,-1.2 2.4,-0.1 1.2,-2.8 3.3,-0.3 5.1,-5.5 z"
     id="path14450"
     inkscape:connector-curvature="0"
     style="fill:#c5c7ca" />
  <path
     d="m 240.35898,247.90861 -0.1,-0.1 -0.1,0 -0.1,0.1 -6.2,0.1 1.7,-1.7 -2.4,-0.7 -1.6,-2.8 -3.1,-0.3 -1.3,-1 -3.1,-0.4 -0.1,-1.5 -2.1,0 -1.6,1.5 -3,1.3 1.3,-2.7 4.6,-1.6 5.5,0.8 1.8,1.7 1.2,-0.1 4.6,2.9 3.1,1.2 3,2.8 z"
     id="path14452"
     inkscape:connector-curvature="0"
     style="fill:#c5c7ca" />
  <path
     d="m 509.75898,200.60861 1.1,1.2 -3.3,1.1 -1.1,-1.3 1.5,-1.1 z"
     id="path14454"
     inkscape:connector-curvature="0"
     style="fill:#c5c7ca" />
  <path
     d="m 452.55898,132.20861 0,1.6 -2.5,-1.7 z m 4.2,-1.9 -1.9,3.5 -1.5,-2.2 2.7,-1.8 z m -7.2,4.3 -1.8,-0.3 -0.2,-1.9 -1.1,-0.4 0.1,-4 2.5,-1.4 2.1,0 0.3,1.5 1.5,0.6 -1.4,0.9 -1.7,2.8 z m 2.1,-10.2 0.2,1.4 -2.6,0.2 z"
     id="path14456"
     inkscape:connector-curvature="0"
     style="fill:#c5c7ca" />
  <path
     d="m 535.95898,272.70861 -0.7,1.4 -2.9,0 -0.1,-1.5 1.6,-2.8 1.8,-0.7 0.6,2.1 -1.5,0.7 z"
     id="path14458"
     inkscape:connector-curvature="0"
     style="fill:#c5c7ca" />
  <path
     d="m 248.35898,253.50861 0.3,-5 2,-0.6 2.7,0.9 0.5,1.6 3.2,1.2 -1.4,0.8 -4.5,-0.1 -2,2.5 z"
     id="path14460"
     inkscape:connector-curvature="0"
     style="fill:#c5c7ca" />
  <path
     d="m 198.15898,305.90861 1.1,2.1 -1.5,0.8 z m 40.1,0.4 0,0 -0.7,-0.1 -0.1,0 0,0.2 0.4,0.4 0,0.1 0.5,0.6 -1.2,3.3 -2.4,2.5 -2.9,1.2 -0.9,1.1 0.1,0.3 -0.9,1.3 -0.3,1.1 0,0.1 -1,1.9 -1.2,-1.4 -2.1,-0.8 -0.1,-0.1 1.6,-5 -1.3,0.8 -1.8,-1.5 0.3,-3.7 2,-2.9 0,-2.2 3.1,-1.8 3.6,2.9 3.4,0.3 z"
     id="path14462"
     inkscape:connector-curvature="0"
     style="fill:#c5c7ca" />
  <path
     d="m 511.65898,213.30861 0.2,0.4 1.7,5.3 -1.3,5.4 -2.7,-2.5 -1.8,-4.5 -0.5,1.3 3,4.9 1.2,4 3.3,6.5 1.7,1.9 -0.7,1.2 0.9,2.2 2.7,2.3 -29.6,0 -0.4,-17 -0.2,-5 -0.7,-2.8 0.9,-4.6 5.4,0.9 4.2,1.6 3.3,-2.1 1.9,-0.2 2.3,1.5 4.1,-0.1 z"
     id="path14464"
     inkscape:connector-curvature="0"
     style="fill:#c5c7ca" />
  <path
     d="m 412.95898,137.30861 0.5,4.2 -1.9,2.5 -1.8,0.5 -2.7,1.8 -2.6,0.4 -1.1,-1.9 1.3,-0.5 1.2,-3.6 -2.1,-0.9 1.4,-1.4 -0.6,-1.9 3.2,0.1 -0.7,-1.4 1.1,-1.6 2.5,0.1 -2.1,2.3 1.9,1.2 0.7,-1.1 z"
     id="path14466"
     inkscape:connector-curvature="0"
     style="fill:#c5c7ca" />
  <path
     d="m 456.05898,299.60861 0.1,3.4 -4,0 -1.1,-0.5 1.2,-3.4 z"
     id="path14468"
     inkscape:connector-curvature="0"
     style="fill:#c5c7ca" />
  <path
     d="m 480.45898,120.60861 0.9,0.5 -2.6,1.2 -0.9,-1.4 z m 11.4,-3.3 -1.2,2.6 1.1,3.4 -1,1.3 -1.9,0 -2.9,-1.8 -2.3,0.5 0.5,-1.6 -1.8,-0.2 -0.8,-3.3 5,-1.7 2.8,0.8 z"
     id="path14470"
     inkscape:connector-curvature="0"
     style="fill:#c5c7ca" />
  <path
     d="m 533.15898,268.90861 -0.5,-0.3 -2.9,-3.7 -1.2,-0.6 -0.3,-0.3 -2.2,-0.1 -2.3,0.2 -1.4,-1.3 -0.7,2.2 -1.3,-0.5 -0.6,-0.1 -0.7,0.2 -0.4,-2.6 1.3,-3.4 0,-2.3 3.1,-1.3 0.9,-1.4 3,8.5 3.6,1.4 3.2,4.1 1.9,1.5 -1.1,1 z"
     id="path14472"
     inkscape:connector-curvature="0"
     style="fill:#c5c7ca" />
  <path
     d="m 207.65898,267.10861 -2.4,0.5 -3.3,-1.5 1.4,-2 0.6,0 2,1.6 2,0.1 z"
     id="path14474"
     inkscape:connector-curvature="0"
     style="fill:#c5c7ca" />
  <path
     d="m 519.75898,264.40861 0.6,0.1 1.3,0.5 0.7,-2.2 1.4,1.3 2.3,-0.2 2.2,0.1 0.3,0.3 1.2,0.6 2.9,3.7 0.5,0.3 0.7,0.9 -1.6,2.8 0.1,1.5 2.9,0 -0.7,1.1 2,3.5 1.5,1.2 7.5,2.9 2.5,0 -7.5,8.9 -2.5,-0.1 -5.1,2.8 -2.2,-0.2 -0.7,-0.7 -2.3,1.2 -0.9,1.4 -0.5,-0.2 -3,-0.4 -3,-2.4 -1.7,0 -0.8,-0.5 -0.3,-1.4 0.1,-0.2 -1.9,-1.4 -0.8,-2.8 -2.7,-3 -1.7,-0.4 1.1,-2 1.1,0.1 1,-6.3 1.5,-0.7 0.2,-2.7 1.5,-2.6 1.2,-0.6 0.9,-4 z"
     id="path14476"
     inkscape:connector-curvature="0"
     style="fill:#c5c7ca" />
  <path
     d="m 460.35898,156.20861 0.9,0.6 1.9,-1.4 4.6,1.3 0.6,2.1 -1.4,0.9 0,2.6 -1,0.4 -3.7,1.6 -2,-0.4 -3.1,-0.7 -0.6,-1.2 -4,0.7 -2.1,-0.6 -0.2,-0.7 0,-1 4.2,0.5 2.1,-0.7 2.1,0.4 -0.8,-2.2 z"
     id="path14478"
     inkscape:connector-curvature="0"
     style="fill:#c5c7ca" />
  <path
     d="m 460.35898,156.20861 -2.8,-2.3 -0.4,-3.4 4.2,-1.7 1.2,0 3.8,1.1 3.4,2 1.7,0.3 0.7,1.4 -4.4,3.1 -4.6,-1.3 -1.9,1.4 z"
     id="path14480"
     inkscape:connector-curvature="0"
     style="fill:#c5c7ca" />
  <path
     d="m 297.55898,294.30861 -1.4,2.2 0,0.1 -0.2,0.7 -1.5,2.3 -2,-0.5 -2.2,0.1 1.6,-3.7 -0.9,-1.3 -0.3,-2.7 0.8,-1 0.6,-1.2 2.4,0.8 2.9,2.5 z"
     id="path14482"
     inkscape:connector-curvature="0"
     style="fill:#c5c7ca" />
  <path
     d="m 491.45898,78.708614 -1,2.2 0.6,1.4 3.2,2.1 -1.9,3.1 2.7,5.3 -1,1.6 1.1,3.5 1.4,1.5 -1.3,1.199996 3.8,3.3 -0.6,1.6 -3.3,3.8 -4,3.8 -5,0.8 -4.9,1.5 -4.9,-2.7 0.3,-2.5 -1.3,-5.7 0.8,-1.8 1.9,-0.3 0.5,-1.7 1.6,-0.7 2.5,-3.699996 2.1,-0.6 -0.4,-2.1 -2.7,-1.4 -1.3,-2.7 0.7,-1.3 -1.4,-2.8 0.3,-2.1 -1.9,-1.8 -1.7,-0.3 -3.4,-2.5 2.3,-1 1.8,2.5 3.1,-0.5 2.8,0.8 1.4,-1.5 0.3,-2.7 1,-1.3 3.2,-0.7 3.2,2.5 z"
     id="path14484"
     inkscape:connector-curvature="0"
     style="fill:#c5c7ca" />
  <path
     d="m 872.85898,356.40861 0.8,1.8 -3.4,0.4 0.3,-1.5 z m 4.6,-3.5 -0.3,1.5 -3.1,0.8 -0.5,-0.7 z"
     id="path14486"
     inkscape:connector-curvature="0"
     style="fill:#c5c7ca" />
  <path
     d="m 288.05898,464.80861 -2.8,3 0.7,-2.1 -0.7,-0.7 z m 1.2,-0.2 2.4,1.2 -3.5,2.4 -1,-0.9 z"
     id="path14488"
     inkscape:connector-curvature="0"
     style="fill:#c5c7ca" />
  <path
     d="m 450.25898,176.90861 0.3,1.9 -0.7,2.4 -1.6,-2.8 1.8,-2.6 z m -12.5,-24.9 4.9,1.8 0.9,1.1 3.5,0.6 -1.5,2.9 0,1.9 -3.4,3.4 1.6,0.5 0.6,1.7 0.1,5.7 1.1,1.6 -3.6,2.2 -4.6,-1.5 -2.3,1.5 0.2,2.3 -3.5,-0.3 -0.7,-0.3 -7.1,-1.6 -0.7,-0.9 0.8,-0.9 0.9,-7.6 -1.7,-2.1 -0.4,-1.8 -1.7,-2.1 -1,0.2 -3.8,-1.7 0.4,-1.9 3.4,-0.8 1.1,1.2 3,-0.5 -1.2,-3.5 3.9,1.3 1,-1.4 3.2,-1.8 0.2,-2.4 2.2,-0.8 0.3,1 3.6,2.1 z"
     id="path14490"
     inkscape:connector-curvature="0"
     style="fill:#c5c7ca" />
  <path
     d="m 386.15898,266.50861 4.2,-0.5 2.4,1.3 -3,-0.8 -1.8,1.3 -2.4,0.3 z"
     id="path14492"
     inkscape:connector-curvature="0"
     style="fill:#c5c7ca" />
  <path
     d="m 460.95898,299.60861 -0.2,2.8 1.8,-0.7 1.4,1.5 -1.6,3.3 1.7,1.1 -0.1,2.4 -0.5,1.6 -3.1,1 -0.1,0 -1.1,-1.5 -1.4,1.7 -1,0.5 0.9,2.2 0,0 -2.1,1.7 -4.7,-6 -1.2,-2.9 1.3,-1.4 0,-2.8 1.2,-1.1 4,0 -0.1,-3.4 z"
     id="path14494"
     inkscape:connector-curvature="0"
     style="fill:#c5c7ca" />
  <path
     d="m 524.05898,173.90861 3.5,1.2 3.1,0.1 2.3,1.8 1.8,-0.4 2,0.8 2.8,2 0.4,2.9 -3,-1.4 -1,0.8 -3.9,0.1 -2,-0.8 -2.3,-0.3 0.5,-1.4 -0.9,-2.6 -3.6,-2.1 z"
     id="path14496"
     inkscape:connector-curvature="0"
     style="fill:#c5c7ca" />
  <path
     d="m 420.85898,282.70861 0.2,-2.2 0,0 -0.2,-2 -0.4,-4.4 5.4,0 1.3,-0.4 1.3,2.5 -0.3,2.5 1.2,3.3 -0.5,2.4 0.5,2.7 1.2,1.2 -8.2,3.9 -1.7,-1 -1.2,-4.4 z"
     id="path14498"
     inkscape:connector-curvature="0"
     style="fill:#c5c7ca" />
  <path
     d="m 311.85898,75.008614 1.1,1.8 -3.4,1.2 -0.7,-1.7 -2.2,-0.3 0.9,-2.4 3.6,0.5 z m 60.2,-4.3 0.1,1.1 -5.7,1 1.7,-1.9 3.3,-0.9 z m 4.4,-8.4 3.5,1.6 -1.7,0.4 0.9,1.2 -4.4,-2.1 -0.2,-1.1 z m 2.4,-0.8 1.2,1.5 -2.6,-0.9 z m -3.8,-1.8 2.8,1.4 -3.1,0.3 -2.8,-0.8 z m 7.6,-4.6 1.4,1.2 -2.3,0.3 -1,-1.2 z m 6.9,-4 0.8,1.3 -3.3,0.1 0.3,-1.5 z m -1.6,-6 0,3.3 -0.9,-2.8 z m -65.9,-26.1 -3.5,-0.8 0.5,-1 z m 11.6,-3.4 3,1.2 -2.3,1 -2.7,-0.8 -1.5,-1.3 z m 28.4,-4.8 5,0 2.4,0.8 2.4,-0.3 3.5,1 -2.5,0.7 -6.4,-0.2 -8.2,1.2 5.3,-0.2 4.1,-0.8 5.7,0.4 2.9,-0.5 -0.1,1.6 2.6,-0.3 5.2,1.5 -2.3,1.5 -5.5,0.9 -8.5,0.1 -7.3,1.3 -0.7,1 2.8,-0.8 5.6,-0.9 7.8,0 -0.6,1.3 -4.5,1.2 2.2,0.1 4.9,-1.1 0.4,-1.5 3.7,-0.3 -0.1,3 -5,4.5 8,-5 4.8,0.6 1.9,-2 5,-0.4 6,1.6 -5.2,3.3 -2.9,1.1 -3.5,-0.1 3.3,1.2 -1.8,1.2 -6.4,0.2 -1.7,1.8 3.2,-1.2 3.8,0.2 -2.1,1.6 -2.5,0.4 0.5,2.4 -1.3,1.1 -2.5,0.7 -0.6,2.8 -1.7,2.5 2.5,-1.6 3.4,1.2 -1.6,0.3 -0.7,1.5 4.3,0.5 -0.6,2.5 -4.7,-1.1 -2,1.6 -1.3,-1 -1.1,0.8 2.4,1.2 -0.3,0.8 3.8,0 -1.2,1.3 1.9,0.9 0.2,2.4 -2.6,0.3 -0.7,2.6 3,-0.3 0.1,2 -2.1,-0.8 -2.8,-0.1 -0.2,1.8 3.1,0.8 -0.6,1.9 -2.5,-0.1 -1.3,1 -3.7,-1.5 -2.8,0.5 -1.1,1 -2.2,-0.3 3.7,1.3 -1,0.9 1.9,1.8 5.5,3 -0.2,2.1 0.9,3.1 -4.2,0.5 -1.7,-1.5 -0.2,-1.3 -2.8,-2 0,1.6 -1.9,0.9 -4,-0.1 0.7,0.6 -0.8,2.1 3.2,-0.5 -2.5,1.7 1.3,0.4 4.7,-1.8 3.5,1.3 3.2,-0.1 -2,1.6 -6.8,4.1 -2.9,1 -5.9,0.6 -0.5,1.3 -4.3,0.1 -2.4,1.7 -0.9,1.8 -3.2,3.6 -2.1,0.2 -1.2,1.6 -2.5,0.7 -1.4,-1 -3.6,2 -2.2,2.1 -1.6,-0.3 0.5,5.499996 -2.3,2 -0.8,1.5 -2.3,0.5 1.1,2.7 -3,7.5 -4.6,0 1.1,-2.2 -2,0.7 -1.5,-2.3 -3,1 -0.3,-0.9 -2.7,-1.4 -0.9,-2.2 0.6,-0.9 -2.1,-1.2 0.2,-1.7 -1.5,-1 -0.7,-3.399996 2.2,-1.8 0.4,-1.2 -3.5,2.3 0,-4.5 -2.5,-2.6 -0.1,-2.2 1.7,-1.5 -2.1,-0.9 2.4,-4.7 4.2,0.6 0,-0.9 -4.6,0 4.8,-2 2.3,-5.2 -3.9,-0.3 -3.2,-1.5 -1.3,-1.2 1.3,-0.7 5.7,1.2 0.6,-1.3 -2.6,-1.3 1.5,-1.9 -3.1,-0.5 -1.5,1.1 -3.2,0.2 -0.9,-1.2 2.3,-2.4 1.1,-2.7 -2.1,-1.3 1.3,-1.3 -1.8,-1.1 1,-1 -1.4,-0.7 0.6,-1.5 -3.7,-3.3 -0.1,-2.9 -3,-0.5 -1.9,-1.5 -5.5,-1 -6.6,1.9 -4.3,-0.6 -2,-1.6 3.5,-1.3 -5.5,-0.5 -1.3,-0.9 2.8,-1.1 8.6,-0.9 -0.1,-0.9 -6.2,0.8 -4.5,-1.6 -2.7,-1.7 0.8,-1.7 7.1,-1.5 4.3,-1.6 3.1,0.2 2.7,-2 0.2,-2.7 -4.3,0 -0.6,-1.3 6.2,-3.3 3.7,-1.1 4,0.5 0.7,-1.8 -0.9,-1.3 4.5,-1.4 10.1,-1.8 1.8,1.2 -0.9,2.8 2.5,-2.3 4.7,1.5 -1.3,-1.1 3.3,0.1 -2.3,-1.2 -0.7,-1.7 3.1,0 4.1,1.7 2.2,0.3 2.3,1.7 1.2,-2.5 1.9,-0.3 -3.7,-2.3 7.6,0.1 3.6,1 0.2,-0.8 -5,-0.7 -6.9,0 -1.6,-0.6 7.5,-1.5 2.6,0.2 2.5,1.2 2.5,0.2 4.7,-0.9 -3.4,-0.6 0.3,-1 4.6,-0.5 8.1,-0.5 z"
     id="path14500"
     inkscape:connector-curvature="0"
     style="fill:#c5c7ca" />
  <path
     d="m 453.15898,136.30861 -0.4,1.2 1.5,0.4 2.4,-1.7 1.3,0 3,2.5 -0.2,3 1.1,1.1 0,2.7 1,2.5 -5.7,2.5 0.4,3.4 2.8,2.3 -2.5,2.2 0.8,2.2 -2.1,-0.4 -2.1,0.7 -5.8,-0.9 -3.1,0.3 0,-1.9 1.5,-2.9 -3.5,-0.6 -0.9,-1.1 0,-3 -0.9,-1.6 0.4,-2.6 -0.6,-1.1 2,-0.4 0.9,-4.7 0.1,-1.6 1.8,-0.1 0.5,1.1 1.5,-1.9 0.2,-2.1 -0.8,-1.5 1.8,0.3 z"
     id="path14502"
     inkscape:connector-curvature="0"
     style="fill:#c5c7ca" />
  <path
     d="m 485.85898,200.10861 1.2,0.5 4.7,0.3 -0.1,0.7 -3.6,0.4 -3,-1.2 z m -1.4,-10.7 1.7,0.7 0.3,1.4 z m 6.7,-9.3 0.6,1.2 -1.2,2 -2.5,-0.9 -3.2,1.1 -0.1,1.4 -2.6,-0.7 0.1,1.3 1.9,2.9 -1.8,1.1 3.7,2.1 0,1.7 -2.6,-0.8 -0.5,1.6 0.9,2 -2.3,-0.8 -0.7,1 -0.8,-2.6 -1.1,-1.1 1.8,-1.5 3.2,0.7 -2,-1 -3,0.4 -2.5,-4.3 1.8,-4 4.7,-1.6 0.7,-0.1 3,-0.6 2.5,0.8 1.6,-0.8 0.2,-0.5 z"
     id="path14504"
     inkscape:connector-curvature="0"
     style="fill:#c5c7ca" />
  <path
     d="m 203.45898,254.10861 1.6,0 -0.6,5.6 2.5,0.6 -2.5,1.9 -1.1,1.9 -1.4,2 -3.2,-0.7 -2,-1.7 0.2,-2.1 1.3,-2.3 3.2,0 0.1,-0.9 -2.4,-2.6 1.3,-1.7 z"
     id="path14506"
     inkscape:connector-curvature="0"
     style="fill:#c5c7ca" />
  <path
     d="m 392.95898,271.00861 0,-0.7 0.4,-0.1 -0.1,-1 3.4,1.1 2.4,-0.3 1.8,1.5 4.3,-1.3 0.3,2 1.1,0.8 1,3.5 -0.5,1.6 1.3,3.6 -1.1,0.6 -0.3,1.7 -0.7,0 -2.3,0.5 -0.2,-2.7 -2,-0.4 -2.2,-4.4 -2.6,0.2 -1.9,1.9 -0.2,0.6 -0.4,0 -1.1,-2 -2.6,-2.1 0,-3 2.5,-0.6 z"
     id="path14508"
     inkscape:connector-curvature="0"
     style="fill:#c5c7ca" />
  <path
     d="m 281.85898,294.60861 1.6,1.5 1.7,4 0.4,0.1 -1.5,-0.1 -4.3,2.3 -2.5,-1.9 -0.5,-2.4 1.1,-3.5 -1.5,-1.7 0.1,-2.2 -1.5,0.2 -1.6,-2.2 0.7,-2.2 2.1,-1.1 -1.1,-1.2 2.3,-2.3 -0.4,-0.7 2.1,1.5 1.7,2 -0.2,1.9 1.2,-0.4 2.1,2 -0.6,3.3 -0.7,-0.1 z"
     id="path14510"
     inkscape:connector-curvature="0"
     style="fill:#c5c7ca" />
  <path
     d="m 248.65898,248.50861 -0.3,5 -3.9,-0.7 -1.1,0.7 -1.6,-0.9 0.7,-1 3.6,0.7 1.1,-0.7 -0.9,-2.3 -1.6,-1.2 z"
     id="path14512"
     inkscape:connector-curvature="0"
     style="fill:#c5c7ca" />
  <path
     d="m 219.55898,262.40861 -3.5,1.1 -1,-0.5 -2.3,2.8 -2.4,0.3 0.1,1.2 -1.6,1 -1.2,-1.2 0.3,-1.3 -2,-0.1 -2,-1.6 0.5,-1.9 2.5,-1.9 4.6,-0.2 1.2,-0.6 4.1,0.5 0.8,1.7 z"
     id="path14514"
     inkscape:connector-curvature="0"
     style="fill:#c5c7ca" />
  <path
     d="m 472.85898,167.30861 0.3,2.3 -5.1,-1.4 -2.4,0.1 -0.4,1.4 1.4,2.2 2.3,2.5 1.1,1.4 -2,-1.4 -1.8,-0.2 -2.4,-2.4 -0.8,-3.1 -1.3,-0.8 -0.9,2 -1,-2.5 2.3,-0.1 2,0.3 0.8,-2.7 1.7,-1 2.4,2 z"
     id="path14516"
     inkscape:connector-curvature="0"
     style="fill:#c5c7ca" />
  <path
     d="m 472.55898,166.00861 -3.5,-0.1 -1.9,-1.8 -1.2,-1.4 1,-0.4 0,-2.6 1.4,-0.9 1.5,0.9 2.1,0 0.4,-1 2.5,-0.3 1.4,-1.4 3.9,0.4 1.8,1.6 -1.4,0.8 -2.5,4.9 -2.1,0.6 z"
     id="path14518"
     inkscape:connector-curvature="0"
     style="fill:#c5c7ca" />
  <path
     d="m 393.85898,90.908614 0.5,1.7 2.7,0.8 0.2,1.8 -2.4,2.7 -4.3,2 -3.5,0.999996 -1.8,1.1 -3.4,-0.6 -2.2,-1.599996 -2.5,0.299996 0.6,-1.799996 -0.6,-2 -3.7,-0.3 5.1,-0.6 -1.5,-0.8 0.9,-1.3 -4.2,0.6 -0.2,-1.7 2.3,-2.2 1.7,-0.3 2.2,1.7 0.5,2.3 2,-1.2 0.4,-1.6 1.4,1.6 0.2,-1.4 2.4,-0.4 2,0.8 1.8,-0.5 1.3,-1.8 z"
     id="path14520"
     inkscape:connector-curvature="0"
     style="fill:#c5c7ca" />
  <path
     d="m 627.05898,216.80861 -1.3,1.9 -0.2,0.3 -0.1,1 0.3,1.4 0.2,0.2 0.3,-0.1 2.5,1.7 2.4,1.3 2.2,1 0.1,0 2.1,-0.5 3.1,2.4 0.7,-0.4 3.7,1.2 2.7,-0.8 -0.4,-3.4 1.7,-0.5 0.3,2.1 -0.1,0.2 1.8,1.4 0.1,0 2,-0.3 4.1,0.1 -1.2,-2.7 1.9,-0.2 2,-2.4 1.5,-0.2 1.6,-2.1 1.8,1 1.6,-1.4 0.9,2.9 2.6,1 -0.9,1.9 0.8,1.4 -2.5,-0.4 -2.4,2 -0.1,2.6 -1.6,5.7 -2.1,-0.4 0.1,5.4 -1.3,0.7 -1.3,-5.2 -1.4,2.3 -1.4,-2.2 1.7,-1.5 1.1,-2.6 -4.9,-0.4 -1.6,-0.6 -0.7,-2.7 -0.6,0.7 -2.2,-1 -0.9,1.3 2.3,2.3 -1.2,-0.1 -0.7,2.1 1.5,0.6 1.5,6.6 0,1.3 -1.7,0.2 -0.6,-1.5 -3.1,2.7 0.6,1.5 -1.7,2.3 -2.2,0.7 -3,4.2 -3.9,3.2 -0.3,1.8 -2.4,0.6 -1.2,1.8 -1.3,0.1 -0.5,1.9 0.9,5.1 -1,3.8 0.1,5.1 -1.2,-0.2 -0.9,3.1 -1.9,1.2 -1.7,2.3 -2.4,-2.4 -2.4,-7.4 -2.4,-4.1 -1.3,-5.1 -2.4,-4.3 -1.8,-7 -0.8,-4.4 0.6,-2.5 -1.1,-1.8 -0.2,-2.5 -1.1,3.2 -2.9,1.3 -1.3,-0.7 -3.6,-4 3,-0.9 -4,-1.8 -1.1,-1.8 1.2,-1.7 3.2,0.5 2.7,-0.8 -1.4,-3.8 -1.4,-0.7 0,-1.8 -1.7,-0.7 0.1,-1.4 1.7,-2.5 1,0.9 2.8,-0.7 1,-2.5 1.4,-0.8 0.9,-2.8 2.5,-3.5 -0.4,-2.1 2.1,-1.5 -1.6,-0.8 -2,-2.2 -0.9,-3.8 1.3,-1.2 3.5,0.8 2.7,-0.5 0.2,-1.3 1.8,-1.4 1.4,2.7 1.9,1.3 -0.3,2.4 2,2.3 -1.4,1.3 -1.3,-0.6 1.1,3.3 z"
     id="path14522"
     inkscape:connector-curvature="0"
     style="fill:#c5c7ca" />
  <path
     d="m 539.65898,189.40861 0.8,-0.1 3,-2.5 1.3,0.9 -0.7,1.8 2.3,1.3 0.4,2.2 2.9,1.1 2.4,2.2 1.9,0.4 4,-0.9 0.8,-1.5 2.1,-0.6 1.5,-1.8 4.3,-0.6 0.5,1.1 4.9,1.4 2.6,2.7 1.9,0 0.6,3.3 -0.8,3.4 -0.7,1.2 1,2.2 -0.5,0.8 0.4,1.8 0.5,3.6 2.2,0.3 0.3,1.9 -2,2.9 3,4 2,0.8 0.2,3.1 1.5,0.4 -0.4,1.5 -3.1,1.3 -0.5,3.1 -6.2,-0.6 -4.5,-1.1 -1,-3.4 -1.7,-1 -3.7,2.2 -2.6,-0.7 -5.6,-3.5 -1.8,-3.7 -2.4,-3.6 -1,0.7 -1.9,-1 -0.9,1 -2.1,-3.8 0.3,-1.8 -2.6,-2.7 -1.9,-0.9 -0.5,-1.9 -1.4,-1.2 1.1,-3.6 -0.3,-2.4 -1.3,-0.7 -1.7,-3.5 -1.5,-2.4 -0.7,-4.8 1.8,-0.8 1.6,2 z"
     id="path14524"
     inkscape:connector-curvature="0"
     style="fill:#c5c7ca" />
  <path
     d="m 514.15898,211.80861 0,0 0,0 z m 0.8,-4.4 -0.1,2.6 -1.2,-0.3 -0.2,3.5 1.3,-0.4 -0.1,0.8 -0.2,1.4 -0.1,0 -0.8,4 -1.7,-5.3 0.4,-1.2 1.4,-4.7 z"
     id="path14526"
     inkscape:connector-curvature="0"
     style="fill:#c5c7ca" />
  <path
     d="m 445.55898,173.20861 -1.1,-1.6 -0.1,-5.7 2,0.1 1,-1.7 1.6,1.9 0.8,-1.6 2.8,-0.9 0,-1 4,-0.7 0.6,1.2 3.1,0.7 -1.1,2.6 -2.5,1.7 0.9,1 -0.3,2.4 3,2.4 1,2.7 1.8,2.1 3.2,0.5 -0.1,1.7 4.9,2.6 1,2.7 -1.3,-1.5 -2.3,-0.5 -0.9,2 1.5,1.4 -2.5,4.8 -0.9,-0.2 1.3,-3.1 -1.6,-3.8 -4.7,-3.8 -1.5,0 -6.1,-5.7 -1.2,-3.5 -3.4,-1.3 z m 12,6.2 0,0 0,0 z m -7,2.5 0.8,2.1 -0.7,4.6 -2.7,0.5 0.3,-3 -0.9,-3.4 z m 14.8,9.9 -1,2.5 0.1,2.1 -1.7,-0.4 -5,-3.1 1.6,-1.3 1.5,0.7 4.4,-1 z"
     id="path14528"
     inkscape:connector-curvature="0"
     style="fill:#c5c7ca" />
  <path
     d="m 415.55898,291.00861 -2.6,0.4 -4.4,1.8 0.3,-4.2 -0.6,-0.1 -0.2,-0.2 -0.8,-1 -1.3,-0.6 1,-3.1 0.3,-1.7 -0.1,-5.5 1.3,-1.1 1.2,0.6 0,0 0.4,-0.1 0.8,-1.2 1.7,1.3 1.5,-0.2 1.7,1.7 3.7,-0.5 1.6,3.2 0,0 -0.2,2.2 -1.4,4.1 1.2,4.4 -4.3,-0.6 z"
     id="path14530"
     inkscape:connector-curvature="0"
     style="fill:#c5c7ca" />
  <path
     d="m 538.75898,205.10861 1.4,1.2 0.5,1.9 1.9,0.9 2.6,2.7 -0.3,1.8 0.8,0.7 0.6,3 -2.6,0.2 -1,2.4 -1.4,0.3 -3.4,-0.3 -6.8,-5.9 -4.3,-2.7 -2.9,-0.6 -1.2,-3.8 5.2,-3.3 0.6,-1.1 0,-5.6 2.2,-1.8 1,-1 4.6,0.7 2,3.6 1.3,0.7 0.3,2.4 z"
     id="path14532"
     inkscape:connector-curvature="0"
     style="fill:#c5c7ca" />
  <path
     d="m 749.05898,206.20861 1.3,0.2 0.9,1.9 -0.8,4.9 -2.7,0.3 -0.4,-1.6 0.6,-3.2 -2.3,-0.1 -0.4,-1.2 2.3,-2.2 z m 7,-2.4 1.5,1.7 -1.1,1.8 -1.5,-0.8 -1.1,2.3 -1.3,-0.4 -0.7,-1.8 1,-2 1.7,0.4 z m 12.7,-22.5 3.1,5.9 -0.4,4 -1.2,-0.1 0.6,4.4 -0.5,1.4 1,2.5 -1.9,2.7 0.3,-2 -1.9,0.7 -0.7,2.2 -0.9,-1.5 -0.8,1.5 -3.3,-0.4 -1.5,3.7 -2.4,-1 0.7,-2.1 -2.2,-0.7 -3.2,1.5 -2,-0.2 -0.6,1.5 -2.9,-0.1 3.5,-4.8 5.4,-0.6 2.1,0.5 1.6,-3.8 -0.3,-2.1 1.8,1.8 2.1,-1.4 2.1,-3.1 0.7,-4 -1.3,-3.9 0.8,-2.2 1.3,1.4 z m -1.3,-13.6 5.2,4.5 3.4,0.6 1,2.1 -0.8,1 -2.1,0.2 -1.1,3.3 -3.7,-2.1 -3.7,1 1.3,1.4 -0.9,1.4 -1.7,-4.2 1,-2.3 1.8,0.7 0.3,-4.9 -0.9,-1.7 z"
     id="path14534"
     inkscape:connector-curvature="0"
     style="fill:#c5c7ca" />
  <path
     d="m 234.95898,254.00861 -3,-1.2 1.3,-0.8 2.4,0.4 1.6,1.5 z"
     id="path14536"
     inkscape:connector-curvature="0"
     style="fill:#c5c7ca" />
  <path
     d="m 514.35898,215.00861 0.1,0 0.2,-1.4 0.3,-4.6 3,1.2 4.7,-3.3 1.2,3.8 -5.3,2 2.6,3.2 -1.2,1.5 -1.9,0.4 -1.5,2.1 -2.8,-0.5 z"
     id="path14538"
     inkscape:connector-curvature="0"
     style="fill:#c5c7ca" />
  <path
     d="m 517.85898,292.60861 0.8,0.5 1.7,0 3,2.4 3,0.4 0.5,0.2 0.9,-1.4 2.3,-1.2 0.7,0.7 2.1,0.2 -2.3,3.3 0.1,8.2 0,2.5 1.4,2.3 -3.4,2.9 -0.3,1.8 -2.3,3.9 -3.9,-3.4 0.1,-1.2 -9.4,-5.9 0,-3.2 2.4,-4.2 0,-2.5 -0.3,-0.8 -0.2,-0.5 -0.3,-0.4 -0.4,-1.1 -0.9,-2.4 -0.1,0 1,-1.1 z"
     id="path14540"
     inkscape:connector-curvature="0"
     style="fill:#c5c7ca" />
  <path
     d="m 616.75898,181.60861 -0.2,0.5 -2.9,0.2 -0.7,1.1 -0.2,0.5 -0.1,0.2 -1.9,0.6 -0.5,-1.1 -1.6,0.4 -1.9,1.6 -0.7,1.8 -4.3,0.6 -1,-1.1 -5.1,0.4 -0.2,-1.6 3.9,-0.8 1.8,0.3 3.3,-2.2 -2.4,-0.6 -1.5,-1.8 -0.4,1.3 -3.2,-1.4 1.7,-2.2 1.5,-1.9 2.7,0.6 1.8,0.6 -0.1,-1.9 1.7,-0.6 3.4,1.3 1.7,-0.3 6.8,0.4 1.2,1.1 1.7,1.4 z"
     id="path14542"
     inkscape:connector-curvature="0"
     style="fill:#c5c7ca" />
  <path
     d="m 742.55898,178.20861 -2,2.5 0.5,2.3 -4.5,3.6 0.1,1.8 2.6,1.7 -0.7,1.1 -2.1,0 -0.8,1.5 -2.9,0 -2.2,-0.9 1.1,-4.7 -1.8,-0.2 -1.2,-1.5 0.6,-0.6 0.1,-0.1 2.6,-1.9 0.1,0 0.9,-2.3 0,-0.1 0,0 0.2,-0.1 0.6,-0.5 0,0 0.6,0.6 0.2,0.3 2.3,0.5 0.1,0 0,-1 -0.4,-0.4 -0.2,-0.6 0.5,-0.2 0.5,0.1 0,0 0.1,0 1,-0.1 0,-0.1 0.5,-0.6 0.2,-0.7 0.8,-0.8 0,-0.1 0.2,-0.9 0,0 0.1,0 0.6,0.3 0.2,0.3 0,0.1 0,0 0.1,0.2 1,1 0,0.1 0,0 z"
     id="path14544"
     inkscape:connector-curvature="0"
     style="fill:#c5c7ca" />
  <path
     d="m 735.65898,192.70861 0.8,-1.5 2.1,0 0.7,-1.1 3.2,4.5 1.3,4 -0.6,2.8 -1.4,-0.2 -2,1.8 -3.3,0.1 -0.1,-3.4 0.6,-0.8 -1.7,-2.8 1.2,-1.5 z"
     id="path14546"
     inkscape:connector-curvature="0"
     style="fill:#c5c7ca" />
  <path
     d="m 547.05898,221.90861 -1.8,0 -0.6,-1.4 -2.3,-0.3 1.8,-3 1.5,0.2 0.1,1.9 z"
     id="path14548"
     inkscape:connector-curvature="0"
     style="fill:#c5c7ca" />
  <path
     d="m 634.65898,155.10861 -1.2,-0.1 -0.3,2 -2,0.5 0.2,4.6 -1.8,0.8 -4.1,-1.4 -0.9,5.9 0.6,1.3 -2,-0.8 -3.7,1.1 2.5,6.2 -1.4,1.8 0.4,1.5 -1.6,-0.9 -1.2,-1.1 -6.8,-0.4 -1.7,0.3 -3.4,-1.3 -1.7,0.6 0.1,1.9 -1.8,-0.6 -2.7,-0.6 -2.7,2.4 -3.2,2.4 -0.7,2.4 -1.9,-1.8 -2.6,0.1 -1.1,-2.8 -1.1,0 -0.2,-3.3 -0.6,0.4 -1.7,-2 -4.9,-0.5 -2.8,0.5 -2.3,-2.5 -6.7,-4.5 -5.9,1.9 1,12.2 -1,0.3 -3.6,-3.6 -2.8,0.7 -1.3,1.3 0.5,-3 -1.9,-0.6 -4.5,-6.2 2.4,0.3 -1,-1.3 1,-1.3 2.6,-0.2 1.3,-2 -0.4,-3 -1.9,0.3 -2.6,-1.1 -4.5,2.7 -3.2,-5 -2.2,-0.1 -0.2,-1.6 -1.5,-0.5 1.1,-2.4 -0.5,-2.6 1.5,-2.1 2.1,2.2 1.1,-0.7 -0.7,-2 1.6,-1.8 2.1,-0.7 0.8,-1.5 2.2,1 1.5,-1.2 0.5,1.1 2.1,0 2.8,2.1 0.4,-0.5 2.5,1.7 1.8,-1.9 2.9,0.5 1.3,-0.8 1.6,1.7 2.1,0.5 0.3,-1.1 3.4,0.3 0,-2.4 -3.5,-1.5 2,-1.7 -1,-1.4 3.2,-1.4 -2.4,-0.9 -0.6,-1.9 2.4,-0.2 4.5,-1.3 9.4,-2.4 -0.1,-0.8 3.4,-0.6 2.7,0.2 1.4,2.4 0,2 2.2,-1 3.4,1.5 -0.5,1.4 2.4,-0.1 5.5,-3.1 -0.4,1.7 3.5,2.5 6.2,8.6 1.5,-1.5 2.1,2 5.6,-0.5 1.3,2.2 1.9,0.7 0.9,1.7 2.2,0.3 0.8,-1.1 z"
     id="path14550"
     inkscape:connector-curvature="0"
     style="fill:#c5c7ca" />
  <path
     d="m 691.15898,264.80861 0.4,-0.8 0.2,-3.5 -1.7,-1.8 -0.7,-3.4 -0.4,-0.3 -1.2,-1.4 -0.7,-1 -0.9,-0.2 -0.9,0 -1.3,1.7 -1.6,-1.1 -1.4,1.3 -1.4,0.5 0.1,-0.1 0.4,-1.4 -0.2,-0.9 0,-3.5 -1.7,0.2 -0.1,-1 0,-0.1 -0.3,-1.1 -0.8,-0.3 1.3,-2.8 1.1,-0.8 1.6,1.3 -0.6,-2.5 0.3,-1.6 0,0 0.6,0.1 1.3,1.5 1.2,0.8 -0.1,1.3 2,1.6 1.1,-0.7 0.9,1.6 1.1,1.7 -1.8,0.5 0.5,1.6 2.3,1.3 0.7,1.3 4.1,5.2 0.9,0.8 0.2,1.1 1.3,1.7 -0.2,1.7 -1.7,1.2 -0.8,-0.9 -1.5,1.9 z"
     id="path14552"
     inkscape:connector-curvature="0"
     style="fill:#c5c7ca" />
  <path
     d="m 514.95898,207.30861 -1.3,0.5 1.9,-4.9 1.6,1.4 z"
     id="path14554"
     inkscape:connector-curvature="0"
     style="fill:#c5c7ca" />
  <path
     d="m 485.95898,122.80861 2.9,1.8 2.4,0 0.7,0.8 1,4.4 -1.3,1.3 -2.2,0.4 -4.2,-2.9 -1.6,0.7 -1.3,-0.3 -3.6,-0.2 -1.5,0.6 -0.8,0.6 -0.1,-2.9 1.4,-2.7 2,-0.6 2.4,2.9 1.8,-0.9 -0.4,-2.3 z"
     id="path14556"
     inkscape:connector-curvature="0"
     style="fill:#c5c7ca" />
  <path
     d="m 489.45898,131.50861 2.2,-0.4 1.3,-1.3 1.3,0.5 4.5,1 0.6,1.5 0.4,1.1 -0.4,0.7 2.5,3.7 1.6,0.3 -0.2,2.2 -2.1,-0.3 1.2,4 -2,0.3 -0.8,2.7 -1,-0.8 -4.8,-0.4 -2.8,-0.6 -4.5,-0.6 -3.3,1.4 0.1,-1.7 -1.3,-1 1.7,-1.5 -1.1,-4.5 3,-0.1 1.7,-1.2 0.4,-2 2.3,-1.5 z"
     id="path14558"
     inkscape:connector-curvature="0"
     style="fill:#c5c7ca" />
  <path
     d="m 476.35898,133.00861 -0.1,0 0.1,0 z m 4.4,3.3 0,-1.9 -3.7,-1.3 -0.6,-3.1 0.8,-0.6 1.5,-0.6 3.6,0.2 1.3,0.3 1.6,-0.7 4.2,2.9 0.5,1.5 -2.3,1.5 -0.4,2 -1.7,1.2 -3,0.1 z"
     id="path14560"
     inkscape:connector-curvature="0"
     style="fill:#c5c7ca" />
  <path
     d="m 401.75898,281.40861 2,0.4 0.2,2.7 2.3,-0.5 1,3.7 0.8,1 0.2,0.2 0.6,0.1 -0.3,4.2 -3.7,-1.8 -3.4,-3.3 -2.5,-1.6 0.2,-1.5 1.8,-1.6 z"
     id="path14562"
     inkscape:connector-curvature="0"
     style="fill:#c5c7ca" />
  <path
     d="m 468.35898,158.80861 -0.6,-2.1 4.4,-3.1 1.4,-0.3 1.6,1.4 3.6,-0.8 2.3,1.2 -0.9,2.3 -3.9,-0.4 -1.4,1.4 -2.5,0.3 -0.4,1 -2.1,0 z"
     id="path14564"
     inkscape:connector-curvature="0"
     style="fill:#c5c7ca" />
  <path
     d="m 450.25898,161.40861 0.2,0.7 -0.2,-0.7 z"
     id="path14566"
     inkscape:connector-curvature="0"
     style="fill:#c5c7ca" />
  <path
     d="m 450.95898,216.70861 1.9,-2.1 -0.4,-1.6 1.7,-1.9 1.8,-1.4 -0.2,-2.2 1.9,1 2.4,-0.2 4.6,1.6 1.3,2.9 4.3,1.2 4,2.5 1.9,-0.7 0.9,-2 -0.5,-2.5 1.5,-1.8 2.6,-1.2 3.7,0.9 -0.1,1 2.5,1 2.1,0.1 0.2,3.6 -0.6,2 0.7,2.8 0.2,5 0.5,22.9 -2.5,0 0,1.5 -11.8,-7.1 -8.3,-4.6 -2.4,1.3 -1.9,1.2 -2.1,-1.8 -3.6,-1 -1,-2.3 -3.7,-1.6 -0.1,-1.5 -1.6,-2.5 1.1,-1.1 -0.3,-2.5 0,-6.5 z"
     id="path14568"
     inkscape:connector-curvature="0"
     style="fill:#c5c7ca" />
  <path
     d="m 551.25898,340.80861 1.7,4.6 0.9,4.5 -0.7,2.3 -1.4,-1.3 0.2,3.8 -1,1.4 -0.2,3.1 -4.1,12.2 -1,4 -1.3,3.6 -4.8,1.9 -2.9,-1.9 -0.8,-2 0.4,-2.6 -1.2,-3.5 0.7,-2.8 2.6,-4 -0.9,-4.7 -0.1,-2.9 1.3,-3.6 4.7,-1.4 4.1,-4.3 0,-2 2.3,-0.7 0.3,-2.3 z"
     id="path14570"
     inkscape:connector-curvature="0"
     style="fill:#c5c7ca" />
  <path
     d="m 642.55898,160.10861 -3.2,-1.2 -2.9,-2 -0.8,-2.1 2.3,-0.9 4.4,-3.3 3,-1.6 1.2,0.1 1.7,0.6 1.9,0.3 1.1,1.8 2.9,0.1 3.8,0.9 0.9,-0.8 0.7,-2.1 -1.3,-1.6 0.7,-1.8 1.1,-2.2 2,0.9 3,1 2.1,0.6 1.4,1.5 0.5,1 1.6,1.5 2,0.6 3.7,-1.2 3.4,0.6 1.4,1.1 1.8,0.2 1.8,2.1 5,0.7 2,-0.7 3.5,-0.9 0.8,-1.4 0.8,-0.3 1,-0.6 2.7,1.2 3.1,0.3 -1.5,5.9 1.2,1.5 2.1,-0.7 1.4,0.8 0.8,-1.1 1.8,0 3,2.6 1,2 -0.3,0.2 -0.9,-0.1 -2.2,-0.3 -4.1,1.4 -1.6,2.9 -2.7,0.2 -1.8,2.2 -4.6,-0.9 -0.4,2.2 1.6,1.7 -0.9,1.2 -0.6,0.2 -1.6,2.2 -2.9,1 -2.9,0.2 -1.1,-0.2 -5,2.4 -1.6,0.3 -7.1,-2.9 -2.4,-0.5 -3.2,0.4 -5.7,-0.8 -1.8,0.2 -3.3,-5.2 -1.6,-0.2 -3.1,-2.1 -4.8,-0.3 -2.3,-1.5 0.4,-2 -0.7,-2.9 z"
     id="path14572"
     inkscape:connector-curvature="0"
     style="fill:#c5c7ca" />
  <path
     d="m 477.15898,179.50861 1.3,-1.1 3,-0.3 1.1,1 0.4,2.2 -4.7,1.6 -1.2,-1.6 z"
     id="path14574"
     inkscape:connector-curvature="0"
     style="fill:#c5c7ca" />
  <path
     d="m 399.05898,270.00861 -2.1,-6.9 1,-0.8 1,-1.8 5.1,0.6 0.4,-0.1 9.4,-0.1 -1.6,-18 -1,-10.2 4.4,0 14.8,11.7 0,1.1 5.2,2.7 0.2,2.5 2.3,-0.5 -0.1,8.1 -1.7,3 -5.5,0.3 -2.7,1 -2.4,-0.5 -4.4,2.4 -2.7,3.2 -1,-0.9 -1.1,3.5 -2.2,1.4 -0.6,4 -1.2,0.6 -1.7,-1.3 -0.8,1.2 -0.4,0.1 0,0 -2.1,0.2 -1,-3.5 -1.1,-0.8 -0.3,-2 -4.3,1.3 z"
     id="path14576"
     inkscape:connector-curvature="0"
     style="fill:#c5c7ca" />
  <path
     d="m 422.15898,201.50861 1.1,1.1 0.2,4.7 1.6,2.3 -0.5,1.3 -4,0 -2.4,1.3 0.5,2.1 -3.2,1.6 -1.6,1.8 -3.8,0.8 -3.9,2.9 0,3.1 -11.1,0 0.5,-0.7 3.6,-1.2 4.2,-4.8 0.1,-4.9 1.4,-3.4 1.8,-2.2 4.3,-2.6 2.2,-5.4 1.2,-0.5 1.7,2.3 z"
     id="path14578"
     inkscape:connector-curvature="0"
     style="fill:#c5c7ca" />
  <path
     d="m 413.05898,230.70861 2.6,2 -4.4,0 1,10.2 1.6,18 -9.4,0.1 -0.4,0.1 -5.1,-0.6 -1,1.8 -1,0.8 -1.7,-1.5 0.2,-0.1 -0.6,-0.5 -1.8,-1.9 -1.4,-1.5 -4.4,0.3 -1.1,1.4 1.4,-4.9 -0.4,-3.5 -0.8,-1.3 0.8,-2.6 -1.8,-3.3 9.8,0 0.1,-5.1 1.6,-0.9 0.9,-0.4 0.1,-2.6 0,-2.7 0,-2.4 8.2,0 0,-3.9 z"
     id="path14580"
     inkscape:connector-curvature="0"
     style="fill:#c5c7ca" />
  <path
     d="m 567.25898,232.70861 2.3,3.2 3.6,0.9 3.1,4.2 -3.1,5.6 -0.9,-0.6 -0.9,2.5 0.4,2 -2.5,0.9 -1.1,2.4 -1.7,0.1 -1.4,2.6 -2.4,0 -2.4,1.1 -3,-7 7.3,-3 1.5,-5.9 -1.3,-2.1 1.3,-4.6 -0.1,-1.9 z m -0.3,-2 -0.6,-1.3 0.6,1.3 z"
     id="path14582"
     inkscape:connector-curvature="0"
     style="fill:#c5c7ca" />
  <path
     d="m 187.05898,229.70861 -1.9,5.2 -0.9,4.8 0.2,3 1.3,3.2 2.8,5.5 1.4,0 1.8,1.7 6.3,-1.7 0.5,0.9 2.8,-2.8 1.2,-4.9 1.7,-0.8 4.4,-0.9 2.8,0.5 -0.3,1.9 -1.5,1.6 -1.4,6.1 -1.1,-0.9 -2.1,2 -1.6,0 -3,0 -1.3,1.7 2.4,2.6 -0.1,0.9 -3.2,0 -1.3,2.3 -0.2,2.1 -4.1,-4.5 -2.2,-1 -1.5,1.3 -2.7,1 -3.2,-1 -2.3,-1.7 -2.3,-0.4 -5.9,-3.6 -3.3,-1.2 -0.5,-1 -3.1,-2.1 -1.3,-3.1 1.4,-3 -1.3,-3.7 -5.5,-7.5 -2.5,-2 0.8,-1.6 -2.6,-2.6 -0.1,-2 -1.5,-0.3 -2.2,-3.2 -1.6,-5.3 0.2,-1.6 -4.2,-2 -0.1,5.2 3.8,5.4 0,1.8 2.6,3.5 0.2,2.3 1.3,3.4 2.8,4.1 -1.5,1.8 -0.7,-2.1 -4.1,-3.6 -0.2,-4.4 -4.8,-3.1 -1.2,-1.9 1.4,0.1 1.2,-2.2 -1.8,-2.5 -1.7,-1.3 -0.5,-3.2 -1.2,-2.3 -0.6,-3.1 5.9,-0.5 -0.3,0.6 8.8,3.7 7,0 0.2,-1.5 4.4,0.2 3.2,3.6 0.5,2.8 3.2,2.1 1.4,-2.3 3.2,-0.1 1.6,2 0.6,2.6 1.8,2.2 0.6,3.4 3.8,1.7 z"
     id="path14584"
     inkscape:connector-curvature="0"
     style="fill:#c5c7ca" />
  <path
     d="m 723.35898,293.90861 0.6,0 -0.6,0 z m -39.3,-6 2.7,2.5 0.9,3 -0.1,3.9 1,1.1 1.2,3.5 -2.3,-0.5 -5.3,-3.8 -1.7,-3.7 -0.8,-5.4 -0.6,-1.1 0.2,-0.9 2.4,1.4 0,1.7 1.8,-0.3 z m 39,6 -0.2,-0.1 -0.2,-0.1 0,-0.1 -3.4,-0.1 -0.1,-0.1 -0.9,0.7 -0.2,1 0,0.9 0,0.2 -0.4,1 -0.2,0 -0.6,1.7 -0.3,0.3 -0.1,0.1 -0.1,0 -0.2,0.2 0,0.1 0,0.3 0.2,0.5 -0.1,0 -0.9,1.2 0,0 -2,0.8 -1.6,-1 -2.1,0.3 -0.1,0 -0.9,1.3 -3.1,0.4 -2.3,-2.2 0,-1.3 0.9,1.2 2.5,0.2 1.6,-3.6 3.2,-0.8 2.8,-4.3 1.5,1.7 0.9,-2.6 0,0.3 0.2,-0.3 1.1,-0.8 2.9,-5.3 0.9,0.1 2.2,2.7 3.2,2.6 -2.7,0.9 1.3,1.2 z"
     id="path14586"
     inkscape:connector-curvature="0"
     style="fill:#c5c7ca" />
  <path
     d="m 508.85898,384.70861 -1.8,-0.1 -0.3,-2.6 0.2,-4.6 -1.6,-6.1 0.3,-0.2 2.5,-3.7 0.7,-1.7 1.1,-2.3 -0.6,-1.2 0.1,-0.1 0.2,-1.6 0.4,-1.3 -0.2,-0.6 0,-1 0.2,-1.4 -0.1,-0.4 0,-1.2 -1.4,-0.9 -2.6,-1.2 -2.3,-0.2 -0.5,-3 4.1,-1.5 3.5,-1.3 1,1.5 1.9,-0.4 0.4,2.6 -0.9,1.8 2.6,3.6 -0.4,-1.7 1.7,-1.6 0.3,-3.9 -3.3,-3.9 -0.4,-3.3 1.5,-1.9 2.3,-0.4 0.8,0.8 3.2,0.1 1.6,-1.4 2.9,-0.2 3,-2 -0.1,2.4 0.5,4.3 -0.3,2.1 0.7,3.5 -0.7,2.3 -2.3,3.1 -6.3,3.5 -2.8,3.2 -3.4,3 -0.3,1.6 1,1.8 1,3.8 -1.4,7.1 -5.5,2.8 z m 5.4,-44.1 0,0 0,0 z m 0.3,0.1 0,0 0,0 z"
     id="path14588"
     inkscape:connector-curvature="0"
     style="fill:#c5c7ca" />
  <path
     d="m 514.55898,340.70861 0,0 0,0 z m -0.3,-0.1 0,0 0,0 z m 0.9,-1.3 -1.5,1.9 0.4,3.3 3.3,3.9 -0.3,3.9 -1.7,1.6 0.4,1.7 -2.6,-3.6 0.9,-1.8 -0.4,-2.6 -1.9,0.4 -1,-1.5 -1.1,-1.1 0.6,-1.5 -0.1,0 0.1,-0.7 1.2,-1.7 -0.5,-4.2 1.2,-0.9 -1.9,-3.4 3.9,1.9 0.2,3.1 z"
     id="path14590"
     inkscape:connector-curvature="0"
     style="fill:#c5c7ca" />
  <path
     d="m 836.95898,365.10861 2.1,1.3 0.8,1.5 3,2.5 -0.2,0.9 -3.7,-2.5 -2,-2.4 z"
     id="path14592"
     inkscape:connector-curvature="0"
     style="fill:#c5c7ca" />
  <path
     d="m 438.15898,250.20861 3.9,-0.9 4.1,-4.2 11.1,-8 3.6,1 2.1,1.8 1.9,-1.2 0.5,4.5 2,3.4 -0.5,1.3 -0.6,8.9 -2.7,3.5 -2.3,3.8 0.5,2.1 -3,1.9 -2.5,-0.9 -3.2,0.3 -1.3,1.3 -2.5,-0.4 -2.1,-1.2 -2.3,1.1 -1.2,-1.8 -2.2,-0.9 -2.7,0.7 -2.1,3.4 -0.1,2.4 -1.8,-2.1 -1.2,1.5 -1,-2.5 -2.5,-0.9 -2.1,-4.3 0.2,-1.2 2.7,-1 5.5,-0.3 1.7,-3 z"
     id="path14594"
     inkscape:connector-curvature="0"
     style="fill:#c5c7ca" />
  <path
     d="m 438.75898,146.60861 0.2,0.3 2.4,0.9 -0.3,1.4 1.3,0.5 -0.3,1.8 -0.8,2 -3.5,-1.5 -0.3,-0.9 -3.6,-2.1 -0.3,-1 2.1,-0.5 z"
     id="path14596"
     inkscape:connector-curvature="0"
     style="fill:#c5c7ca" />
  <path
     d="m 711.05898,240.20861 0.4,-0.1 -0.4,0.1 z"
     id="path14598"
     inkscape:connector-curvature="0"
     style="fill:#c5c7ca" />
  <path
     d="m 442.05898,151.50861 0.6,2.3 -1.4,-0.3 z"
     id="path14600"
     inkscape:connector-curvature="0"
     style="fill:#c5c7ca" />
  <path
     d="m 511.85898,213.70861 -0.2,-0.4 0.6,-0.8 z m 3,-3.7 -0.1,2.8 -1.3,0.4 0.2,-3.5 z m -0.7,1.8 0,0 0,0 z"
     id="path14602"
     inkscape:connector-curvature="0"
     style="fill:#c5c7ca" />
  <path
     d="m 471.95898,177.30861 1.8,-3.2 2.9,2.3 -0.7,0.9 -0.9,-0.4 -0.7,2.7 -2.4,-2.2 z"
     id="path14604"
     inkscape:connector-curvature="0"
     style="fill:#c5c7ca" />
  <path
     d="m 591.25898,455.60861 1.7,2 -2.6,1.3 z"
     id="path14608"
     inkscape:connector-curvature="0"
     style="fill:#c5c7ca" />
  <path
     d="m 447.15898,267.20861 2.1,1.2 2.5,0.4 1.3,-1.3 3.2,-0.3 2.5,0.9 3,-1.9 1,1.8 1.5,2.7 0,1.9 -1.6,0.7 -4,7.7 -0.9,3 -1.7,3.3 -1.8,-1.8 -1.2,0.1 -3.2,3.4 -0.7,3 -2.3,0.9 -4,0.7 -1.2,-1.1 -0.6,-2.1 -2.1,-2.7 -4.6,-0.2 0,-6 0.1,-0.8 2.3,-4.2 0.2,-2.8 -0.3,-4 2.1,-3.4 2.7,-0.7 2.2,0.9 1.2,1.8 z"
     id="path14610"
     inkscape:connector-curvature="0"
     style="fill:#c5c7ca" />
  <path
     d="m 444.45898,140.40861 -0.9,4.7 -2,0.4 0.6,1.1 -0.4,2.6 -0.7,0 0.3,-1.4 -2.4,-0.9 -0.2,-0.3 -3.1,-0.1 2.7,-3.3 1.9,0.8 0.6,-2.2 -1.5,1.7 -0.2,-1.9 2.2,-1.8 z"
     id="path14612"
     inkscape:connector-curvature="0"
     style="fill:#c5c7ca" />
  <path
     d="m 462.85898,80.008614 1.2,0.8 -3.3,1.1 1.3,-2.7 z m 3.5,-3.3 0.8,1.5 -2.4,-0.2 z m 29,-1.1 -1.4,0.5 -2.5,2.6 0.6,-1.9 -3.2,-2.5 -3.2,0.7 -1,1.3 -0.3,2.7 -1.4,1.5 -2.8,-0.8 -3.1,0.5 -1.8,-2.5 -2.3,1 -1.3,3 -4.1,-0.7 -0.4,2.4 -1.3,-0.6 -2.5,2.8 0.7,1.1 -2.3,2.8 -1.8,1.4 0.1,3.3 -1.8,3 1,0.5 -0.2,1.8 -3,0.3 -1.5,2.599996 0.9,4 -0.3,2.2 1.7,1.4 -1.4,1.4 0.9,1.8 -0.2,1.8 -1.6,0.8 -0.8,3.3 -1.9,-2.2 -0.8,2 -1.2,0.2 -3.4,3.3 -2.7,0.5 -3.3,-2.1 -0.2,-1.9 1.5,-0.8 -2.3,-1 1.7,-1.7 -1.9,-1.6 1.4,-0.4 -1.8,-1.2 0.4,-5.6 1.8,0.1 2.6,-1.8 -0.4,-1.1 2.4,-0.2 3.5,-3.1 3.6,-4.399996 3.1,-1.1 -0.6,-2.1 2.5,-5.3 5.1,-4.5 0.7,0.5 0.8,-3.1 1.3,-0.4 2.2,-3.3 2,-1.1 2.9,0 1.3,-1.9 1.7,-0.5 2.7,1 1.3,-1.7 1.1,0 0.5,-2.1 2.8,0.3 -1.6,1.7 -0.2,1.8 3.6,-3.7 -0.2,2.5 2.2,-3.3 7.3,2.9 0.4,0.7 -2.7,1 z"
     id="path14614"
     inkscape:connector-curvature="0"
     style="fill:#c5c7ca" />
  <path
     d="m 628.75898,223.20861 -2.5,-1.7 -0.3,0.1 -0.2,-0.2 -0.3,-1.4 0.1,-1 0.2,-0.3 1.6,-1.5 0.6,-1 4.7,2.3 1.2,1.5 2,1 1.8,1.6 2,0.5 1.2,0.6 3.1,0.4 0.5,0 1,-0.1 0.3,3.4 -2.7,0.8 -3.7,-1.2 -0.7,0.4 -3.1,-2.4 -2.1,0.5 -0.1,0 -2.2,-1 z"
     id="path14616"
     inkscape:connector-curvature="0"
     style="fill:#c5c7ca" />
  <path
     d="m 291.45898,290.50861 -0.8,1 0.3,2.7 0.9,1.3 -1.6,3.7 -1.2,-0.6 -2.6,0.8 0.3,1.2 -1.6,-0.5 -1.7,-4 -1.6,-1.5 0.7,-3.2 1.6,-2.7 2.9,0.5 2.8,-0.6 2,0.7 z"
     id="path14618"
     inkscape:connector-curvature="0"
     style="fill:#c5c7ca" />
  <path
     d="m 219.55898,262.40861 -1.2,4.6 -1.1,6.2 0.5,1.1 -5.1,-0.5 -4.8,-5.3 1,-0.2 1.6,-1 -0.1,-1.2 2.4,-0.3 2.3,-2.8 1,0.5 z"
     id="path14620"
     inkscape:connector-curvature="0"
     style="fill:#c5c7ca" />
  <path
     d="m 845.65898,427.70861 -0.1,2.6 3.3,-0.9 -0.7,2.4 -3.5,3.8 -1.4,0.8 -0.6,2.5 -1.1,-0.1 -3.1,1.6 -0.8,2 -2.3,3.2 -2.9,2.4 -2.9,0.1 -2,-1.5 -1.8,0.2 -0.3,-1.3 2.7,-3.1 3.7,-3 3.6,-1.5 4.3,-3.4 3.8,-5.5 z m 5.3,-19.5 0.1,1.4 2.4,1.1 0.1,5 1.5,1.5 0,-2.5 1,0.8 -0.2,2.5 2.3,1.6 2.6,-1.5 1.1,0.6 -2.9,4.4 -2.6,1.1 0.4,0.7 -3.8,4.8 -2.2,1.7 -1.5,-1.3 2.4,-3 -0.3,-1.3 -2.4,-1.6 2.4,-2 1.4,-2.3 -0.6,-5.2 -1.7,-4 z"
     id="path14622"
     inkscape:connector-curvature="0"
     style="fill:#c5c7ca" />
  <path
     d="m 292.15898,382.10861 -0.3,2 -0.2,0 -0.1,0.4 -0.7,0.5 -0.7,1.1 -0.6,0.3 -0.8,-0.3 -0.3,0.4 -0.5,0.3 -0.6,-0.2 -0.8,0 -3.7,-0.6 -0.3,-0.4 0,-0.1 1,-1.4 0.9,-2.8 0,-1.5 -5.8,-3.6 -0.7,0 -3.5,-2.3 0,0 -0.1,0 -1.1,-1.4 -1.2,-1.3 -0.3,-0.4 0.7,-5.1 1.1,-2.6 4.5,-1.1 2.1,0.2 2.4,1.4 0,1 0.5,1 0.4,1 -0.1,3.5 0.2,0.3 0.8,0.2 0.9,0.1 0,0 1.3,0 1.3,0.2 0.2,0 0,0 0.1,0 0.9,0.9 0.2,0.1 0,0.5 0.7,3.5 1.4,-0.1 1.6,0.4 0,0.7 -0.2,0.8 0,0.1 z"
     id="path14624"
     inkscape:connector-curvature="0"
     style="fill:#c5c7ca" />
  <path
     d="m 229.85898,318.40861 0,-0.1 0.3,-1.1 0.9,-1.3 -0.1,-0.3 0.9,-1.1 2.9,-1.2 2.4,-2.5 1.2,-3.3 -0.5,-0.6 0,-0.1 -0.4,-0.4 0,-0.2 0.1,0 0.7,0.1 0.2,-0.4 0,0 0.8,0.7 0.4,0 3.2,3.8 0,0.1 0,0.1 0.9,1.7 0,0 0.4,0.5 2.9,-0.5 0.7,0 0.3,0.1 1.3,-0.1 2,1.5 -1.6,3 0.8,0 0,0 0.6,0.7 -1.6,0.5 -3.9,1.7 -1.3,1.1 -0.7,2.5 0.1,1.5 -2,2.8 0.7,1 1,2.1 0.8,1.8 2,1.5 0.2,0.8 2.9,-0.5 1,-0.1 0.1,3.5 0.1,-0.1 0.4,0.1 2.1,-0.2 2.4,4.5 -0.7,1.1 0.4,3.9 -1.2,2.2 0,2 1.5,2.1 -1.9,2.8 0.4,0.6 -1.4,2.4 -0.7,0.1 -2.9,-3.1 -2.5,-1.8 -3.5,-1.6 -3.1,-2 -2.4,-2.3 -0.7,-3.5 -2.8,-5.3 -1.1,-1.1 -3,-7.8 -3.6,-5.7 -2.6,-1.5 0.7,-1.4 -0.9,-1.3 -0.1,-2.7 1.7,-2.1 0.4,2 0.1,0.1 2.1,0.8 1.2,1.4 z"
     id="path14626"
     inkscape:connector-curvature="0"
     style="fill:#c5c7ca" />
  <path
     d="m 617.65898,200.10861 -1.8,1.4 -0.2,1.3 -2.7,0.5 -3.5,-0.8 -1.3,1.2 0.9,3.8 2,2.2 1.6,0.8 -2.1,1.5 0.4,2.1 -2.5,3.5 -0.9,2.8 -1.4,0.8 -1,2.5 -2.8,0.7 -1,-0.9 -1.7,2.5 -0.1,1.4 1.7,0.7 0,1.8 1.4,0.7 1.4,3.8 -2.7,0.8 -3.2,-0.5 -1.2,1.7 -1.8,-0.3 -1,-2.2 -1.3,-0.7 -0.4,-2.1 -4.7,0.8 -7.5,0.2 0.5,-3.1 3.1,-1.3 0.4,-1.5 -1.5,-0.4 -0.2,-3.1 -2,-0.8 -3,-4 4.1,1.3 5.1,-0.5 0.4,0 3.6,-0.8 0.1,-3.4 3.3,-1.8 0.9,-1 1.7,0.7 1.1,-1 0.3,-3.6 1.8,-0.8 -1,-2.2 1.4,0.3 0.8,-0.1 0.4,-0.2 -0.3,-1.5 1.3,-2.8 -1.3,-2 0.6,-0.8 1.6,-1.4 4.7,-0.4 0.9,-0.5 0.1,0.1 0,-0.2 3.4,1.3 0.3,1.9 2.1,1.2 z"
     id="path14628"
     inkscape:connector-curvature="0"
     style="fill:#c5c7ca" />
  <path
     d="m 472.15898,153.60861 -0.7,-1.4 -1.7,-0.3 -3.4,-2 -3.8,-1.1 0.3,-0.8 -1,-2.5 0,-2.7 -1.1,-1.1 0.1,-3.6 4.4,-1.4 0.9,-1.1 4.1,-1 1,1.7 6.3,0.2 3.7,-0.3 1.3,1.6 1.1,4.5 -1.7,1.5 1.3,1 -0.1,1.7 1.3,2.3 0,1.1 -2.9,3.1 -0.5,2.1 -2.3,-1.2 -3.6,0.8 -1.6,-1.4 z"
     id="path14630"
     inkscape:connector-curvature="0"
     style="fill:#c5c7ca" />
  <path
     d="m 233.35898,280.90861 0.4,1.6 -1.8,2.5 -1.3,-2.3 0.7,-1.1 -2.4,-1.7 -3.5,2.6 1.2,1.9 -2.2,0.6 -2.2,-2.7 -2.7,-0.3 -0.1,0.7 0.9,-4.4 0.8,1.6 2.7,0.6 3.7,-2.2 4.2,0.9 z"
     id="path14632"
     inkscape:connector-curvature="0"
     style="fill:#c5c7ca" />
  <path
     d="m 409.45898,194.60861 -0.8,0.7 -3,0 0.6,-4.8 -1.7,-0.6 2.1,-7.5 -0.2,-3.1 1.4,0.5 3.8,-0.5 1,1.2 -1.5,2.3 -0.6,4 -1.2,0 1.3,2.1 -0.9,1.8 0.7,1.4 z"
     id="path14634"
     inkscape:connector-curvature="0"
     style="fill:#c5c7ca" />
  <path
     d="m 816.75898,321.90861 2.6,3.3 -1.6,0.1 -1.4,-2.3 z m -6.5,-3.9 -0.4,3.3 -4.3,2.7 -2.1,0.1 -3.1,-1.6 6.5,-0.8 1.9,-1.8 -0.3,-1.9 z m -28.8,14.2 0.2,-6.4 -0.2,-0.7 0.1,-0.2 0.1,-0.3 0,-0.1 0,-0.4 0.1,0 0.3,-10.7 7.5,3.5 1.2,0 3.1,2.8 -0.1,1.8 4.3,1.6 0.9,2 -2.2,0.2 0.8,2.2 1.6,1.6 1.7,3.1 4.6,3.4 0.1,0.9 -6.8,-1.3 -3.2,-3.2 -1.2,-2.8 -3.9,-1.3 -4,2.1 1.1,1.8 -2,1 z m 25.5,-18.8 2.8,1.9 2.7,2.9 -0.7,1.6 -1.3,-3.4 z"
     id="path14636"
     inkscape:connector-curvature="0"
     style="fill:#c5c7ca" />
  <path
     d="m 393.35898,270.20861 -0.4,0.1 0,0.7 0.3,1 -2.5,0.6 -0.9,1.6 -1,-2.6 -1.3,0.4 -1.8,-1.8 3.7,-1 3.8,0 z"
     id="path14638"
     inkscape:connector-curvature="0"
     style="fill:#c5c7ca" />
  <path
     d="m 555.25898,231.50861 -0.1,2.2 -1.2,0.2 -0.6,-2.7 0.6,-1.7 1.4,0.4 z"
     id="path14640"
     inkscape:connector-curvature="0"
     style="fill:#c5c7ca" />
  <path
     d="m 481.95898,159.00861 0.9,-0.5 4,1.4 2.1,-0.9 0.7,-0.1 1.2,-0.9 3.6,4.4 0.7,5.2 0.1,0.2 0.2,0.3 3.1,-0.1 0,1.6 -1.6,0.1 -0.8,3.6 -4,-1.3 -3.6,1.7 -6.1,-0.8 -0.5,-1.2 -3.2,-2.1 -2.8,-4.3 2.1,-0.6 2.5,-4.9 z"
     id="path14642"
     inkscape:connector-curvature="0"
     style="fill:#c5c7ca" />
  <path
     d="m 490.85898,158.00861 3,-0.4 0.1,0.1 3.2,2 1.9,4.1 0.4,0.6 -2.7,-0.3 0.1,1.6 -1.7,1.9 -0.7,-5.2 z"
     id="path14644"
     inkscape:connector-curvature="0"
     style="fill:#c5c7ca" />
  <path
     d="m 743.85898,279.20861 0.7,0.8 1,4.9 -1.3,1.2 -0.7,-1.5 -1,1.6 0.8,2.3 -0.7,1.3 -3.1,-1.8 -0.6,-4.2 -3.7,-0.3 -1.5,2 1,-2.8 2.5,-2 1.3,1.6 2.2,-2.3 1.9,-0.3 -0.4,-2.2 z m -6.4,-4.5 -0.9,2.8 0,2.3 -1.5,-1.3 0.8,-4.1 z m 1.1,-1 0.1,2.2 -1.5,1.1 z m -11.3,-0.6 0.6,2.4 -4.1,4.7 -2,1.6 5.1,-6.9 z m 12.9,0.1 0.7,-0.4 0.9,3.1 -1.2,0.5 -1.3,-4 z m -6.2,-1.4 2.4,1.8 -3,2.1 z m 5.5,-2.1 1.7,-0.2 1.5,4.2 -2.1,-1 0.5,-0.7 z m -2,0.5 -1.2,1.1 0.1,-1.9 z m -7.6,-3.4 2.1,1 -0.8,2.7 z m 0.3,-14.9 1.8,0.9 1.7,3.5 -0.7,2.5 -1.5,1 -0.3,1.7 1.1,3.3 1.4,0.8 0.4,-1.3 2,1 2.5,2.7 -0.1,1.5 -4,-4 0.2,2.3 -2.4,-2.3 -1,1 -1.7,-0.6 0.8,-2.2 -2.3,-0.7 -1,-4.5 1.5,0.5 -0.1,-6.9 z"
     id="path14646"
     inkscape:connector-curvature="0"
     style="fill:#c5c7ca" />
  <path
     d="m 260.35898,252.10861 2.7,0.2 0,1.3 -3.3,0.1 z"
     id="path14648"
     inkscape:connector-curvature="0"
     style="fill:#c5c7ca" />
  <path
     d="m 783.75898,168.00861 -3.7,1.8 3.3,-2.4 z m 12,-16.8 -1.2,0.5 0.9,-2.2 z m -27.8,3.1 -1.4,0.6 -0.2,4 3.3,4.9 -2.2,-0.4 -0.3,2.7 -1.2,-2.4 -0.6,-5.7 -1.2,-1.7 0,-2.5 -1.2,-3.8 -0.1,-2 -2.1,-2.8 -0.5,-4 -0.7,-1.3 1.6,-0.1 -0.5,-3.7 2.7,4.7 0.8,4.2 5.9,10.5 z m -287.2,-18 -7,-0.3 0.3,-1.9 2.2,-1.1 0.1,0 0.7,0.1 3.7,1.3 z m 325.2,-17.5 -1.8,1.8 0,-1.5 z M 31.158984,79.308614 l 7,5.1 0.9,1.3 -0.8,1.2 -0.2,3.3 1.2,-0.7 0.6,-2.2 1.2,-0.5 1.6,0.9 2.6,-0.2 0.3,1.4 2.7,2 -3,2.1 -3.7,0.2 -0.5,2 -2.7,1.6 1.2,0.5 -2.1,1.2 -4.8,-2.8 0.3,-2.1 -2,-0.6 -3.5,0.4 0.5,-2 -1.9,-0.7 -0.2,2.3 -2.4,2.2 7,-16.2 z m 507.199996,-1 -1.7,1.5 -2.7,-0.3 0.6,-2.3 1.5,-0.4 z m 261.5,-2.8 -0.9,1 -2.8,-1.2 0.8,-0.7 z m -241.9,-2 2.4,1.5 -0.4,1 -3.8,-1.7 0.7,-1.7 z m 261.8,-5.5 1.1,2.3 -2.3,0.9 -0.7,-1.8 z m -781.299996,-0.1 1.9,1.4 -1.5,0.9 -4.6,0.1 1.1,-2.3 z m 557.899996,-3.2 -1.9,0 1.2,-1.5 1.9,0.7 z m 108.9,-1.3 3.4,1.5 -0.8,0.7 -3.8,-1.6 z m 2.5,-0.5 -4.4,0.2 2.5,-0.6 z m -107.9,-0.1 -2.1,-0.4 1,-1.3 z m -52.8,-2.7 2.3,0.4 -1.1,2.1 -0.6,3.7 2.3,2.8 3.2,3 -4.9,0.2 -4,-1.4 1.1,-1.1 -3.4,-2 -1.5,0.5 -0.8,-2.7 1.8,0 0.7,-2.2 -1.1,-0.7 1.8,-0.6 -0.5,-1.3 3.8,-1.1 z m 33.7,-0.8 1.7,1.5 -3.8,0.6 0.4,-2 z m 121.4,0 1.5,0.1 3,2 -5.2,2.4 -0.2,-4.7 z m -6.1,-1 2.7,1.2 1,-0.4 1.7,2 -0.6,0.8 0.6,2.7 -7.6,-2.7 0.5,-1.3 -0.6,-2.2 z m 37.5,-0.7 3.3,1.6 0.6,1.3 -7.7,-0.6 1.5,-2.3 z m -2.6,-0.5 -2.4,-1 1.6,-0.3 z m -61.6,-2.3 1.7,0.5 -1,1.3 -2.9,-0.7 z m 72.1,-3.8 2.8,-0.4 5.9,1.3 -1.9,1.7 -3.2,-0.2 -5.4,-2 0,-1.5 z m -24.3,-0.2 -0.6,-2.2 1.3,1.1 z m 6.4,-3.2 4.4,2.1 0,-2.6 3.3,1.5 2.7,0 3.7,1.6 -1.4,2.1 -3.2,-0.4 -1.3,-1.1 0.3,-1.6 -1.3,0.3 1.7,2.6 2.3,0.3 -2.4,0.9 -0.7,-0.8 -5.7,1.6 -2.5,-0.6 -2.7,-1.6 -0.7,-3.8 2.5,-1.2 z m -151.6,-4.2 1.5,0.8 -0.8,2.4 -9.1,2.8 -0.4,-0.2 -5.6,2.6 -0.7,1.6 -2.3,1.7 -2.1,-0.7 1.2,1.6 -3.6,4.4 -3.9,-0.8 -3.1,-1.4 2.7,-1.9 0.8,-2.2 2.3,-1.3 0.4,-2 3.7,-2.2 4.4,-1 -0.1,-1 3.1,0.5 3.2,-0.7 4.6,-2.5 z m 170.6,134.799996 -0.4,-0.4 0,-0.6 -0.1,-0.1 -0.1,-0.2 -0.1,0 1.3,-0.9 -0.1,0 0,0 0,-0.1 0,-0.7 0.1,-0.3 0.1,-0.4 -0.1,-0.2 -0.4,-2 -0.2,-0.4 -0.9,-2 -0.1,0 -0.2,-0.2 -0.1,-0.1 0.5,-0.2 0.1,0 0.2,0 0,-0.1 0,0 0.1,-0.1 0.7,-0.4 0,-0.1 1.5,-0.2 0.6,0.2 1.4,-0.1 0,0 -0.1,-0.1 0,-0.1 -0.1,-0.1 0,-0.6 0.8,-1.8 0,0 0.3,-0.8 0.1,-0.2 -0.4,-0.8 0.1,-0.4 0.3,-1.7 0,0 -0.2,-0.5 0,-0.1 0.3,-0.6 0.1,0 0.7,-1 -0.1,-0.1 -0.6,-0.5 -0.2,-0.4 0.1,-0.1 0,-0.1 -0.5,-0.9 -0.1,-0.2 -2.2,1 -0.5,0 -1.5,1.3 -0.2,-0.1 0,0 -0.1,0 -0.3,0.2 -0.6,0.1 -1.6,-0.2 -0.1,0 -0.7,0 0,-0.3 -0.9,-1.1 0.1,-0.2 -0.9,-1.5 0.1,-0.6 0,-0.2 0,0 0,0 -0.2,0 -0.4,-0.2 -0.2,0.1 -0.3,0 -0.7,-0.5 -0.1,-0.2 -0.5,-0.4 -0.1,0 0,-0.1 -1.7,-0.5 -0.1,-0.1 -0.1,-0.1 -0.8,-0.5 -0.4,0 -1.6,0 -1.2,-1.5 -0.1,-0.2 0.1,0 0,-0.2 0.1,0 -0.7,-0.7 -0.3,-0.5 -0.2,-1 -0.4,-0.5 -0.9,-1.1 0,-0.2 -0.1,-0.2 0,0 0.1,0.2 0,0 -0.1,0 -0.1,0 -0.1,-0.3 0,0 -0.6,-1.4 -0.3,-0.2 -0.6,-0.9 0,0 0.2,-0.3 -0.1,-0.1 -0.1,0 -0.5,-0.3 0,-0.2 -0.9,-1 0,0 -0.3,-0.8 -0.1,0.1 -0.9,-0.4 0,-0.1 0.2,-0.1 -0.1,-0.2 -0.2,-0.3 -0.2,0 -2.6,-0.4 -0.2,-0.1 -0.6,-0.5 -0.1,0 -1.5,-0.7 -0.2,0 -0.6,0 -0.1,0 -2.7,0.5 -0.1,-0.1 0,0 -0.3,0.1 -0.2,0 -0.7,0.3 -0.3,0 -0.3,0.2 -0.1,-0.1 -1.7,1.6 -0.1,0.2 -0.3,0.1 0.1,0.4 0.1,0.2 0.1,0 1.5,0.7 -0.1,0.2 0.1,0.1 0,0 0.1,0.1 0.3,0.3 0,0.8 0,0.3 -1.2,1 -0.1,0.5 0.1,0.1 0,0.2 -1,3.3 0,0.2 -0.1,0.2 0.2,0 0.3,0 0,0.2 -0.1,1 -0.1,0 -1,0.2 0,0 -0.5,0.2 0,0.1 -0.5,0.6 -0.4,0.3 0,0 -0.5,0.3 -1.4,-0.4 -0.7,-0.3 -0.6,-0.4 -3.2,-0.3 -2.7,-1.2 -1,0.6 -0.8,0.3 -0.8,1.4 -3.5,0.9 -2,0.7 -5,-0.7 -1.8,-2.1 -1.8,-0.2 -1.4,-1.1 -3.4,-0.6 -3.7,1.2 -2,-0.6 -1.6,-1.5 -0.5,-1 -1.4,-1.5 -2.1,-0.6 -3,-1 -2,-0.9 -1.1,2.2 -0.7,1.8 1.3,1.6 -0.7,2.1 -0.9,0.8 -3.8,-0.9 -2.9,-0.1 -1.1,-1.8 -1.9,-0.3 -1.7,-0.6 -1.2,-0.1 -3,1.6 -4.4,3.3 -2.3,0.9 -1,0.3 -2.2,-2.5 -0.8,1.1 -2.2,-0.3 -0.9,-1.7 -1.9,-0.7 -1.3,-2.2 -5.6,0.5 -2.1,-2 -1.5,1.5 -6.2,-8.6 -3.5,-2.5 0.4,-1.7 -5.5,3.1 -2.4,0.1 0.5,-1.4 -3.4,-1.5 -2.2,1 0,-2 -1.4,-2.4 -2.7,-0.2 -3.4,0.6 0.1,0.8 -9.4,2.4 -4.5,1.3 -2.4,0.2 0.6,1.9 2.4,0.9 -3.2,1.4 1,1.4 -2,1.7 3.5,1.5 0,2.4 -3.4,-0.3 -0.3,1.1 -2.1,-0.5 -1.6,-1.7 -1.3,0.8 -2.9,-0.5 -1.8,1.9 -2.5,-1.7 -0.4,0.5 -2.8,-2.1 -2.1,0 -0.5,-1.1 -1.5,1.2 -2.2,-1 -0.8,1.5 -2.1,0.7 -1.6,1.8 0.7,2 -1.1,0.7 -2.1,-2.2 -1.5,2.1 0.5,2.6 -1.1,2.4 1.5,0.5 0.2,1.6 2.2,0.1 3.2,5 -2.2,2 -1.5,0 -1.7,3.6 2.2,3.3 -0.1,2.2 3,4 -1.5,2 -1.5,-0.4 -2.2,-1.9 -2.8,-2 -2,-0.8 -1.8,0.4 -2.3,-1.8 -3.1,-0.1 -3.5,-1.2 -0.3,0.7 -2.6,-2.6 -6,-3.6 2.2,-0.5 0.9,-2.3 1.4,-0.2 -1.9,-1.4 3.4,-2.5 -2.5,0.4 0.1,-1.7 1.3,-0.9 2,0.2 0.5,-1.6 -0.7,-1.7 0.9,-1.7 -1,-1 -4,-1.8 -1.8,-1.4 -1.8,0.9 -2.8,-1 -0.4,-1.9 -2.3,-0.8 0,-1.8 -1.6,-2.2 -3.5,0.2 -1.2,0.8 -1.2,-4 2.1,0.3 0.2,-2.2 -1.6,-0.3 -2.5,-3.7 0.4,-0.7 -0.4,-1.1 -0.6,-1.5 -4.5,-1 -0.9,-0.2 -1.4,-4.7 -1.2,-0.8 1,-1.3 -1.1,-3.4 1.2,-2.6 4.1,-2.6 -3,-0.9 0.3,-1.3 -2.1,0.6 4,-3.8 3.3,-3.8 0.6,-1.6 -3.8,-3.3 1.3,-1.199996 -1.4,-1.5 -1.1,-3.5 1,-1.6 -2.7,-5.3 1.9,-3.1 -3.2,-2.1 -0.6,-1.4 1,-2.2 2.5,-2.6 1.4,-0.5 2,0.4 0.6,-1.2 2.5,1 0.4,2 2.4,-0.2 3.6,0.6 4.3,2.2 6.2,3.8 1.3,0.4 0.8,3.4 -1.7,1.8 -3.9,1.4 -7.2,-1.4 -4.4,-1.3 -2.9,-1.7 2.6,3.4 2.9,0.9 1,6.3 3.5,2.1 2.9,0.699996 1,-0.499996 -0.6,-1.8 -1.4,0 -1.8,-2.1 1.2,-1.1 5.9,2.6 2.1,0.1 -2.1,-3.5 2,-2.2 1.5,-0.5 1.7,-1.9 2.4,0.4 1.9,1.5 0.6,-3.7 -1.7,-1 0.6,-4.4 -2.2,-1.4 5.7,0.5 2.1,2.3 -3,0.8 -0.7,1.5 2.7,2.2 3.6,-0.7 0.3,-2.7 1.9,-0.2 3.4,-2.3 3.6,-1.3 2.2,-1.3 1.4,0 0.3,2 1.4,0.4 2.9,-1.5 3.2,0.4 2.9,-1.8 1.5,1 -0.6,1.3 3.8,-2 -2,-3.1 1.3,-0.9 5.8,0.9 8.6,3.7 3.4,2.3 1,-2.7 -1.5,-0.5 -1.5,-2.2 -2.2,-0.8 -0.5,-1.3 0.5,-3.4 -1.4,0.1 0,-2.3 3.1,-2.3 0.4,-3.8 1.3,-0.9 4.2,-0.2 2.8,0.9 0.5,2 -1.6,3.6 1.9,1.2 1,3.2 0.9,6.6 2.5,1.7 -1,1.1 0.4,1.5 -1,1 -1.8,4.1 -1.8,0.6 -1.9,-1.4 -2.1,0.2 1.1,1.2 2.5,0.7 4.3,0.1 0,-1.2 2.9,-1.7 -0.2,-1.2 1.5,-1.6 -1.3,-4.3 4.3,-1.2 2.2,2 0.2,3.2 1.6,0.8 2.8,0 -3.7,-0.9 1.1,-2 -1.5,-2.6 -3.9,-1.6 -2.7,0.7 -2.4,-0.5 -0.9,-2.4 1.2,-3.3 -2.3,-3.1 -1.3,-0.8 0.8,-1.7 2.9,-1.3 -0.9,-3.2 1.6,0.4 0.6,1.9 -0.5,2.3 0.4,1.9 5.7,0.9 -3.5,-1.8 -0.8,-1.4 1.8,-0.7 2.7,0.7 -0.9,-1.9 3.3,-0.3 3.3,1.3 2,1.7 3.7,0.1 -1.9,1.7 2.2,1.7 0.2,2.5 1.6,-0.6 -2.1,-3.4 0.8,-1.4 -0.8,-1.2 -2.8,-1.1 -0.2,-0.8 -3.5,-1.2 -0.3,-2.2 -1.3,-0.6 0.3,-1.8 6.3,-0.4 6.8,-1.1 -0.7,1.5 2,-1.2 -3.3,-2.6 2.4,0.2 -3.2,-1.2 2,0.1 4.5,-4.1 5,-0.6 3.4,-0.9 -1.2,-1 6.9,-0.3 -0.7,0.8 6,-1.5 2.4,1.1 -2.4,-2.3 3.2,0.2 1.4,-1.4 -0.5,-1.5 3.6,-2.7 1.6,-0.4 4.1,0.9 -0.3,1.4 -2.8,0.8 3.8,-0.2 3.6,1.1 -1.9,1.8 3.2,-0.1 -0.2,-0.9 5.6,-0.1 2.2,0.3 4.1,2 2,1.9 -1.1,0.9 1.2,1.7 -8,5.7 -1.4,1.7 -2.3,0.2 -1.9,1.5 4,0.4 4.5,-1.4 -0.5,-2.4 4.4,1.4 1.8,-0.4 0.9,1.7 4.2,-1.2 7.5,0.6 0.1,1.6 3.2,0.8 4.7,0.5 6.4,1.3 2.5,1.3 1.5,-0.1 2.4,2.2 -1.7,-2.4 2.2,0.3 2.9,2.4 1.4,0.2 0.7,1.7 4.9,2.7 0.5,-0.6 0.8,-4.4 2.7,1.8 2.2,0.5 2.7,-1.2 4.7,1.8 0.1,-1.4 4.3,0.2 -1.3,-3 -1.8,-0.2 0.7,-1.2 3,-0.3 -1.2,-1.5 3.8,0.9 7.1,0.7 3.4,0.9 -4.3,-0.4 -0.8,1.1 3.2,-0.1 1.1,1.8 1.6,-2.4 5.7,1 1.1,0.8 -1.7,1 1.9,0.2 4.2,1.6 3,2 6.6,-1.1 4.6,0.1 4.5,1.7 1.7,1.8 -0.3,1.5 3.1,1.1 1.1,2.3 1.6,0.8 -1.1,-2 1.3,-1.1 3.7,-0.5 1.1,0.6 5.8,0.5 1.4,-1.1 1.9,2.1 2.8,0.8 1,1.3 2.8,-1.1 -3.4,-4.7 6.5,1.2 6.4,-0.2 2.5,1.2 5.7,1.5 2.1,1.2 7,16.2 -2.2,1.7 -5.5,-0.8 1.2,1.2 1.4,-0.8 0.4,1.4 2.1,0.2 2.7,3.699996 3,2.9 -0.5,1.5 -5.1,-1 -4.7,3 -1,-0.1 -2.6,3.3 -3.1,2.2 0.1,1.8 -3.2,-2.2 -3,-0.1 -2,0.9 -1.4,1.9 -0.5,-2.1 -2.1,1.1 -3.3,0.2 -1.3,7.6 3.5,1.1 -0.8,1.5 0.9,2 2,2.3 -2.9,0.5 -0.1,1.6 1.9,2.8 -0.5,1.3 -2.5,-0.1 -1.2,1.5 0.1,3.1 -1.9,1.2 0.2,3.6 -2.6,3.7 -2,-4.6 -1.5,-2.4 -4,-8.9 -0.7,-5.3 1.5,-2.5 -0.7,-1.2 2.7,-1.1 2.4,-3.2 0.1,-1.2 3.1,-4.1 -0.2,-0.7 2.8,-2.2 0.7,-1.4 -1.1,-3.5 2.4,-0.9 -2.6,-0.9 -2.2,0.6 0.9,4.1 -1.6,-0.7 -3.6,4.3 -0.1,-1.8 -1.2,0.4 -0.1,-3.9 -1.5,1.1 -0.7,-0.9 -4.1,0.3 -1.5,1.1 0.4,1.2 -3.8,5.2 3,2.6 -2.3,0.6 -1.9,-0.7 -4.2,1.5 -0.9,-1 2.2,-0.2 -2,-1.6 -1.4,0.3 -2.9,-1.1 -0.9,2 -7.2,-0.6 -6.1,0.1 -2.4,1.6 -2.1,2.8 0,1.5 -3.4,3.1 -2,4 -3.8,3.9 1.5,1 2.5,-0.2 0.4,2.7 0.7,-0.9 2.1,0.7 -0.7,1.5 2.5,-1 -0.2,-1.8 2.6,0.3 3.4,2.9 1.4,0.5 0.1,3 1.1,1.1 -0.8,1.9 -0.1,3.8 1.2,3.4 0.1,4 -1.6,2.1 -2.2,6.9 -3.1,4.7 -1.2,3.1 -2.4,2 -2.1,0.7 -3.3,-2.2 z m -100.3,-146.199996 0.2,1.5 2.3,-0.4 2.8,1.5 0.8,1.4 -1,0.9 -7.4,0.8 -3.3,1 0.8,-3.3 2.4,-3.5 z m -25.5,-3.5 3.6,0.2 2,0.9 -2.2,0.9 -3.2,-0.9 z m 13.3,-0.5 3.6,0.6 2,1.3 -0.6,2.6 1.4,1.5 -2.6,0.7 -4.3,-1 -3.5,-0.2 -1.9,-2 -2.3,-0.5 2.9,-2.7 z m -84.2,-0.9 0,1.4 -2.7,-0.2 0.4,-1.1 z m 1.7,-0.7 2.5,0.5 -3.7,1.1 -0.8,-1.5 z m -21,-1.5 -3.5,1.8 -2.7,-1 z m 29.5,-0.1 -2.2,2.1 -3.7,-0.7 0.7,-1.5 z m -24.9,-0.2 1.4,-0.3 2,1.2 -5.9,1.5 0.6,1.1 -2.9,0.3 -2.2,-1.1 3.5,-1.3 1.7,0.2 -0.3,-1.3 z m 12.4,-1.3 4.3,1 -1.1,0.3 z m -3.1,0 6.1,1.4 -1.1,0.7 -4.8,-1.6 z m 13,1 -2,-0.5 3.2,-0.5 z m 9.2,-0.6 -0.8,1.1 -3.6,0.6 -1.6,-0.5 4.5,-2 z m 62.6,-0.9 4.8,2.6 -1.6,0.1 0.6,2.2 -3.3,0.2 -3.6,1 -5.2,-1.7 2.5,-0.9 -0.8,-1.2 1.7,-1.4 z m -79.4,-0.5 -1.8,0.7 -2.3,-0.7 z m 0.6,-1.1 1.6,0.6 -3.7,-0.1 z"
     id="path14650"
     inkscape:connector-curvature="0"
     style="fill:#c5c7ca" />
  <path
     d="m 500.55898,313.80861 -0.2,-0.2 0,0 0.4,-2.4 1.2,-1.3 2.2,-1 1,3 -0.1,0.7 -0.7,0.2 -1.5,-0.3 -0.3,1.3 z"
     id="path14652"
     inkscape:connector-curvature="0"
     style="fill:#c5c7ca" />
  <path
     d="m 541.25898,220.20861 1.1,0 2.3,0.3 0.6,1.4 1.8,0 1.2,2.8 2.9,2.3 0.2,2.6 2.6,4.3 1.6,1 2.6,4 6.6,0.7 1.3,2.1 -1.5,5.9 -7.3,3 -8,2.2 -5.8,7.8 -0.1,-3.1 -4.7,-2.1 -3.2,0.1 0.1,2 -1,0.9 -1.4,-3.2 -1.5,-1.5 -2,-4.4 -3.3,-2.9 -1.5,-2.6 -0.2,-3.9 -1.6,-3.5 -3.4,-3.2 0.3,-1 -5.1,-8.2 -1.7,-1 0.6,-3.6 2.8,0.5 1.5,-2.1 1.9,-0.4 1.2,-1.5 -2.6,-3.2 5.3,-2 2.9,0.6 4.3,2.7 6.8,5.9 z"
     id="path14654"
     inkscape:connector-curvature="0"
     style="fill:#c5c7ca" />
  <path
     d="m 504.15898,370.90861 1.2,0.4 1.6,6.1 -0.2,4.6 -2.2,0.1 -0.8,1.4 0.9,2.3 2,0.3 0.2,-1.5 0.2,0 1.8,0.1 -1.3,5.1 -3.1,3.1 -2.1,4.1 -4.7,5.3 -3.7,3 -3.5,0.9 -2.1,1.3 -2.9,-0.7 -3.7,0.3 -0.6,0.8 -3.3,0.3 -1.4,1.2 -4,-2.5 0.2,-1.1 -1.3,-2.6 1.2,-1.7 -0.3,-2 -2.2,-4 -1.8,-5.5 1.5,-1.7 0.8,2.1 1.9,0.6 2.6,-0.2 0.1,-0.3 1.8,-1 0.2,-11.1 1.8,3.2 0.1,0.2 -0.2,3 1.8,-0.2 0.1,0.1 2.9,-2.6 0.7,-1.8 1.3,-0.4 2,1.2 0.3,0.3 3,-0.4 0.7,-2.7 2.6,-1.5 0.3,-1.7 0,-0.1 1.5,-1 0.3,-0.4 1.3,-1.5 1.9,-0.7 0.1,-0.2 1.8,-0.7 z m -6.6,19.4 -0.7,0.4 -2.6,2.6 0,0.1 0.3,0.8 0.3,0.3 1,1.7 1.6,-1.4 1.9,-1 0,0 0,-0.1 0.3,-0.5 0.2,-0.6 -1.6,-2.6 z"
     id="path14656"
     inkscape:connector-curvature="0"
     style="fill:#c5c7ca" />
  <path
     d="m 494.85898,394.50861 -0.3,-0.3 -0.3,-0.8 0,-0.1 2.6,-2.6 0.7,-0.4 0.7,-0.3 1.6,2.6 -0.2,0.6 -0.3,0.5 0,0.1 0,0 -1.9,1 -1.6,1.4 z"
     id="path14658"
     inkscape:connector-curvature="0"
     style="fill:#c5c7ca" />
  <path
     d="m 487.95898,381.40861 -0.3,-0.3 -2,-1.2 -1.3,0.4 -0.7,1.8 -2.9,2.6 -0.1,-0.1 -1.8,0.2 0.2,-3 -0.1,-0.2 -1.8,-3.2 0.1,-8.3 2.6,0 0.1,-11 5.8,-0.9 1,1.2 1.6,-1.3 2.3,-0.5 2.1,5 3.8,3 0.7,3.2 2.6,0.8 0.7,1 -0.9,0.6 -0.1,0.2 -1.9,0.7 -1.3,1.5 -0.3,0.4 -1.5,1 0,0.1 -0.3,1.7 -2.6,1.5 -0.7,2.7 z"
     id="path14660"
     inkscape:connector-curvature="0"
     style="fill:#c5c7ca" />
  <path
     d="m 387.25898,257.90861 4.4,-0.3 1.4,1.5 1.8,1.9 0.6,0.5 -0.2,0.1 1.7,1.5 2.1,6.9 -2.4,0.3 -3.4,-1.1 -3.8,0 -3.7,1 -0.2,-2.1 2.4,-0.3 1.8,-1.3 3,0.8 -2.4,-1.3 -4.2,0.5 -1.6,-3.1 z"
     id="path14662"
     inkscape:connector-curvature="0"
     style="fill:#c5c7ca" />
  <path
     d="m 460.25898,163.90861 2,0.4 3.7,-1.6 1.2,1.4 -2.2,0.8 -0.8,2.7 -2,-0.3 -1.3,-0.3 -1.3,-2.3 z"
     id="path14664"
     inkscape:connector-curvature="0"
     style="fill:#c5c7ca" />
  <path
     d="m 399.55898,277.00861 2.2,4.4 -0.8,2 -2.1,2.5 -2.7,-1.4 -1.6,-2.3 -0.1,-2.5 0.4,0 0.2,-0.6 1.9,-1.9 z"
     id="path14666"
     inkscape:connector-curvature="0"
     style="fill:#c5c7ca" />
  <path
     d="m 535.25898,274.10861 0.7,-1.4 2.6,3 1.9,0 2,-1.2 2.2,0.3 2,-1.3 1.6,0.2 4.9,-1.1 1.6,-1.4 1.3,0.5 -0.9,6.9 -3.6,6.9 -0.8,2.6 -2.5,4.7 -5.4,6.3 -3.3,2.3 -2.7,2.6 -3.8,4.8 -1,1.9 -1.4,-2.3 0,-2.5 -0.1,-8.2 2.4,-3.3 5.1,-2.8 2.5,0.1 7.5,-8.9 -2.5,0 -7.5,-2.9 -1.5,-1.2 -2,-3.5 z"
     id="path14668"
     inkscape:connector-curvature="0"
     style="fill:#c5c7ca" />
  <path
     d="m 435.45898,186.60861 -0.5,1.5 -1.6,-1.2 z m -12.2,-12 0.7,0.9 7.1,1.6 0.7,0.3 3.5,0.3 0,1.8 -2.5,1.9 -2.7,0.8 -3.4,5.3 1.4,2.3 -1.7,1.3 -0.9,2 -2,1.2 -1.1,2 -5.6,0 -2.9,2.3 -1.8,-2.8 -2.6,-1.2 1,-2.5 -0.7,-1.4 0.9,-1.8 -1.3,-2.1 1.2,0 0.6,-4 1.5,-2.3 -1,-1.2 -3.8,0.5 -1.4,-0.5 -1.1,-4 3.3,-2.1 1.5,0.7 7.3,0.6 z"
     id="path14670"
     inkscape:connector-curvature="0"
     style="fill:#c5c7ca" />
  <path
     d="m 519.35898,241.70861 0.9,5.9 0.9,3.8 2.8,2.2 -0.9,1.4 -3.1,1.3 0,2.3 -1.3,3.4 0.4,2.6 -0.9,4 -1.2,0.6 -1.5,2.6 -0.2,2.7 -1.5,0.7 -1,6.3 -1.1,-0.1 -1.1,2 1.7,0.4 2.7,3 0.8,2.8 1.9,1.4 -0.1,0.2 0.3,1.4 -3.8,0 -1,1.1 -1.2,1.4 -2.2,0 -4.3,0.2 -0.3,0.5 -2.6,-3.1 -3.6,0.8 -2.3,-2.1 -0.4,-0.6 -0.1,-0.3 -0.4,-1.3 -1.6,-0.8 -0.2,-1.7 -2.9,-2.8 -2.7,-3.1 -1.6,-0.4 -0.3,-0.5 0.6,-2.6 -2.6,-4.7 -0.2,-0.3 -0.9,-3.3 -0.7,0.3 1,-4 1.8,-5 1.7,-0.1 0.5,0.1 -0.2,-12.7 2.5,0 -0.1,-5.9 z"
     id="path14672"
     inkscape:connector-curvature="0"
     style="fill:#c5c7ca" />
  <path
     d="m 469.75898,127.00861 -0.4,-2.4 2.1,-1.4 -0.7,2.5 z m 11.9,-34.799996 -4.1,-0.2 -2.3,3.7 0.9,2.1 -2.5,2.999996 -2,0.6 -4.4,5.2 -0.5,3.1 0.3,2.9 1.5,0.3 2.2,3.1 -1.2,1.6 -3.3,-0.8 3.4,1.8 -3.4,2 -0.1,3.3 -0.7,3.7 -1,2.4 -2.8,-0.3 -1.1,2.9 -2.8,-0.1 -1.4,-3.3 1.2,-0.8 -1.4,-1.5 -1.6,-3.5 0.4,-1.3 -1.6,-0.8 0.4,-2.2 0.8,-3.3 1.6,-0.8 0.2,-1.8 -0.9,-1.8 1.4,-1.4 -1.7,-1.4 0.3,-2.2 -0.9,-4 1.5,-2.599996 3,-0.3 0.2,-1.8 -1,-0.5 1.8,-3 -0.1,-3.3 1.8,-1.4 2.3,-2.8 -0.7,-1.1 2.5,-2.8 1.3,0.6 0.4,-2.4 4.1,0.7 1.3,-3 3.4,2.5 1.7,0.3 1.9,1.8 -0.3,2.1 1.4,2.8 -0.7,1.3 z"
     id="path14674"
     inkscape:connector-curvature="0"
     style="fill:#c5c7ca" />
  <path
     d="m 530.65898,195.10861 -2.2,1.8 0,5.6 -0.6,1.1 -5.2,3.3 -4.7,3.3 -3,-1.2 0,-1.6 0,-0.1 2.2,-3 -1.6,-1.4 0.2,-3.8 1.2,-1.2 -0.1,-1.9 3,0.1 4.7,0.1 2.1,-1.1 3.8,-0.6 0.2,0.5 z"
     id="path14676"
     inkscape:connector-curvature="0"
     style="fill:#c5c7ca" />
  <path
     d="m 450.25898,160.40861 0,1 0.2,0.7 2.1,0.6 0,1 -2.8,0.9 -0.8,1.6 -1.6,-1.9 -1,1.7 -1.8,0.1 -0.8,-1.9 -1.6,-0.5 2,-3.1 3.5,-0.2 0.3,-0.9 z"
     id="path14678"
     inkscape:connector-curvature="0"
     style="fill:#c5c7ca" />
  <path
     d="m 274.75898,274.70861 -0.3,1.9 -1.6,-1.7 z"
     id="path14680"
     inkscape:connector-curvature="0"
     style="fill:#c5c7ca" />
  <path
     d="m 676.95898,246.60861 0.8,0.3 0.3,1.1 0,0.1 0.1,1 1.7,-0.2 0,3.5 0.2,0.9 -0.4,1.4 -0.1,0.1 1.4,-0.5 1.4,-1.3 1.6,1.1 1.3,-1.7 0.9,0 0.9,0.2 0.7,1 1.2,1.4 0.4,0.3 0.7,3.4 1.7,1.8 -0.2,3.5 -0.7,0.3 -5.1,0.1 -1.8,3.1 1.6,4.7 -0.4,-1.1 -2.6,-2 -2.3,0.1 0.2,-2.3 -2.3,0.1 0.1,3.6 -2,5.3 0.5,3.4 1.4,-0.3 1.1,2.9 -0.1,2.3 2.2,1.9 1.2,0 1.5,1.8 -0.6,1.4 -1.8,0.3 0,-1.7 -2.4,-1.4 -0.2,0.9 -3.9,-5.7 -0.8,0.3 0,-2.7 0.9,-3.3 2.1,-4.3 -1.5,-3.6 0.1,-1.9 -2.5,-3.2 0.9,-4.4 -0.6,-1.6 -2.1,-2.5 -0.4,-3.7 0.7,-2.5 2.4,0 1.1,-1.7 z"
     id="path14682"
     inkscape:connector-curvature="0"
     style="fill:#c5c7ca" />
  <path
     d="m 609.95898,194.60861 -4,-0.7 -3.3,2.5 -1.2,-1.3 0.2,-2.6 -1.7,-1.9 -3.2,2.9 -0.6,1.6 -3.6,-0.3 1.2,-3.2 -0.9,-2.7 -1.9,-0.6 0.8,-1.4 1.9,0.2 -0.1,-2 1.8,-0.1 2.5,-2.7 -0.1,2 1.6,0.6 -3.9,0.8 0.2,1.6 5.1,-0.4 1,1.1 4.3,-0.6 0.6,1.7 1.4,0.9 1.4,2 z"
     id="path14684"
     inkscape:connector-curvature="0"
     style="fill:#c5c7ca" />
  <path
     d="m 431.65898,287.90861 -1.1,0.4 -1.2,-1.2 -0.5,-2.7 0.5,-2.4 -1.2,-3.3 0.3,-2.5 -1.3,-2.5 2.7,0.4 -0.4,1.8 1.5,1.1 0.7,2.8 z"
     id="path14686"
     inkscape:connector-curvature="0"
     style="fill:#c5c7ca" />
  <path
     d="m 454.15898,211.10861 -1.7,1.9 0.4,1.6 -1.9,2.1 -1.1,-5.8 -3.3,-3.5 -0.6,-2.8 1.3,-1.3 0.5,-0.4 0.2,-5.8 1.6,-2.2 2.4,-0.3 0.9,1.7 1.6,-1.2 -1.3,2.4 1.6,3.5 -2.7,3.4 1.2,1.7 2.5,1.4 0.2,2.2 z"
     id="path14688"
     inkscape:connector-curvature="0"
     style="fill:#c5c7ca" />
  <path
     d="m 530.05898,181.00861 0.9,-0.5 1.6,1.6 0.7,3.3 2.8,1.2 0.1,0.3 -1.8,0.8 0.7,4.8 1.5,2.4 -4.9,-0.8 -1,0.9 -0.2,-0.5 -3.8,0.6 -2.1,1.1 -4.7,-0.1 -3,-0.1 0.1,1.9 -1.2,1.2 -0.9,-1.5 0.5,-2 -1.6,1.3 -1.5,-0.9 -2.5,2 -2.5,0.5 -1.5,-1.5 -3.4,-1.2 -0.4,1.8 -2,0.6 -3.4,-2.9 -2.7,-0.1 0,-2.9 -2.4,-1 1.9,-0.4 -2.5,-5 1.3,-1.5 2.5,-0.5 3.1,0.6 1.1,-1.2 -0.8,-1.7 5,0.5 2.4,-2 2.4,-1 6.4,0.9 1.3,1.6 4.8,1.1 2.5,-0.6 1.6,0.6 3.3,-2 z m -39.5,2.3 1.2,-2 -0.6,-1.2 -0.1,-0.1 2.2,-1.2 1.9,0.4 0.5,1.5 2.2,0.9 -0.6,1 -3.2,-0.2 -1.6,1.4 z"
     id="path14690"
     inkscape:connector-curvature="0"
     style="fill:#c5c7ca" />
  <path
     d="m 573.25898,181.40861 0.4,0.3 2.8,-0.1 0.8,0.7 1.8,3.6 4.5,3.1 0.5,0.4 3,2 2.6,0.8 -0.2,2 -1,-0.2 -3.1,1 -0.3,1.6 -0.2,1.2 -3.2,1.2 0,1.4 -1.8,0.7 -2.7,-1.3 -0.6,-3.3 -1.9,0 -2.6,-2.7 -4.9,-1.4 -0.5,-1.1 -4.3,0.6 -1.5,1.8 -2.1,0.6 -0.2,-5 -2.2,-1.5 0.9,-2 -2,-0.3 0.7,-2.3 3.1,0.3 0.8,-1.4 -1.7,-1.2 -0.6,-1.9 -2.3,0.2 -0.2,1.9 -1,-1.1 1.3,-1.3 2.8,-0.7 3.6,3.6 1,-0.3 1.7,0.2 0.9,-2.3 2.9,-1.4 0.4,-1.3 3.3,1.6 z"
     id="path14692"
     inkscape:connector-curvature="0"
     style="fill:#c5c7ca" />
  <path
     d="m 511.65898,308.80861 1.2,0 9.4,5.9 -0.1,1.2 3.9,3.4 -1.1,4 1.9,3 -0.5,4.7 1.2,3.7 1.4,1.5 -3,2 -2.9,0.2 -1.6,1.4 -3.2,-0.1 -0.8,-0.8 -2.3,0.4 -0.8,-1.3 -0.2,-3.1 -3.9,-1.9 -0.5,-0.2 -1.2,-0.5 -0.3,-0.3 -0.5,-0.1 -0.7,-0.3 -0.2,-0.4 -2,-1.7 -1.2,-3 -1.4,-1.6 -0.9,-4.9 0.1,-1.3 2.5,-1.9 0,-0.3 0.7,-0.9 -0.1,0 0,-0.1 0.5,-0.7 -1,-0.7 1,-1.5 0.1,-0.7 -1,-3 z"
     id="path14694"
     inkscape:connector-curvature="0"
     style="fill:#c5c7ca" />
  <path
     d="m 513.15898,293.70861 0.9,2.4 0.4,1.1 0.3,0.4 0.2,0.5 0.3,0.8 0,2.5 -2.4,4.2 0,3.2 -1.2,0 -7.5,0.1 -2.2,1 1,-6.5 3,-3.3 -1.1,-1.3 0.3,-3.1 0.2,-0.4 4.3,-0.2 2.2,0 z"
     id="path14696"
     inkscape:connector-curvature="0"
     style="fill:#c5c7ca" />
  <path
     d="m 412.95898,137.30861 -1.8,-1.2 -0.7,1.1 -1.9,-1.2 2.1,-2.3 2.6,-0.5 1.7,2.7 z m 0.4,-12.9 0.5,2.1 -2,-1.6 z m -0.1,-2.9 -0.6,1.6 -1.3,-1.2 z m 4.5,19 2.8,-0.6 0.4,-3.1 -1.9,-1 0.6,-1.3 -2.6,0.6 -1.5,-1.1 1.2,-1.7 -1.6,-1.7 -1.1,2.2 1,-4.7 -1.9,-0.6 1,-2.2 0,-1.9 1.7,-0.1 -0.7,-1.4 0.9,-1.4 4.5,-0.1 -0.4,1.3 -2.1,1.7 -0.3,1.3 1.7,-0.8 3.6,0.2 0.4,0.8 -1.8,3.3 -0.2,1.9 2.3,1.7 1.1,3.5 2.5,2 1.1,4.7 0.7,-0.7 2.2,0.8 -0.1,2.4 -2.3,2.5 1.8,0.9 -2.6,1.4 -3.3,-0.3 -5.5,1 -0.4,1.1 -2.7,-0.3 -1.6,0.7 3,-3.8 2.7,0 0.9,-1.3 -2,0.6 -4.1,-1.7 2.5,-1.3 z"
     id="path14698"
     inkscape:connector-curvature="0"
     style="fill:#c5c7ca" />
  <path
     d="m 518.65898,161.90861 -1.7,0.1 -3.8,1.5 -2.7,1.6 1.2,2.9 3.4,-0.3 -0.2,1.2 -2.3,-0.2 -3.6,2.5 -1.4,-0.7 0,-2 -2.2,-0.6 2.9,-1.9 -0.5,-0.8 -2.5,0.3 -1.9,-0.8 0.3,-1.2 -2.5,0.4 -2.7,3.5 -3,0.7 -0.2,-0.3 1.6,-2.1 -0.1,-1.6 2.7,0.3 -0.4,-0.6 -1.9,-4.1 -3.2,-2 -0.1,-0.1 -2.9,0.1 -1.3,1.2 -0.7,0.1 -2.1,0.9 -4,-1.4 -0.9,0.5 -1.8,-2.1 1.4,-3.9 2.9,-3.1 0,-1.1 -1.2,-2.7 3.2,-1 4.5,0.6 2.8,0.6 4.8,0.4 1,0.8 0.8,-2.7 2,-0.3 1.2,-0.8 3.5,-0.2 1.6,2.2 0,1.8 2.3,0.8 0.4,1.9 2.8,1 1.8,-0.9 1.8,1.4 4,1.8 1,1 -0.9,1.7 0.7,1.7 -0.5,1.6 -2,-0.2 -1.3,0.9 z"
     id="path14700"
     inkscape:connector-curvature="0"
     style="fill:#c5c7ca" />
  <path
     d="m 240.05898,247.90861 0.1,-0.1 -0.1,0.1 z m 0.2,-0.1 0.1,0.1 -0.1,-0.1 z m -199.199996,1.8 -1.8,1.2 -0.7,-2.4 0.7,-1.6 2.4,2.2 z m 211.899996,-67.6 -0.8,1 -3.6,0.8 1.1,-1.1 z m -117.3,-26.6 0.1,0 -0.1,0 z m 67.2,-0.7 0,0.2 0.1,0.5 0,0.1 0.9,0.9 0,0.1 0,0.1 0,0 0.1,0 0.3,0.1 0.5,0 0.4,0.4 0.5,-0.1 0.1,0 0,-0.1 2.6,0.8 0.1,0 1.8,1 1.2,-0.7 0.2,0 1.6,0.4 0.2,0.1 1.6,0.4 1.9,-0.9 1.1,0 5.3,3.4 0.8,0.5 1.1,1 0,0.3 0.8,0.8 0.6,-0.1 0.1,0 0,0 0.5,1.4 0.6,0 0.9,1.8 0.4,0.2 0.9,0.6 0.2,6 -1.1,2.2 -0.1,0.3 -0.1,0.3 -0.1,0.4 -0.2,0.2 -1.6,1.8 0.1,0.5 0.8,0.6 5.6,-2.1 1,-0.3 3,-1.6 0,-0.1 -0.1,-0.2 0,0 -0.1,-0.4 0.1,-0.1 0.9,-1.7 4.6,0 2.6,-2.6 0.1,-0.1 1.2,-1.2 0.3,-0.2 1.1,-0.5 0.1,0 0.1,0 1.3,0 1.4,0 2.7,0 0.6,0 1.9,-0.2 0,0 0.7,-0.7 0.1,0 2.4,-2.5 0.2,-0.6 0.4,-0.7 0.1,-0.1 0.2,-0.6 0.2,-0.4 2,-2.6 0.4,0.5 0,0.1 0.1,0.1 0.1,0.1 0.2,0.2 0.2,-0.2 2.2,0.4 0.2,0.1 -0.6,4.7 0.8,0.4 0,0.2 -0.1,0.1 0,0 -0.1,0.7 0,0.1 0.3,0.4 0,0 0.2,-0.2 0.6,1.3 -4.6,1.7 -1.9,1.6 -1.6,0.2 -2.7,4.7 1,1.9 1.4,0.4 -7.2,1.4 -3.4,2 0,2.8 -2.2,2.7 -1.5,-1.7 0.8,3.4 -2.6,4.1 0.6,-4 -1,-1.5 0.9,-2.3 -1.4,1 0.4,4.5 -0.6,3.2 0.8,1.9 -2.1,1.1 2.2,-0.2 0.2,1.2 -2,1 0.4,1.1 -3.6,1.9 -0.8,1.4 -1.6,0.1 -3.8,4 -2.4,1.7 -1.9,3.8 0.4,3.2 1.2,3.7 -0.4,0.6 1.4,4.9 -1.3,4.7 -1.7,0.4 -0.5,-2.1 -2.3,-3.5 -0.9,-2.7 0.8,-3 -2.2,-3.2 -1.5,-0.7 -1.5,1.1 -3.3,-2.3 -4,0.8 -2.3,-0.6 -2.1,0.8 -0.4,1.6 1.7,1.4 -2.4,-0.7 -1.8,0.9 -2.1,-1.9 -1.6,0.6 -2.1,-0.7 -3.4,0.6 -3.1,2.5 -2.9,0.9 -2.5,4.5 0.9,3.1 -1,0.3 -3.8,-1.7 -0.6,-3.4 -1.8,-2.2 -0.6,-2.6 -1.6,-2 -3.2,0.1 -1.4,2.3 -3.2,-2.1 -0.5,-2.8 -3.2,-3.6 -4.4,-0.2 -0.2,1.5 -7,0 -8.8,-3.7 0.3,-0.6 -5.9,0.5 -0.6,-2.5 -2.2,-2.2 -2.3,-1.2 -2.1,-0.1 -0.1,-2.2 -2.5,-3.7 0.5,-1.6 -1.3,-1.2 0,-2.1 -2.2,-3.6 0.2,-3 -0.9,-1.2 1.4,-4 -0.3,-4.5 1.6,-3.2 2.8,-9.9 -0.4,-0.6 -0.4,-5.2 4.3,1 0.7,2.5 0.6,-4.1 -0.4,-1.5 6.8,0 1.4,0 0.7,0 7.7,0 0.4,0 3.6,0 1.1,0 6.9,0 0.7,0 3.6,0 0.7,0 10,0 0.7,0 1.2,0 11.1,0 1.4,0 7.4,0 0.1,-0.6 0.1,-0.7 z m -164.899996,-16.4 0.6,0.5 -3.3,1.4 z m 8.7,-3.9 -0.7,1 -3.1,0.8 1.5,-1.9 z m 76.399996,-3.4 -0.9,2.3 -1.3,-1 1.2,-1.7 z m -5.2,-1.9 0.7,0 1.6,3 -0.5,3 -2,-3.8 z m -0.6,-2 -1.2,3.2 0.2,-3.1 z m 1.7,-0.5 -0.2,2 -1.1,0.1 0.2,-2.4 z m -3.3,-1.3 0,2.3 -0.8,1.9 -0.8,-2.2 0.4,-2.6 z m -41.299996,-2.3 1.6,0.5 -0.5,1.5 -2.3,0.8 -2.3,1.8 -1.3,-2.1 2.8,-2 z m 40.399996,-1.1 1.6,0.8 -0.5,2.2 -3.1,-1.5 z m 2.3,0.4 1,3 -1.8,1.2 z m -40.699996,-0.9 0.5,0.9 -2.5,0 z m -28.7,-7.7 0.5,1.9 -2.4,0.2 -1.4,-1.3 z m -7.4,-12.6 2.4,-0.4 1.6,1.4 1.8,0.2 -2.9,1.4 z m 77.199996,-24.899996 -6.4,18.8 -6,19.099996 2.1,0.4 0.4,-0.2 1.9,-0.4 -0.1,0.2 -0.5,0.7 0,0.1 0.9,1 0,0 1.8,2.2 0,1.3 2.2,-1 0.1,0 1.1,-1.6 0.3,-0.2 2.3,0 0.1,0.1 0.8,1.9 0.1,0 0.2,1 0.4,0.2 1,1.7 0.2,0.4 0.3,1 0.1,0.1 0.2,0.6 0,0 0.4,1.3 0.2,0.3 0,0 0.2,0.6 -0.2,0.1 -0.2,0.3 0.7,0.3 -0.2,0.3 0.3,0.6 -0.1,0.7 1.3,0.5 0.1,0.2 1.4,0.7 0.3,0.5 0.4,-0.1 0.1,0.3 -0.1,0.4 -0.6,2.4 -2.1,1.8 -0.5,-1.6 1,-3.3 -3.2,1.4 1.2,-2.3 -1.4,-2.5 -1.2,-0.6 0.8,-1.5 -2.5,-3 -0.3,-3.4 -0.3,3.6 -3.2,0.2 -2.4,-1.2 -1,-1.7 -2.9,-1.7 0.8,-1.6 -1.8,0.8 -5.3,-1.6 -2.599996,0.5 -5.5,-3.7 -2.5,0.5 -0.4,-1 -2.2,4.3 -2,0.3 -4.6,2.4 -1.4,-2 2.2,-3.5 2.8,-1.4 2.6,0.6 -2.8,-1.6 -6.7,4.1 0.2,1.3 -3.9,2 -0.7,1.3 1.9,0.7 -2.4,1.5 -0.7,1.2 -2,0.5 -4.2,2.6 -0.6,1.3 -4.8,1.8 -1.3,2 -7.3,2.1 -5.1,2 0.5,-1 2.3,-1 2.3,-1.9 2.8,-0.4 2.5,-2 2.1,-1 4.1,-2.9 1.7,-3.5 1.6,-1.5 -2.9,1.1 -1.8,-0.4 -0.7,1.2 -0.6,-1.9 -1.5,-0.6 -3.6,1.8 0,-2.4 1,-1 -0.8,-3.2 -0.4,1.3 -3.7,0.6 -2.1,-2.8 1.7,-1.2 -1.3,-1 -0.1,-2.7 6.6,-5.7 1.4,0.9 6.7,-2.7 0,-3.299996 1,-1.6 -4.5,2.4 -1.2,-0.9 -3.4,0.4 -2.6,-0.5 -0.6,-2.2 1.7,-0.6 -3.7,-1.5 6.6,-2.9 4.2,-1.1 -0.2,2.3 3.9,0.2 1,-1 -1.3,-2 0.8,-0.9 0.8,2.1 2.9,0.3 0.4,-1.1 -3.1,0.4 0.8,-1.9 -4.6,-0.4 -0.2,-2.1 -4.1,-3.1 1.6,-2.2 4.5,-0.3 3.2,-1.9 1.1,-1.7 3.3,-2.3 2.5,-0.3 3.1,-1.8 3.8,-0.1 4,-2.3 2.8,0.9 0.5,1.4 3.3,-0.5 1.9,0.5 0,1.7 6.199996,-0.2 2.8,1.2 4.1,0.2 1.5,0.8 3.9,-0.7 z"
     id="path14702"
     inkscape:connector-curvature="0"
     style="fill:#c5c7ca" />
  <path
     d="m 420.85898,278.50861 -2.4,-1.4 -2.7,0.7 -1.7,-1.7 -0.3,-0.4 0.6,-4 2.2,-1.4 1.1,-3.5 1,0.9 2.7,-3.2 4.4,-2.4 2.4,0.5 -0.2,1.2 2.1,4.3 2.5,0.9 1,2.5 -1,1.3 -1.4,-0.1 -1.3,1.4 -2.7,-0.4 -1.3,0.4 -5.4,0 z"
     id="path14704"
     inkscape:connector-curvature="0"
     style="fill:#c5c7ca" />
  <path
     d="m 285.15898,396.30861 0.7,-1.1 0.9,0 0.1,-0.2 2.3,1.1 0.6,1.2 0.9,-0.3 0,0 0.1,0 1,1.2 3.4,2.3 0.9,1.4 1.2,0.9 0,0 -0.9,1.2 0,0.2 0,1.5 0.1,0.1 -0.4,2.1 -2.6,1.8 -3.2,0 -2.4,-1.4 -1.8,0.1 -1.5,-1.8 0.2,-4.8 0.2,-1.8 z"
     id="path14706"
     inkscape:connector-curvature="0"
     style="fill:#c5c7ca" />
  <path
     d="m 583.55898,189.00861 -4.5,-3.1 -1.8,-3.6 -0.8,-0.7 -2.8,0.1 -0.4,-0.3 -1.3,-3.3 -3.3,-1.6 -0.4,1.3 -2.9,1.4 -0.9,2.3 -1.7,-0.2 -1,-12.2 5.9,-1.9 6.7,4.5 2.3,2.5 2.8,-0.5 4.9,0.5 1.7,2 0.6,-0.4 0.2,3.3 1.1,0 1.1,2.8 2.6,-0.1 1.9,1.8 0.7,-2.4 3.2,-2.4 1.2,-0.5 -1.7,2.2 3.2,1.4 0.4,-1.3 1.5,1.8 2.4,0.6 -3.3,2.2 -1.8,-0.3 -1.6,-0.6 0.1,-2 -2.5,2.7 -1.8,0.1 0.1,2 -1.9,-0.2 -0.8,1.4 1.9,0.6 0.9,2.7 -1.2,3.2 -3,-0.6 0.1,-2 -2.6,-0.8 -3,-2 z"
     id="path14708"
     inkscape:connector-curvature="0"
     style="fill:#c5c7ca" />
  <path
     d="m 276.95898,281.20861 0.4,0.7 -2.3,2.3 1.1,1.2 -2.1,1.1 -0.7,2.2 1.6,2.2 0.3,0.6 -2.4,2.1 -4.3,1 -3.4,-0.2 1.1,1.1 0.3,3.2 1.7,0.2 -1.8,2.2 -2.7,1.6 -3,1 -1.4,-1.3 -0.8,-3 -1.5,-1.8 1.3,-1.7 -1.3,-3.2 0.8,-4.9 -4.7,0.4 -1.7,-2.5 -5,-0.2 -0.9,-1.3 0.3,-2.4 -1.5,-2.8 0.3,-3.3 2.5,-3.5 1.6,-0.6 -1.5,0.7 0.8,2.6 -1.5,2.6 1.2,2.3 1.4,-0.9 -0.9,-4.7 4.5,-1.6 -1.3,-0.3 0.8,-1.6 0.7,2 3.1,0.9 0.5,1.9 4.9,-0.3 0.7,1 2.8,0.5 1.3,-1.5 4,-0.4 -0.4,0.6 1.3,2.3 2,-0.4 1.9,1.7 -1.5,2.5 z"
     id="path14710"
     inkscape:connector-curvature="0"
     style="fill:#c5c7ca" />
  <path
     d="m 696.25898,243.10861 -2.9,1.8 -0.2,1.7 -1.6,1.3 -0.6,2.7 4.4,6.3 2.8,2.1 1.6,2.1 1.5,4.6 0.1,6.2 -0.5,1.1 -4.2,2.9 -1.3,-0.9 -0.5,3.3 -4.2,2.2 0.1,-3 -1.2,-1.7 1.6,-1.6 2.8,0.5 -1,-2.5 1.5,0 2.6,-2.1 0,-3.4 -0.8,-1.7 0.5,-1.7 0.2,-1.7 -1.3,-1.7 -0.2,-1.1 -0.9,-0.8 -4.1,-5.2 -0.7,-1.3 -2.3,-1.3 -0.5,-1.6 1.8,-0.5 -1.1,-1.7 -0.9,-1.6 -1.1,0.7 -2,-1.6 0.1,-1.3 -1.2,-0.8 -1,-1.3 0.9,-1.1 1.4,1 0.5,-1.1 1.7,0.9 3.2,-2.5 1.4,1.3 1.6,-0.1 0.7,2.7 z"
     id="path14712"
     inkscape:connector-curvature="0"
     style="fill:#c5c7ca" />
  <path
     d="m 486.15898,357.10861 1.9,-0.5 2.6,1 -2.3,0.5 -1.6,1.3 -1,-1.2 -5.8,0.9 -0.1,11 -2.6,0 -0.1,8.3 -0.2,11.1 -1.8,1 -0.1,0.3 -2.6,0.2 -1.9,-0.6 -0.8,-2.1 -1.7,1.8 -2.7,-4 -1,-4.7 -0.1,-2.8 -0.7,-2.1 0,-4.8 -2.7,-5.2 -2.2,-5.6 -1.1,-1.3 -0.6,-3.6 1.7,-0.1 0.1,0 1,-0.6 1.5,0 1.1,1.1 11.3,0 0.7,1 6.3,0.6 z"
     id="path14714"
     inkscape:connector-curvature="0"
     style="fill:#c5c7ca" />
  <path
     d="m 504.55898,382.10861 0.8,-0.8 1.6,0.9 -0.1,2.4 -0.2,1.5 -2,-0.3 -0.9,-2.3 z"
     id="path14716"
     inkscape:connector-curvature="0"
     style="fill:#c5c7ca" />
  <path
     d="m 534.55898,258.40861 1,-0.9 -0.1,-2 3.2,-0.1 4.7,2.1 0.1,3.1 5.8,-7.8 8,-2.2 3,7 -2,1 -0.1,2 -7.8,3.2 -0.9,1.4 -1.9,0.1 -3,1.7 -2.7,0.3 -1.8,1.7 -2.4,0.5 -1.1,-0.7 -2.2,-8.5 z"
     id="path14718"
     inkscape:connector-curvature="0"
     style="fill:#c5c7ca" />
  <path
     d="m 486.15898,357.10861 -3.3,-3.8 -0.3,-1 0,-3.7 0.1,-5.1 5.1,0 0.2,-6.2 0.1,0.3 1.1,1.4 1.9,-0.8 0.1,1.3 2.7,0.8 1.9,-1 0.7,1.5 0.1,0.3 2.7,2 0.1,-0.1 0.9,1.7 2,0.2 0,-3.9 -1.8,0.7 -1.6,-1.8 0,-0.1 0.7,-3.1 -0.4,-3.8 -0.4,-0.3 0.1,-0.1 1.4,-1.5 -0.1,-0.7 3,-0.5 1,-0.2 2.7,1.6 0.2,0.4 0.7,0.3 0.5,0.1 0.3,0.3 1.2,0.5 1.1,0.8 1.3,2.8 -1.2,0.9 0.5,4.2 -1.2,1.7 -0.1,0.7 0.1,0 -0.6,1.5 1.1,1.1 -3.5,1.3 -4.1,1.5 0.5,1.9 -1.5,0 -2.5,1.3 -0.2,1.4 -2.4,1.2 -2.8,3.3 -3.6,-0.8 -2.6,-1 z"
     id="path14720"
     inkscape:connector-curvature="0"
     style="fill:#c5c7ca" />
  <path
     d="m 510.05898,356.20861 -0.2,1.4 0,1 0.2,0.6 -0.4,1.3 -0.2,1.6 -0.1,0.1 0.6,1.2 -1.1,2.3 -0.7,1.7 -2.5,3.7 -1.5,-0.2 -3.6,-0.3 -0.7,-1 -2.6,-0.8 -0.7,-3.2 -3.8,-3 -2.1,-5 3.6,0.8 2.8,-3.3 2.4,-1.2 0.2,-1.4 2.5,-1.3 1.5,0 0,1.1 2.3,0.2 2.6,1.2 1.4,0.9 0,1.2 z"
     id="path14722"
     inkscape:connector-curvature="0"
     style="fill:#c5c7ca" />
  <path
     d="m 728.75898,333.00861 2,2 -1.7,0.4 -3.1,-1.9 z m 12.8,0.2 -1.9,2.1 -2.3,0.4 1.5,-2.9 1.1,-0.4 1.2,-0.7 z m -21.4,-2 -1.5,0.4 1.1,-2 z m 4.5,-1.2 1.8,0.8 -5.2,1.4 0.5,-2.2 2.7,0.9 z m 11.7,-0.6 -0.4,1.3 -2.8,0.8 -4.7,-0.1 1,-1.7 5.1,1.1 z m -18.8,0.1 -0.8,1.6 -1.7,-1.9 z m 59,-1.8 -1.8,2.5 -1.6,0 1,-2.3 z m -62.6,-2 -1.3,1 -1.7,-0.9 z m -19.7,-2.5 3.1,-0.1 2.3,0.9 0.8,1.4 4.4,0.6 0.9,-1.5 4.6,1.3 1.7,2.5 1.9,-0.5 1,0.8 -0.3,2.2 -2.6,-1 -1.7,0.4 -4.8,-0.7 -4.6,-1.6 -1.8,0.4 -4,-1 0,-1 -2.7,-0.6 z m 41.8,-3.9 -0.4,2.2 -0.7,-1.7 z m 1.2,0.2 -1.2,2.8 0.5,-3.5 z m 9.5,-4.6 0.6,1.5 -1.4,0.6 -1.6,-2 z m 7.1,-0.6 1.5,0.2 1,2.5 -3.2,-1.6 -2.6,0.5 -0.8,-1.8 z m -55.2,-1.1 1.1,0.9 -1.7,1 z m -4.4,-2.2 1.8,2.3 -0.2,1.5 -1.8,-0.8 -0.5,-1.9 -1.7,-0.2 1.3,-1.6 z m -18,-2.4 0.8,2 -1.6,-1.3 z m 105.8,4.8 -0.3,10.7 -0.1,0 0,0.4 0,0.1 -0.1,0.3 -0.1,0.2 0.2,0.7 -0.2,6.4 -2.6,-2.9 -2.6,0.5 0.2,-4.2 -2,-4 -5.3,-2.8 -1.8,0 -3.7,-2.5 -2,1.4 0.1,-1.6 -1.8,-2.5 1.2,0.4 3,-2.1 -3,0.6 -3.5,-2.6 -0.1,-1.6 3,-1.4 3.9,1.1 0.7,1.8 -0.3,2.8 1.3,0.7 0.8,2.2 1.2,0.1 2.4,-3.3 2,-0.5 1.6,-1.7 4.8,2.5 z m -109.3,-11.6 0.9,2.3 -2,-2.2 z m 69.4,0 -1.7,2.8 -2,0.5 -1.4,-0.7 -5,0.3 -2.5,0.7 -0.1,2.2 1.6,2.3 1.9,-1.5 4.5,-0.8 -2.2,2.6 -2.1,1.2 1.9,2.9 -0.3,1.9 1.7,2.3 -3.5,0.8 0.3,-1.4 -1.8,-1.8 0.4,-2.5 -2.1,0.8 0.5,0.9 -0.3,6.5 -2.4,-0.3 0.6,-2.5 -0.2,-3.1 -1.4,0.2 -0.4,-2 1.4,-2.5 0,-1.7 1,-2.1 0.8,-3.9 1.4,-0.3 0.6,-1.5 5.1,1.4 2.5,0 z m 7,-1.1 -0.1,2.9 1.3,-2 0.8,1.1 -1.2,0.9 1.5,1.5 -2.2,-0.6 0.7,3.4 -1.4,-1.4 -0.3,-5.6 z m -25.8,-6.8 0.6,0 -0.6,0 z m -0.7,-0.3 0,0.1 0.2,0.1 0.2,0.1 0.7,1.3 -1.6,0.2 2.3,3.8 -0.5,1.3 2.8,2.6 -3.1,0.6 -0.8,3.7 -2.3,2.7 -0.1,3 -1.3,3.1 -3.5,1.6 -0.3,-1.9 -2.2,-0.1 -1.4,-1.3 -2.8,1.6 -0.3,-1.5 -3.8,0 -0.6,-5 -1.9,-1.2 -1.1,-4.8 0.6,-2.2 1.4,-1.5 0,1.3 2.3,2.2 3.1,-0.4 0.9,-1.3 0.1,0 2.1,-0.3 1.6,1 2,-0.8 0,0 0.9,-1.2 0.1,0 -0.2,-0.5 0,-0.3 0,-0.1 0.2,-0.2 0.1,0 0.1,-0.1 0.3,-0.3 0.6,-1.7 0.2,0 0.4,-1 0,-0.2 0,-0.9 0.2,-1 0.9,-0.7 0.1,0.1 z m -54.6,-3.8 2.2,1.1 2.3,-0.2 2,3.2 2.5,1.8 4,4.4 3.3,1.8 0.2,1.2 2.9,1.2 1.2,1.6 -1.1,1 0.6,1.7 1.9,0.5 1.2,3.4 1.8,0.3 1.2,2.4 -0.9,7.5 -1.3,-1.1 -1.4,1.4 -5.9,-5.5 -3.7,-5.4 -1.2,-3.7 -1.8,-2.8 -1.2,-0.5 -1.6,-4.8 -2.2,-1.3 -0.2,-1.4 -5.2,-5.2 -0.8,-2.6 z"
     id="path14724"
     inkscape:connector-curvature="0"
     style="fill:#c5c7ca" />
  <path
     d="m 566.95898,230.70861 0.3,2 -1.3,0.4 0.1,1.9 -1.3,4.6 -6.6,-0.7 -2.6,-4 1.3,0.9 4.4,-0.3 5.1,-6.1 z"
     id="path14726"
     inkscape:connector-curvature="0"
     style="fill:#c5c7ca" />
  <path
     d="m 739.95898,332.40861 -1.1,0.4 1.1,-0.4 z m 1.6,0.8 -0.4,-1.5 0.6,-0.9 5.4,-0.6 -2.2,1.5 z"
     id="path14728"
     inkscape:connector-curvature="0"
     style="fill:#c5c7ca" />
  <path
     d="m 395.05898,224.50861 11.1,0 -0.1,1.2 0,3.9 -8.2,0 0,2.4 0,2.7 -0.1,2.6 -0.9,0.4 -1.6,0.9 -0.1,5.1 -9.8,0 2.6,-6.6 2.7,-3.5 0.2,-2.2 1.6,-3 1.4,-0.8 z"
     id="path14730"
     inkscape:connector-curvature="0"
     style="fill:#c5c7ca" />
  <path
     d="m 475.95898,177.30861 0.7,-0.9 -2.9,-2.3 0.9,-1.8 -1.5,-2.7 -0.3,-2.3 -0.3,-1.3 3.4,-0.7 2.8,4.3 3.2,2.1 -0.7,1.4 1.6,2.1 -1.4,2.9 -3,0.3 -1.3,1.1 z"
     id="path14732"
     inkscape:connector-curvature="0"
     style="fill:#c5c7ca" />
  <path
     d="m 457.55898,179.40861 0,0 0,0 z"
     id="path14734"
     inkscape:connector-curvature="0"
     style="fill:#c5c7ca" />
  <path
     d="m 476.55898,37.608614 -0.4,1 3.8,1 -5,2.4 0.6,-1.4 -3.9,0.5 1.4,-2.2 -1.6,-0.7 2,-0.7 z m -4,-1.8 1.7,1.4 -3.4,0.4 -1,-1.4 z m -21.4,-0.2 1.8,2 -2.2,-1.3 z m 11.4,-6.2 0.2,-0.4 4.1,2.5 0.2,1.4 5.5,1.6 -0.3,0.9 -3.4,0.1 -1.5,0.8 0.3,1.7 -1.4,0.4 -0.1,2.5 -1.1,0 -1.1,3.8 -1.3,0.5 -4.5,-2.8 -1.3,-1.7 5.8,-1.5 -5.7,0.7 -0.8,-1.7 2.9,-0.2 1.2,-1 2.4,-0.1 -4.6,-1.7 -0.8,2 -2.4,0.4 -2.3,-2.1 0.6,-1.3 -2.2,-1 -1,-2.2 2.2,-1.4 2.4,0.8 2,2 1.3,-2.7 1.5,1.1 2.4,3.3 -1.5,-4.7 1.2,-0.9 z m 6.3,-2.9 1.9,1.3 3.2,1 0,-2.1 2.8,0.7 6.4,0.6 1,1.3 -2.8,1.4 0.3,0.5 -4.5,1.7 -2,-1.2 -4.3,0.2 -2.4,-1.2 4.4,-0.4 -0.2,-0.7 -6.1,0.6 -2.1,-2 4.2,-0.4 z"
     id="path14736"
     inkscape:connector-curvature="0"
     style="fill:#c5c7ca" />
  <path
     d="m 270.25898,253.40861 -0.4,0 0.4,0 z"
     id="path14738"
     inkscape:connector-curvature="0"
     style="fill:#c5c7ca" />
  <path
     d="m 269.85898,253.40861 0.4,0 -0.4,0 z"
     id="path14740"
     inkscape:connector-curvature="0"
     style="fill:#c5c7ca" />
  <path
     d="m 729.35898,232.20861 0.5,2 -0.6,3.5 -1.5,4.2 -2,-3.7 0,-1.4 1.8,-4.1 z"
     id="path14744"
     inkscape:connector-curvature="0"
     style="fill:#c5c7ca" />
</svg>
